  0
SECTION
  2
BLOCKS
  0
ENDSEC
  0
SECTION
  2
ENTITIES
  0
LINE
  8
0
 10
0
 20
-84.9482
 11
12
 21
-84.9482
  0
LINE
  8
0
 10
12
 20
-84.9482
 11
12
 21
-80.5
  0
LINE
  8
0
 10
12
 20
-80.5
 11
10
 21
-80.5
  0
LINE
  8
0
 10
10
 20
-80.5
 11
10
 21
-79
  0
LINE
  8
0
 10
10
 20
-79
 11
5
 21
-79
  0
LINE
  8
0
 10
5
 20
-79
 11
5
 21
-78
  0
LINE
  8
0
 10
5
 20
-78
 11
3
 21
-78
  0
LINE
  8
0
 10
3
 20
-78
 11
3
 21
-73
  0
LINE
  8
0
 10
3
 20
-73
 11
5
 21
-73
  0
LINE
  8
0
 10
5
 20
-73
 11
5
 21
-72
  0
LINE
  8
0
 10
5
 20
-72
 11
10
 21
-72
  0
LINE
  8
0
 10
10
 20
-72
 11
10
 21
-63.55
  0
LINE
  8
0
 10
10
 20
-63.55
 11
12
 21
-63.55
  0
LINE
  8
0
 10
12
 20
-63.55
 11
12
 21
-57
  0
LINE
  8
0
 10
12
 20
-57
 11
10
 21
-57
  0
LINE
  8
0
 10
10
 20
-57
 11
10
 21
-53
  0
LINE
  8
0
 10
10
 20
-53
 11
12
 21
-53
  0
LINE
  8
0
 10
12
 20
-53
 11
12
 21
-34
  0
LINE
  8
0
 10
12
 20
-34
 11
0
 21
-34
  0
LINE
  8
0
 10
0
 20
-34
 11
0
 21
-84.9482
  0
LINE
  8
0
 10
0
 20
-30
 11
12
 21
-30
  0
LINE
  8
0
 10
12
 20
-30
 11
12
 21
-22.5
  0
LINE
  8
0
 10
12
 20
-22.5
 11
0
 21
-22.5
  0
LINE
  8
0
 10
0
 20
-22.5
 11
0
 21
-30
  0
LINE
  8
0
 10
0
 20
-18.5
 11
12
 21
-18.5
  0
LINE
  8
0
 10
12
 20
-18.5
 11
12
 21
18.5
  0
LINE
  8
0
 10
12
 20
18.5
 11
0
 21
18.5
  0
LINE
  8
0
 10
0
 20
18.5
 11
0
 21
-18.5
  0
LINE
  8
0
 10
0
 20
22.5
 11
12
 21
22.5
  0
LINE
  8
0
 10
12
 20
22.5
 11
12
 21
30
  0
LINE
  8
0
 10
12
 20
30
 11
0
 21
30
  0
LINE
  8
0
 10
0
 20
30
 11
0
 21
22.5
  0
LINE
  8
0
 10
0
 20
34
 11
12
 21
34
  0
LINE
  8
0
 10
12
 20
34
 11
12
 21
58
  0
LINE
  8
0
 10
12
 20
58
 11
10
 21
58
  0
LINE
  8
0
 10
10
 20
58
 11
10
 21
62
  0
LINE
  8
0
 10
10
 20
62
 11
12
 21
62
  0
LINE
  8
0
 10
12
 20
62
 11
12
 21
63.55
  0
LINE
  8
0
 10
12
 20
63.55
 11
10
 21
63.55
  0
LINE
  8
0
 10
10
 20
63.55
 11
10
 21
72
  0
LINE
  8
0
 10
10
 20
72
 11
5
 21
72
  0
LINE
  8
0
 10
5
 20
72
 11
5
 21
73
  0
LINE
  8
0
 10
5
 20
73
 11
0
 21
73
  0
LINE
  8
0
 10
0
 20
73
 11
0
 21
34
  0
LINE
  8
0
 10
0
 20
106
 11
2
 21
106
  0
LINE
  8
0
 10
2
 20
106
 11
2
 21
147.486
  0
LINE
  8
0
 10
2
 20
147.486
 11
12
 21
147.486
  0
LINE
  8
0
 10
12
 20
147.486
 11
12
 21
154.982
  0
LINE
  8
0
 10
12
 20
154.982
 11
0
 21
154.982
  0
LINE
  8
0
 10
0
 20
154.982
 11
0
 21
106
  0
LINE
  8
0
 10
3
 20
78
 11
5
 21
78
  0
LINE
  8
0
 10
5
 20
78
 11
5
 21
79
  0
LINE
  8
0
 10
5
 20
79
 11
10
 21
79
  0
LINE
  8
0
 10
10
 20
79
 11
10
 21
80.5
  0
LINE
  8
0
 10
10
 20
80.5
 11
12
 21
80.5
  0
LINE
  8
0
 10
12
 20
80.5
 11
12
 21
102.514
  0
LINE
  8
0
 10
12
 20
102.514
 11
3
 21
102.514
  0
LINE
  8
0
 10
3
 20
102.514
 11
3
 21
78
  0
ENDSEC
  0
SECTION
  2
OBJECTS
  0
DICTIONARY
  0
ENDSEC
  0
EOF
