  0
SECTION
  2
BLOCKS
  0
ENDSEC
  0
SECTION
  2
ENTITIES
  0
LINE
  8
0
 10
-85
 20
0
 11
-84.7929
 21
-5.9293
  0
LINE
  8
0
 10
-84.7929
 20
-5.9293
 11
-84.1728
 21
-11.8297
  0
LINE
  8
0
 10
-84.1728
 20
-11.8297
 11
-83.1425
 21
-17.6725
  0
LINE
  8
0
 10
-83.1425
 20
-17.6725
 11
-81.7072
 21
-23.4292
  0
LINE
  8
0
 10
-81.7072
 20
-23.4292
 11
-79.8739
 21
-29.0717
  0
LINE
  8
0
 10
-79.8739
 20
-29.0717
 11
-77.6514
 21
-34.5726
  0
LINE
  8
0
 10
-77.6514
 20
-34.5726
 11
-75.0505
 21
-39.9051
  0
LINE
  8
0
 10
-75.0505
 20
-39.9051
 11
-72.0841
 21
-45.0431
  0
LINE
  8
0
 10
-72.0841
 20
-45.0431
 11
-68.7664
 21
-49.9617
  0
LINE
  8
0
 10
-68.7664
 20
-49.9617
 11
-65.1138
 21
-54.6369
  0
LINE
  8
0
 10
-65.1138
 20
-54.6369
 11
-61.1439
 21
-59.046
  0
LINE
  8
0
 10
-61.1439
 20
-59.046
 11
-56.8761
 21
-63.1673
  0
LINE
  8
0
 10
-56.8761
 20
-63.1673
 11
-52.3312
 21
-66.9809
  0
LINE
  8
0
 10
-52.3312
 20
-66.9809
 11
-47.5314
 21
-70.4682
  0
LINE
  8
0
 10
-47.5314
 20
-70.4682
 11
-42.5
 21
-73.6122
  0
LINE
  8
0
 10
-42.5
 20
-73.6122
 11
-37.2615
 21
-76.3975
  0
LINE
  8
0
 10
-37.2615
 20
-76.3975
 11
-31.8416
 21
-78.8106
  0
LINE
  8
0
 10
-31.8416
 20
-78.8106
 11
-26.2664
 21
-80.8398
  0
LINE
  8
0
 10
-26.2664
 20
-80.8398
 11
-20.5634
 21
-82.4751
  0
LINE
  8
0
 10
-20.5634
 20
-82.4751
 11
-14.7601
 21
-83.7087
  0
LINE
  8
0
 10
-14.7601
 20
-83.7087
 11
-8.88492
 21
-84.5344
  0
LINE
  8
0
 10
-8.88492
 20
-84.5344
 11
-2.96646
 21
-84.9482
  0
LINE
  8
0
 10
-2.96646
 20
-84.9482
 11
2.96646
 21
-84.9482
  0
LINE
  8
0
 10
2.96646
 20
-84.9482
 11
8.88492
 21
-84.5344
  0
LINE
  8
0
 10
8.88492
 20
-84.5344
 11
14.7601
 21
-83.7087
  0
LINE
  8
0
 10
14.7601
 20
-83.7087
 11
20.5634
 21
-82.4751
  0
LINE
  8
0
 10
20.5634
 20
-82.4751
 11
26.2664
 21
-80.8398
  0
LINE
  8
0
 10
26.2664
 20
-80.8398
 11
31.8416
 21
-78.8106
  0
LINE
  8
0
 10
31.8416
 20
-78.8106
 11
37.2615
 21
-76.3975
  0
LINE
  8
0
 10
37.2615
 20
-76.3975
 11
42.5
 21
-73.6122
  0
LINE
  8
0
 10
42.5
 20
-73.6122
 11
47.5314
 21
-70.4682
  0
LINE
  8
0
 10
47.5314
 20
-70.4682
 11
52.3312
 21
-66.9809
  0
LINE
  8
0
 10
52.3312
 20
-66.9809
 11
56.8761
 21
-63.1673
  0
LINE
  8
0
 10
56.8761
 20
-63.1673
 11
61.1439
 21
-59.046
  0
LINE
  8
0
 10
61.1439
 20
-59.046
 11
65.1138
 21
-54.6369
  0
LINE
  8
0
 10
65.1138
 20
-54.6369
 11
68.7664
 21
-49.9617
  0
LINE
  8
0
 10
68.7664
 20
-49.9617
 11
72.0841
 21
-45.0431
  0
LINE
  8
0
 10
72.0841
 20
-45.0431
 11
75.0505
 21
-39.9051
  0
LINE
  8
0
 10
75.0505
 20
-39.9051
 11
77.6514
 21
-34.5726
  0
LINE
  8
0
 10
77.6514
 20
-34.5726
 11
79.8739
 21
-29.0717
  0
LINE
  8
0
 10
79.8739
 20
-29.0717
 11
81.7072
 21
-23.4292
  0
LINE
  8
0
 10
81.7072
 20
-23.4292
 11
83.1425
 21
-17.6725
  0
LINE
  8
0
 10
83.1425
 20
-17.6725
 11
84.1728
 21
-11.8297
  0
LINE
  8
0
 10
84.1728
 20
-11.8297
 11
84.7929
 21
-5.9293
  0
LINE
  8
0
 10
84.7929
 20
-5.9293
 11
85
 21
0
  0
LINE
  8
0
 10
85
 20
0
 11
84.7929
 21
5.9293
  0
LINE
  8
0
 10
84.7929
 20
5.9293
 11
84.1728
 21
11.8297
  0
LINE
  8
0
 10
84.1728
 20
11.8297
 11
83.1425
 21
17.6725
  0
LINE
  8
0
 10
83.1425
 20
17.6725
 11
81.7072
 21
23.4292
  0
LINE
  8
0
 10
81.7072
 20
23.4292
 11
79.8739
 21
29.0717
  0
LINE
  8
0
 10
79.8739
 20
29.0717
 11
77.6514
 21
34.5726
  0
LINE
  8
0
 10
77.6514
 20
34.5726
 11
75.0505
 21
39.9051
  0
LINE
  8
0
 10
75.0505
 20
39.9051
 11
26.4884
 21
139.084
  0
LINE
  8
0
 10
26.4884
 20
139.084
 11
25.4414
 21
140.898
  0
LINE
  8
0
 10
25.4414
 20
140.898
 11
24.2705
 21
142.634
  0
LINE
  8
0
 10
24.2705
 20
142.634
 11
22.9813
 21
144.284
  0
LINE
  8
0
 10
22.9813
 20
144.284
 11
21.5802
 21
145.84
  0
LINE
  8
0
 10
21.5802
 20
145.84
 11
20.0739
 21
147.294
  0
LINE
  8
0
 10
20.0739
 20
147.294
 11
18.4698
 21
148.64
  0
LINE
  8
0
 10
18.4698
 20
148.64
 11
16.7758
 21
149.871
  0
LINE
  8
0
 10
16.7758
 20
149.871
 11
15
 21
150.981
  0
LINE
  8
0
 10
15
 20
150.981
 11
13.1511
 21
151.964
  0
LINE
  8
0
 10
13.1511
 20
151.964
 11
11.2382
 21
152.816
  0
LINE
  8
0
 10
11.2382
 20
152.816
 11
9.27051
 21
153.532
  0
LINE
  8
0
 10
9.27051
 20
153.532
 11
7.25766
 21
154.109
  0
LINE
  8
0
 10
7.25766
 20
154.109
 11
5.20944
 21
154.544
  0
LINE
  8
0
 10
5.20944
 20
154.544
 11
3.13585
 21
154.836
  0
LINE
  8
0
 10
3.13585
 20
154.836
 11
1.04698
 21
154.982
  0
LINE
  8
0
 10
1.04698
 20
154.982
 11
-1.04698
 21
154.982
  0
LINE
  8
0
 10
-1.04698
 20
154.982
 11
-3.13585
 21
154.836
  0
LINE
  8
0
 10
-3.13585
 20
154.836
 11
-5.20944
 21
154.544
  0
LINE
  8
0
 10
-5.20944
 20
154.544
 11
-7.25766
 21
154.109
  0
LINE
  8
0
 10
-7.25766
 20
154.109
 11
-9.27051
 21
153.532
  0
LINE
  8
0
 10
-9.27051
 20
153.532
 11
-11.2382
 21
152.816
  0
LINE
  8
0
 10
-11.2382
 20
152.816
 11
-13.1511
 21
151.964
  0
LINE
  8
0
 10
-13.1511
 20
151.964
 11
-15
 21
150.981
  0
LINE
  8
0
 10
-15
 20
150.981
 11
-16.7758
 21
149.871
  0
LINE
  8
0
 10
-16.7758
 20
149.871
 11
-18.4698
 21
148.64
  0
LINE
  8
0
 10
-18.4698
 20
148.64
 11
-20.0739
 21
147.294
  0
LINE
  8
0
 10
-20.0739
 20
147.294
 11
-21.5802
 21
145.84
  0
LINE
  8
0
 10
-21.5802
 20
145.84
 11
-22.9813
 21
144.284
  0
LINE
  8
0
 10
-22.9813
 20
144.284
 11
-24.2705
 21
142.634
  0
LINE
  8
0
 10
-24.2705
 20
142.634
 11
-25.4414
 21
140.898
  0
LINE
  8
0
 10
-25.4414
 20
140.898
 11
-26.4884
 21
139.084
  0
LINE
  8
0
 10
-26.4884
 20
139.084
 11
-75.0505
 21
39.9051
  0
LINE
  8
0
 10
-75.0505
 20
39.9051
 11
-77.6514
 21
34.5726
  0
LINE
  8
0
 10
-77.6514
 20
34.5726
 11
-79.8739
 21
29.0717
  0
LINE
  8
0
 10
-79.8739
 20
29.0717
 11
-81.7072
 21
23.4292
  0
LINE
  8
0
 10
-81.7072
 20
23.4292
 11
-83.1425
 21
17.6725
  0
LINE
  8
0
 10
-83.1425
 20
17.6725
 11
-84.1728
 21
11.8297
  0
LINE
  8
0
 10
-84.1728
 20
11.8297
 11
-84.7929
 21
5.9293
  0
LINE
  8
0
 10
-84.7929
 20
5.9293
 11
-85
 21
0
  0
LINE
  8
0
 10
-33
 20
0
 11
-32.9799
 21
1.15168
  0
LINE
  8
0
 10
-32.9799
 20
1.15168
 11
-32.9196
 21
2.30196
  0
LINE
  8
0
 10
-32.9196
 20
2.30196
 11
-32.8192
 21
3.44944
  0
LINE
  8
0
 10
-32.8192
 20
3.44944
 11
-32.6788
 21
4.59271
  0
LINE
  8
0
 10
-32.6788
 20
4.59271
 11
-32.4987
 21
5.73039
  0
LINE
  8
0
 10
-32.4987
 20
5.73039
 11
-32.2789
 21
6.86108
  0
LINE
  8
0
 10
-32.2789
 20
6.86108
 11
-32.0198
 21
7.98342
  0
LINE
  8
0
 10
-32.0198
 20
7.98342
 11
-31.7216
 21
9.09603
  0
LINE
  8
0
 10
-31.7216
 20
9.09603
 11
-31.3849
 21
10.1976
  0
LINE
  8
0
 10
-31.3849
 20
10.1976
 11
-31.0099
 21
11.2867
  0
LINE
  8
0
 10
-31.0099
 20
11.2867
 11
-30.5971
 21
12.362
  0
LINE
  8
0
 10
-30.5971
 20
12.362
 11
-30.147
 21
13.4223
  0
LINE
  8
0
 10
-30.147
 20
13.4223
 11
-29.6602
 21
14.4662
  0
LINE
  8
0
 10
-29.6602
 20
14.4662
 11
-29.1373
 21
15.4926
  0
LINE
  8
0
 10
-29.1373
 20
15.4926
 11
-28.5788
 21
16.5
  0
LINE
  8
0
 10
-28.5788
 20
16.5
 11
-27.9856
 21
17.4873
  0
LINE
  8
0
 10
-27.9856
 20
17.4873
 11
-27.3582
 21
18.4534
  0
LINE
  8
0
 10
-27.3582
 20
18.4534
 11
-26.6976
 21
19.3969
  0
LINE
  8
0
 10
-26.6976
 20
19.3969
 11
-26.0044
 21
20.3168
  0
LINE
  8
0
 10
-26.0044
 20
20.3168
 11
-25.2795
 21
21.212
  0
LINE
  8
0
 10
-25.2795
 20
21.212
 11
-24.5238
 21
22.0813
  0
LINE
  8
0
 10
-24.5238
 20
22.0813
 11
-23.7382
 21
22.9237
  0
LINE
  8
0
 10
-23.7382
 20
22.9237
 11
-22.9237
 21
23.7382
  0
LINE
  8
0
 10
-22.9237
 20
23.7382
 11
-22.0813
 21
24.5238
  0
LINE
  8
0
 10
-22.0813
 20
24.5238
 11
-21.212
 21
25.2795
  0
LINE
  8
0
 10
-21.212
 20
25.2795
 11
-20.3168
 21
26.0044
  0
LINE
  8
0
 10
-20.3168
 20
26.0044
 11
-19.3969
 21
26.6976
  0
LINE
  8
0
 10
-19.3969
 20
26.6976
 11
-18.4534
 21
27.3582
  0
LINE
  8
0
 10
-18.4534
 20
27.3582
 11
-17.4873
 21
27.9856
  0
LINE
  8
0
 10
-17.4873
 20
27.9856
 11
-16.5
 21
28.5788
  0
LINE
  8
0
 10
-16.5
 20
28.5788
 11
-15.4926
 21
29.1373
  0
LINE
  8
0
 10
-15.4926
 20
29.1373
 11
-14.4662
 21
29.6602
  0
LINE
  8
0
 10
-14.4662
 20
29.6602
 11
-13.4223
 21
30.147
  0
LINE
  8
0
 10
-13.4223
 20
30.147
 11
-12.362
 21
30.5971
  0
LINE
  8
0
 10
-12.362
 20
30.5971
 11
-11.2867
 21
31.0099
  0
LINE
  8
0
 10
-11.2867
 20
31.0099
 11
-10.1976
 21
31.3849
  0
LINE
  8
0
 10
-10.1976
 20
31.3849
 11
-9.09603
 21
31.7216
  0
LINE
  8
0
 10
-9.09603
 20
31.7216
 11
-7.98342
 21
32.0198
  0
LINE
  8
0
 10
-7.98342
 20
32.0198
 11
-6.86108
 21
32.2789
  0
LINE
  8
0
 10
-6.86108
 20
32.2789
 11
-5.73039
 21
32.4987
  0
LINE
  8
0
 10
-5.73039
 20
32.4987
 11
-4.59271
 21
32.6788
  0
LINE
  8
0
 10
-4.59271
 20
32.6788
 11
-3.44944
 21
32.8192
  0
LINE
  8
0
 10
-3.44944
 20
32.8192
 11
-2.30196
 21
32.9196
  0
LINE
  8
0
 10
-2.30196
 20
32.9196
 11
-1.15168
 21
32.9799
  0
LINE
  8
0
 10
-1.15168
 20
32.9799
 11
0
 21
33
  0
LINE
  8
0
 10
0
 20
33
 11
1.15168
 21
32.9799
  0
LINE
  8
0
 10
1.15168
 20
32.9799
 11
2.30196
 21
32.9196
  0
LINE
  8
0
 10
2.30196
 20
32.9196
 11
3.44944
 21
32.8192
  0
LINE
  8
0
 10
3.44944
 20
32.8192
 11
4.59271
 21
32.6788
  0
LINE
  8
0
 10
4.59271
 20
32.6788
 11
5.73039
 21
32.4987
  0
LINE
  8
0
 10
5.73039
 20
32.4987
 11
6.86108
 21
32.2789
  0
LINE
  8
0
 10
6.86108
 20
32.2789
 11
7.98342
 21
32.0198
  0
LINE
  8
0
 10
7.98342
 20
32.0198
 11
9.09603
 21
31.7216
  0
LINE
  8
0
 10
9.09603
 20
31.7216
 11
10.1976
 21
31.3849
  0
LINE
  8
0
 10
10.1976
 20
31.3849
 11
11.2867
 21
31.0099
  0
LINE
  8
0
 10
11.2867
 20
31.0099
 11
12.362
 21
30.5971
  0
LINE
  8
0
 10
12.362
 20
30.5971
 11
13.4223
 21
30.147
  0
LINE
  8
0
 10
13.4223
 20
30.147
 11
14.4662
 21
29.6602
  0
LINE
  8
0
 10
14.4662
 20
29.6602
 11
15.4926
 21
29.1373
  0
LINE
  8
0
 10
15.4926
 20
29.1373
 11
16.5
 21
28.5788
  0
LINE
  8
0
 10
16.5
 20
28.5788
 11
17.4873
 21
27.9856
  0
LINE
  8
0
 10
17.4873
 20
27.9856
 11
18.4534
 21
27.3582
  0
LINE
  8
0
 10
18.4534
 20
27.3582
 11
19.3969
 21
26.6976
  0
LINE
  8
0
 10
19.3969
 20
26.6976
 11
20.3168
 21
26.0044
  0
LINE
  8
0
 10
20.3168
 20
26.0044
 11
21.212
 21
25.2795
  0
LINE
  8
0
 10
21.212
 20
25.2795
 11
22.0813
 21
24.5238
  0
LINE
  8
0
 10
22.0813
 20
24.5238
 11
22.9237
 21
23.7382
  0
LINE
  8
0
 10
22.9237
 20
23.7382
 11
23.7382
 21
22.9237
  0
LINE
  8
0
 10
23.7382
 20
22.9237
 11
24.5238
 21
22.0813
  0
LINE
  8
0
 10
24.5238
 20
22.0813
 11
25.2795
 21
21.212
  0
LINE
  8
0
 10
25.2795
 20
21.212
 11
26.0044
 21
20.3168
  0
LINE
  8
0
 10
26.0044
 20
20.3168
 11
26.6976
 21
19.3969
  0
LINE
  8
0
 10
26.6976
 20
19.3969
 11
27.3582
 21
18.4534
  0
LINE
  8
0
 10
27.3582
 20
18.4534
 11
27.9856
 21
17.4873
  0
LINE
  8
0
 10
27.9856
 20
17.4873
 11
28.5788
 21
16.5
  0
LINE
  8
0
 10
28.5788
 20
16.5
 11
29.1373
 21
15.4926
  0
LINE
  8
0
 10
29.1373
 20
15.4926
 11
29.6602
 21
14.4662
  0
LINE
  8
0
 10
29.6602
 20
14.4662
 11
30.147
 21
13.4223
  0
LINE
  8
0
 10
30.147
 20
13.4223
 11
30.5971
 21
12.362
  0
LINE
  8
0
 10
30.5971
 20
12.362
 11
31.0099
 21
11.2867
  0
LINE
  8
0
 10
31.0099
 20
11.2867
 11
31.3849
 21
10.1976
  0
LINE
  8
0
 10
31.3849
 20
10.1976
 11
31.7216
 21
9.09603
  0
LINE
  8
0
 10
31.7216
 20
9.09603
 11
32.0198
 21
7.98342
  0
LINE
  8
0
 10
32.0198
 20
7.98342
 11
32.2789
 21
6.86108
  0
LINE
  8
0
 10
32.2789
 20
6.86108
 11
32.4987
 21
5.73039
  0
LINE
  8
0
 10
32.4987
 20
5.73039
 11
32.6788
 21
4.59271
  0
LINE
  8
0
 10
32.6788
 20
4.59271
 11
32.8192
 21
3.44944
  0
LINE
  8
0
 10
32.8192
 20
3.44944
 11
32.9196
 21
2.30196
  0
LINE
  8
0
 10
32.9196
 20
2.30196
 11
32.9799
 21
1.15168
  0
LINE
  8
0
 10
32.9799
 20
1.15168
 11
33
 21
0
  0
LINE
  8
0
 10
33
 20
0
 11
32.9799
 21
-1.15168
  0
LINE
  8
0
 10
32.9799
 20
-1.15168
 11
32.9196
 21
-2.30196
  0
LINE
  8
0
 10
32.9196
 20
-2.30196
 11
32.8192
 21
-3.44944
  0
LINE
  8
0
 10
32.8192
 20
-3.44944
 11
32.6788
 21
-4.59271
  0
LINE
  8
0
 10
32.6788
 20
-4.59271
 11
32.4987
 21
-5.73039
  0
LINE
  8
0
 10
32.4987
 20
-5.73039
 11
32.2789
 21
-6.86108
  0
LINE
  8
0
 10
32.2789
 20
-6.86108
 11
32.0198
 21
-7.98342
  0
LINE
  8
0
 10
32.0198
 20
-7.98342
 11
31.7216
 21
-9.09603
  0
LINE
  8
0
 10
31.7216
 20
-9.09603
 11
31.3849
 21
-10.1976
  0
LINE
  8
0
 10
31.3849
 20
-10.1976
 11
31.0099
 21
-11.2867
  0
LINE
  8
0
 10
31.0099
 20
-11.2867
 11
30.5971
 21
-12.362
  0
LINE
  8
0
 10
30.5971
 20
-12.362
 11
30.147
 21
-13.4223
  0
LINE
  8
0
 10
30.147
 20
-13.4223
 11
29.6602
 21
-14.4662
  0
LINE
  8
0
 10
29.6602
 20
-14.4662
 11
29.1373
 21
-15.4926
  0
LINE
  8
0
 10
29.1373
 20
-15.4926
 11
28.5788
 21
-16.5
  0
LINE
  8
0
 10
28.5788
 20
-16.5
 11
27.9856
 21
-17.4873
  0
LINE
  8
0
 10
27.9856
 20
-17.4873
 11
27.3582
 21
-18.4534
  0
LINE
  8
0
 10
27.3582
 20
-18.4534
 11
26.6976
 21
-19.3969
  0
LINE
  8
0
 10
26.6976
 20
-19.3969
 11
26.0044
 21
-20.3168
  0
LINE
  8
0
 10
26.0044
 20
-20.3168
 11
25.2795
 21
-21.212
  0
LINE
  8
0
 10
25.2795
 20
-21.212
 11
24.5238
 21
-22.0813
  0
LINE
  8
0
 10
24.5238
 20
-22.0813
 11
23.7382
 21
-22.9237
  0
LINE
  8
0
 10
23.7382
 20
-22.9237
 11
22.9237
 21
-23.7382
  0
LINE
  8
0
 10
22.9237
 20
-23.7382
 11
22.0813
 21
-24.5238
  0
LINE
  8
0
 10
22.0813
 20
-24.5238
 11
21.212
 21
-25.2795
  0
LINE
  8
0
 10
21.212
 20
-25.2795
 11
20.3168
 21
-26.0044
  0
LINE
  8
0
 10
20.3168
 20
-26.0044
 11
19.3969
 21
-26.6976
  0
LINE
  8
0
 10
19.3969
 20
-26.6976
 11
18.4534
 21
-27.3582
  0
LINE
  8
0
 10
18.4534
 20
-27.3582
 11
17.4873
 21
-27.9856
  0
LINE
  8
0
 10
17.4873
 20
-27.9856
 11
16.5
 21
-28.5788
  0
LINE
  8
0
 10
16.5
 20
-28.5788
 11
15.4926
 21
-29.1373
  0
LINE
  8
0
 10
15.4926
 20
-29.1373
 11
14.4662
 21
-29.6602
  0
LINE
  8
0
 10
14.4662
 20
-29.6602
 11
13.4223
 21
-30.147
  0
LINE
  8
0
 10
13.4223
 20
-30.147
 11
12.362
 21
-30.5971
  0
LINE
  8
0
 10
12.362
 20
-30.5971
 11
11.2867
 21
-31.0099
  0
LINE
  8
0
 10
11.2867
 20
-31.0099
 11
10.1976
 21
-31.3849
  0
LINE
  8
0
 10
10.1976
 20
-31.3849
 11
9.09603
 21
-31.7216
  0
LINE
  8
0
 10
9.09603
 20
-31.7216
 11
7.98342
 21
-32.0198
  0
LINE
  8
0
 10
7.98342
 20
-32.0198
 11
6.86108
 21
-32.2789
  0
LINE
  8
0
 10
6.86108
 20
-32.2789
 11
5.73039
 21
-32.4987
  0
LINE
  8
0
 10
5.73039
 20
-32.4987
 11
4.59271
 21
-32.6788
  0
LINE
  8
0
 10
4.59271
 20
-32.6788
 11
3.44944
 21
-32.8192
  0
LINE
  8
0
 10
3.44944
 20
-32.8192
 11
2.30196
 21
-32.9196
  0
LINE
  8
0
 10
2.30196
 20
-32.9196
 11
1.15168
 21
-32.9799
  0
LINE
  8
0
 10
1.15168
 20
-32.9799
 11
0
 21
-33
  0
LINE
  8
0
 10
0
 20
-33
 11
-1.15168
 21
-32.9799
  0
LINE
  8
0
 10
-1.15168
 20
-32.9799
 11
-2.30196
 21
-32.9196
  0
LINE
  8
0
 10
-2.30196
 20
-32.9196
 11
-3.44944
 21
-32.8192
  0
LINE
  8
0
 10
-3.44944
 20
-32.8192
 11
-4.59271
 21
-32.6788
  0
LINE
  8
0
 10
-4.59271
 20
-32.6788
 11
-5.73039
 21
-32.4987
  0
LINE
  8
0
 10
-5.73039
 20
-32.4987
 11
-6.86108
 21
-32.2789
  0
LINE
  8
0
 10
-6.86108
 20
-32.2789
 11
-7.98342
 21
-32.0198
  0
LINE
  8
0
 10
-7.98342
 20
-32.0198
 11
-9.09603
 21
-31.7216
  0
LINE
  8
0
 10
-9.09603
 20
-31.7216
 11
-10.1976
 21
-31.3849
  0
LINE
  8
0
 10
-10.1976
 20
-31.3849
 11
-11.2867
 21
-31.0099
  0
LINE
  8
0
 10
-11.2867
 20
-31.0099
 11
-12.362
 21
-30.5971
  0
LINE
  8
0
 10
-12.362
 20
-30.5971
 11
-13.4223
 21
-30.147
  0
LINE
  8
0
 10
-13.4223
 20
-30.147
 11
-14.4662
 21
-29.6602
  0
LINE
  8
0
 10
-14.4662
 20
-29.6602
 11
-15.4926
 21
-29.1373
  0
LINE
  8
0
 10
-15.4926
 20
-29.1373
 11
-16.5
 21
-28.5788
  0
LINE
  8
0
 10
-16.5
 20
-28.5788
 11
-17.4873
 21
-27.9856
  0
LINE
  8
0
 10
-17.4873
 20
-27.9856
 11
-18.4534
 21
-27.3582
  0
LINE
  8
0
 10
-18.4534
 20
-27.3582
 11
-19.3969
 21
-26.6976
  0
LINE
  8
0
 10
-19.3969
 20
-26.6976
 11
-20.3168
 21
-26.0044
  0
LINE
  8
0
 10
-20.3168
 20
-26.0044
 11
-21.212
 21
-25.2795
  0
LINE
  8
0
 10
-21.212
 20
-25.2795
 11
-22.0813
 21
-24.5238
  0
LINE
  8
0
 10
-22.0813
 20
-24.5238
 11
-22.9237
 21
-23.7382
  0
LINE
  8
0
 10
-22.9237
 20
-23.7382
 11
-23.7382
 21
-22.9237
  0
LINE
  8
0
 10
-23.7382
 20
-22.9237
 11
-24.5238
 21
-22.0813
  0
LINE
  8
0
 10
-24.5238
 20
-22.0813
 11
-25.2795
 21
-21.212
  0
LINE
  8
0
 10
-25.2795
 20
-21.212
 11
-26.0044
 21
-20.3168
  0
LINE
  8
0
 10
-26.0044
 20
-20.3168
 11
-26.6976
 21
-19.3969
  0
LINE
  8
0
 10
-26.6976
 20
-19.3969
 11
-27.3582
 21
-18.4534
  0
LINE
  8
0
 10
-27.3582
 20
-18.4534
 11
-27.9856
 21
-17.4873
  0
LINE
  8
0
 10
-27.9856
 20
-17.4873
 11
-28.5788
 21
-16.5
  0
LINE
  8
0
 10
-28.5788
 20
-16.5
 11
-29.1373
 21
-15.4926
  0
LINE
  8
0
 10
-29.1373
 20
-15.4926
 11
-29.6602
 21
-14.4662
  0
LINE
  8
0
 10
-29.6602
 20
-14.4662
 11
-30.147
 21
-13.4223
  0
LINE
  8
0
 10
-30.147
 20
-13.4223
 11
-30.5971
 21
-12.362
  0
LINE
  8
0
 10
-30.5971
 20
-12.362
 11
-31.0099
 21
-11.2867
  0
LINE
  8
0
 10
-31.0099
 20
-11.2867
 11
-31.3849
 21
-10.1976
  0
LINE
  8
0
 10
-31.3849
 20
-10.1976
 11
-31.7216
 21
-9.09603
  0
LINE
  8
0
 10
-31.7216
 20
-9.09603
 11
-32.0198
 21
-7.98342
  0
LINE
  8
0
 10
-32.0198
 20
-7.98342
 11
-32.2789
 21
-6.86108
  0
LINE
  8
0
 10
-32.2789
 20
-6.86108
 11
-32.4987
 21
-5.73039
  0
LINE
  8
0
 10
-32.4987
 20
-5.73039
 11
-32.6788
 21
-4.59271
  0
LINE
  8
0
 10
-32.6788
 20
-4.59271
 11
-32.8192
 21
-3.44944
  0
LINE
  8
0
 10
-32.8192
 20
-3.44944
 11
-32.9196
 21
-2.30196
  0
LINE
  8
0
 10
-32.9196
 20
-2.30196
 11
-32.9799
 21
-1.15168
  0
LINE
  8
0
 10
-32.9799
 20
-1.15168
 11
-33
 21
0
  0
LINE
  8
0
 10
-22.5
 20
125
 11
-22.4452
 21
126.57
  0
LINE
  8
0
 10
-22.4452
 20
126.57
 11
-22.281
 21
128.131
  0
LINE
  8
0
 10
-22.281
 20
128.131
 11
-22.0083
 21
129.678
  0
LINE
  8
0
 10
-22.0083
 20
129.678
 11
-21.6284
 21
131.202
  0
LINE
  8
0
 10
-21.6284
 20
131.202
 11
-21.1431
 21
132.695
  0
LINE
  8
0
 10
-21.1431
 20
132.695
 11
-20.5548
 21
134.152
  0
LINE
  8
0
 10
-20.5548
 20
134.152
 11
-19.8663
 21
135.563
  0
LINE
  8
0
 10
-19.8663
 20
135.563
 11
-19.0811
 21
136.923
  0
LINE
  8
0
 10
-19.0811
 20
136.923
 11
-18.2029
 21
138.225
  0
LINE
  8
0
 10
-18.2029
 20
138.225
 11
-17.236
 21
139.463
  0
LINE
  8
0
 10
-17.236
 20
139.463
 11
-16.1851
 21
140.63
  0
LINE
  8
0
 10
-16.1851
 20
140.63
 11
-15.0554
 21
141.721
  0
LINE
  8
0
 10
-15.0554
 20
141.721
 11
-13.8524
 21
142.73
  0
LINE
  8
0
 10
-13.8524
 20
142.73
 11
-12.5818
 21
143.653
  0
LINE
  8
0
 10
-12.5818
 20
143.653
 11
-11.25
 21
144.486
  0
LINE
  8
0
 10
-11.25
 20
144.486
 11
-9.86335
 21
145.223
  0
LINE
  8
0
 10
-9.86335
 20
145.223
 11
-8.42865
 21
145.862
  0
LINE
  8
0
 10
-8.42865
 20
145.862
 11
-6.95288
 21
146.399
  0
LINE
  8
0
 10
-6.95288
 20
146.399
 11
-5.44324
 21
146.832
  0
LINE
  8
0
 10
-5.44324
 20
146.832
 11
-3.90708
 21
147.158
  0
LINE
  8
0
 10
-3.90708
 20
147.158
 11
-2.35189
 21
147.377
  0
LINE
  8
0
 10
-2.35189
 20
147.377
 11
-0.785238
 21
147.486
  0
LINE
  8
0
 10
-0.785238
 20
147.486
 11
0.785238
 21
147.486
  0
LINE
  8
0
 10
0.785238
 20
147.486
 11
2.35189
 21
147.377
  0
LINE
  8
0
 10
2.35189
 20
147.377
 11
3.90708
 21
147.158
  0
LINE
  8
0
 10
3.90708
 20
147.158
 11
5.44324
 21
146.832
  0
LINE
  8
0
 10
5.44324
 20
146.832
 11
6.95288
 21
146.399
  0
LINE
  8
0
 10
6.95288
 20
146.399
 11
8.42865
 21
145.862
  0
LINE
  8
0
 10
8.42865
 20
145.862
 11
9.86335
 21
145.223
  0
LINE
  8
0
 10
9.86335
 20
145.223
 11
11.25
 21
144.486
  0
LINE
  8
0
 10
11.25
 20
144.486
 11
12.5818
 21
143.653
  0
LINE
  8
0
 10
12.5818
 20
143.653
 11
13.8524
 21
142.73
  0
LINE
  8
0
 10
13.8524
 20
142.73
 11
15.0554
 21
141.721
  0
LINE
  8
0
 10
15.0554
 20
141.721
 11
16.1851
 21
140.63
  0
LINE
  8
0
 10
16.1851
 20
140.63
 11
17.236
 21
139.463
  0
LINE
  8
0
 10
17.236
 20
139.463
 11
18.2029
 21
138.225
  0
LINE
  8
0
 10
18.2029
 20
138.225
 11
19.0811
 21
136.923
  0
LINE
  8
0
 10
19.0811
 20
136.923
 11
19.8663
 21
135.563
  0
LINE
  8
0
 10
19.8663
 20
135.563
 11
20.5548
 21
134.152
  0
LINE
  8
0
 10
20.5548
 20
134.152
 11
21.1431
 21
132.695
  0
LINE
  8
0
 10
21.1431
 20
132.695
 11
21.6284
 21
131.202
  0
LINE
  8
0
 10
21.6284
 20
131.202
 11
22.0083
 21
129.678
  0
LINE
  8
0
 10
22.0083
 20
129.678
 11
22.281
 21
128.131
  0
LINE
  8
0
 10
22.281
 20
128.131
 11
22.4452
 21
126.57
  0
LINE
  8
0
 10
22.4452
 20
126.57
 11
22.5
 21
125
  0
LINE
  8
0
 10
22.5
 20
125
 11
22.4452
 21
123.43
  0
LINE
  8
0
 10
22.4452
 20
123.43
 11
22.281
 21
121.869
  0
LINE
  8
0
 10
22.281
 20
121.869
 11
22.0083
 21
120.322
  0
LINE
  8
0
 10
22.0083
 20
120.322
 11
21.6284
 21
118.798
  0
LINE
  8
0
 10
21.6284
 20
118.798
 11
21.1431
 21
117.305
  0
LINE
  8
0
 10
21.1431
 20
117.305
 11
20.5548
 21
115.848
  0
LINE
  8
0
 10
20.5548
 20
115.848
 11
19.8663
 21
114.437
  0
LINE
  8
0
 10
19.8663
 20
114.437
 11
19.0811
 21
113.077
  0
LINE
  8
0
 10
19.0811
 20
113.077
 11
18.2029
 21
111.775
  0
LINE
  8
0
 10
18.2029
 20
111.775
 11
17.236
 21
110.537
  0
LINE
  8
0
 10
17.236
 20
110.537
 11
16.1851
 21
109.37
  0
LINE
  8
0
 10
16.1851
 20
109.37
 11
15.0554
 21
108.279
  0
LINE
  8
0
 10
15.0554
 20
108.279
 11
13.8524
 21
107.27
  0
LINE
  8
0
 10
13.8524
 20
107.27
 11
12.5818
 21
106.347
  0
LINE
  8
0
 10
12.5818
 20
106.347
 11
11.25
 21
105.514
  0
LINE
  8
0
 10
11.25
 20
105.514
 11
9.86335
 21
104.777
  0
LINE
  8
0
 10
9.86335
 20
104.777
 11
8.42865
 21
104.138
  0
LINE
  8
0
 10
8.42865
 20
104.138
 11
6.95288
 21
103.601
  0
LINE
  8
0
 10
6.95288
 20
103.601
 11
5.44324
 21
103.168
  0
LINE
  8
0
 10
5.44324
 20
103.168
 11
4
 21
102.862
  0
LINE
  8
0
 10
4
 20
102.862
 11
4
 21
73
  0
LINE
  8
0
 10
4
 20
73
 11
-4
 21
73
  0
LINE
  8
0
 10
-4
 20
73
 11
-4
 21
102.862
  0
LINE
  8
0
 10
-4
 20
102.862
 11
-5.44324
 21
103.168
  0
LINE
  8
0
 10
-5.44324
 20
103.168
 11
-6.95288
 21
103.601
  0
LINE
  8
0
 10
-6.95288
 20
103.601
 11
-8.42865
 21
104.138
  0
LINE
  8
0
 10
-8.42865
 20
104.138
 11
-9.86335
 21
104.777
  0
LINE
  8
0
 10
-9.86335
 20
104.777
 11
-11.25
 21
105.514
  0
LINE
  8
0
 10
-11.25
 20
105.514
 11
-12.5818
 21
106.347
  0
LINE
  8
0
 10
-12.5818
 20
106.347
 11
-13.8524
 21
107.27
  0
LINE
  8
0
 10
-13.8524
 20
107.27
 11
-15.0554
 21
108.279
  0
LINE
  8
0
 10
-15.0554
 20
108.279
 11
-16.1851
 21
109.37
  0
LINE
  8
0
 10
-16.1851
 20
109.37
 11
-17.236
 21
110.537
  0
LINE
  8
0
 10
-17.236
 20
110.537
 11
-18.2029
 21
111.775
  0
LINE
  8
0
 10
-18.2029
 20
111.775
 11
-19.0811
 21
113.077
  0
LINE
  8
0
 10
-19.0811
 20
113.077
 11
-19.8663
 21
114.437
  0
LINE
  8
0
 10
-19.8663
 20
114.437
 11
-20.5548
 21
115.848
  0
LINE
  8
0
 10
-20.5548
 20
115.848
 11
-21.1431
 21
117.305
  0
LINE
  8
0
 10
-21.1431
 20
117.305
 11
-21.6284
 21
118.798
  0
LINE
  8
0
 10
-21.6284
 20
118.798
 11
-22.0083
 21
120.322
  0
LINE
  8
0
 10
-22.0083
 20
120.322
 11
-22.281
 21
121.869
  0
LINE
  8
0
 10
-22.281
 20
121.869
 11
-22.4452
 21
123.43
  0
LINE
  8
0
 10
-22.4452
 20
123.43
 11
-22.5
 21
125
  0
LINE
  8
0
 10
-29
 20
0
 11
-28.9823
 21
-1.01208
  0
LINE
  8
0
 10
-28.9823
 20
-1.01208
 11
-28.9294
 21
-2.02294
  0
LINE
  8
0
 10
-28.9294
 20
-2.02294
 11
-28.8411
 21
-3.03133
  0
LINE
  8
0
 10
-28.8411
 20
-3.03133
 11
-28.7178
 21
-4.03602
  0
LINE
  8
0
 10
-28.7178
 20
-4.03602
 11
-28.5594
 21
-5.0358
  0
LINE
  8
0
 10
-28.5594
 20
-5.0358
 11
-28.3663
 21
-6.02944
  0
LINE
  8
0
 10
-28.3663
 20
-6.02944
 11
-28.1386
 21
-7.01573
  0
LINE
  8
0
 10
-28.1386
 20
-7.01573
 11
-27.8766
 21
-7.99348
  0
LINE
  8
0
 10
-27.8766
 20
-7.99348
 11
-27.5806
 21
-8.96149
  0
LINE
  8
0
 10
-27.5806
 20
-8.96149
 11
-27.2511
 21
-9.91858
  0
LINE
  8
0
 10
-27.2511
 20
-9.91858
 11
-26.8883
 21
-10.8636
  0
LINE
  8
0
 10
-26.8883
 20
-10.8636
 11
-26.4928
 21
-11.7954
  0
LINE
  8
0
 10
-26.4928
 20
-11.7954
 11
-26.065
 21
-12.7128
  0
LINE
  8
0
 10
-26.065
 20
-12.7128
 11
-25.6055
 21
-13.6147
  0
LINE
  8
0
 10
-25.6055
 20
-13.6147
 11
-25.1147
 21
-14.5
  0
LINE
  8
0
 10
-25.1147
 20
-14.5
 11
-24.5934
 21
-15.3677
  0
LINE
  8
0
 10
-24.5934
 20
-15.3677
 11
-24.0421
 21
-16.2166
  0
LINE
  8
0
 10
-24.0421
 20
-16.2166
 11
-23.4615
 21
-17.0458
  0
LINE
  8
0
 10
-23.4615
 20
-17.0458
 11
-22.8523
 21
-17.8542
  0
LINE
  8
0
 10
-22.8523
 20
-17.8542
 11
-22.2153
 21
-18.6408
  0
LINE
  8
0
 10
-22.2153
 20
-18.6408
 11
-21.5512
 21
-19.4048
  0
LINE
  8
0
 10
-21.5512
 20
-19.4048
 11
-20.8609
 21
-20.1451
  0
LINE
  8
0
 10
-20.8609
 20
-20.1451
 11
-20.1451
 21
-20.8609
  0
LINE
  8
0
 10
-20.1451
 20
-20.8609
 11
-19.4048
 21
-21.5512
  0
LINE
  8
0
 10
-19.4048
 20
-21.5512
 11
-18.6408
 21
-22.2153
  0
LINE
  8
0
 10
-18.6408
 20
-22.2153
 11
-17.8542
 21
-22.8523
  0
LINE
  8
0
 10
-17.8542
 20
-22.8523
 11
-17.0458
 21
-23.4615
  0
LINE
  8
0
 10
-17.0458
 20
-23.4615
 11
-16.2166
 21
-24.0421
  0
LINE
  8
0
 10
-16.2166
 20
-24.0421
 11
-15.3677
 21
-24.5934
  0
LINE
  8
0
 10
-15.3677
 20
-24.5934
 11
-14.5
 21
-25.1147
  0
LINE
  8
0
 10
-14.5
 20
-25.1147
 11
-13.6147
 21
-25.6055
  0
LINE
  8
0
 10
-13.6147
 20
-25.6055
 11
-12.7128
 21
-26.065
  0
LINE
  8
0
 10
-12.7128
 20
-26.065
 11
-11.7954
 21
-26.4928
  0
LINE
  8
0
 10
-11.7954
 20
-26.4928
 11
-10.8636
 21
-26.8883
  0
LINE
  8
0
 10
-10.8636
 20
-26.8883
 11
-9.91858
 21
-27.2511
  0
LINE
  8
0
 10
-9.91858
 20
-27.2511
 11
-8.96149
 21
-27.5806
  0
LINE
  8
0
 10
-8.96149
 20
-27.5806
 11
-7.99348
 21
-27.8766
  0
LINE
  8
0
 10
-7.99348
 20
-27.8766
 11
-7.01573
 21
-28.1386
  0
LINE
  8
0
 10
-7.01573
 20
-28.1386
 11
-6.02944
 21
-28.3663
  0
LINE
  8
0
 10
-6.02944
 20
-28.3663
 11
-5.0358
 21
-28.5594
  0
LINE
  8
0
 10
-5.0358
 20
-28.5594
 11
-4.03602
 21
-28.7178
  0
LINE
  8
0
 10
-4.03602
 20
-28.7178
 11
-3.03133
 21
-28.8411
  0
LINE
  8
0
 10
-3.03133
 20
-28.8411
 11
-2.02294
 21
-28.9294
  0
LINE
  8
0
 10
-2.02294
 20
-28.9294
 11
-1.01208
 21
-28.9823
  0
LINE
  8
0
 10
-1.01208
 20
-28.9823
 11
0
 21
-29
  0
LINE
  8
0
 10
0
 20
-29
 11
1.01208
 21
-28.9823
  0
LINE
  8
0
 10
1.01208
 20
-28.9823
 11
2.02294
 21
-28.9294
  0
LINE
  8
0
 10
2.02294
 20
-28.9294
 11
3.03133
 21
-28.8411
  0
LINE
  8
0
 10
3.03133
 20
-28.8411
 11
4.03602
 21
-28.7178
  0
LINE
  8
0
 10
4.03602
 20
-28.7178
 11
5.0358
 21
-28.5594
  0
LINE
  8
0
 10
5.0358
 20
-28.5594
 11
6.02944
 21
-28.3663
  0
LINE
  8
0
 10
6.02944
 20
-28.3663
 11
7.01573
 21
-28.1386
  0
LINE
  8
0
 10
7.01573
 20
-28.1386
 11
7.99348
 21
-27.8766
  0
LINE
  8
0
 10
7.99348
 20
-27.8766
 11
8.96149
 21
-27.5806
  0
LINE
  8
0
 10
8.96149
 20
-27.5806
 11
9.91858
 21
-27.2511
  0
LINE
  8
0
 10
9.91858
 20
-27.2511
 11
10.8636
 21
-26.8883
  0
LINE
  8
0
 10
10.8636
 20
-26.8883
 11
11.7954
 21
-26.4928
  0
LINE
  8
0
 10
11.7954
 20
-26.4928
 11
12.7128
 21
-26.065
  0
LINE
  8
0
 10
12.7128
 20
-26.065
 11
13.6147
 21
-25.6055
  0
LINE
  8
0
 10
13.6147
 20
-25.6055
 11
14.5
 21
-25.1147
  0
LINE
  8
0
 10
14.5
 20
-25.1147
 11
15.3677
 21
-24.5934
  0
LINE
  8
0
 10
15.3677
 20
-24.5934
 11
16.2166
 21
-24.0421
  0
LINE
  8
0
 10
16.2166
 20
-24.0421
 11
17.0458
 21
-23.4615
  0
LINE
  8
0
 10
17.0458
 20
-23.4615
 11
17.8542
 21
-22.8523
  0
LINE
  8
0
 10
17.8542
 20
-22.8523
 11
18.6408
 21
-22.2153
  0
LINE
  8
0
 10
18.6408
 20
-22.2153
 11
19.4048
 21
-21.5512
  0
LINE
  8
0
 10
19.4048
 20
-21.5512
 11
20.1451
 21
-20.8609
  0
LINE
  8
0
 10
20.1451
 20
-20.8609
 11
20.8609
 21
-20.1451
  0
LINE
  8
0
 10
20.8609
 20
-20.1451
 11
21.5512
 21
-19.4048
  0
LINE
  8
0
 10
21.5512
 20
-19.4048
 11
22.2153
 21
-18.6408
  0
LINE
  8
0
 10
22.2153
 20
-18.6408
 11
22.8523
 21
-17.8542
  0
LINE
  8
0
 10
22.8523
 20
-17.8542
 11
23.4615
 21
-17.0458
  0
LINE
  8
0
 10
23.4615
 20
-17.0458
 11
24.0421
 21
-16.2166
  0
LINE
  8
0
 10
24.0421
 20
-16.2166
 11
24.5934
 21
-15.3677
  0
LINE
  8
0
 10
24.5934
 20
-15.3677
 11
25.1147
 21
-14.5
  0
LINE
  8
0
 10
25.1147
 20
-14.5
 11
25.6055
 21
-13.6147
  0
LINE
  8
0
 10
25.6055
 20
-13.6147
 11
26.065
 21
-12.7128
  0
LINE
  8
0
 10
26.065
 20
-12.7128
 11
26.4928
 21
-11.7954
  0
LINE
  8
0
 10
26.4928
 20
-11.7954
 11
26.8883
 21
-10.8636
  0
LINE
  8
0
 10
26.8883
 20
-10.8636
 11
27.2511
 21
-9.91858
  0
LINE
  8
0
 10
27.2511
 20
-9.91858
 11
27.5806
 21
-8.96149
  0
LINE
  8
0
 10
27.5806
 20
-8.96149
 11
27.8766
 21
-7.99348
  0
LINE
  8
0
 10
27.8766
 20
-7.99348
 11
28.1386
 21
-7.01573
  0
LINE
  8
0
 10
28.1386
 20
-7.01573
 11
28.3663
 21
-6.02944
  0
LINE
  8
0
 10
28.3663
 20
-6.02944
 11
28.5594
 21
-5.0358
  0
LINE
  8
0
 10
28.5594
 20
-5.0358
 11
28.7178
 21
-4.03602
  0
LINE
  8
0
 10
28.7178
 20
-4.03602
 11
28.8411
 21
-3.03133
  0
LINE
  8
0
 10
28.8411
 20
-3.03133
 11
28.9294
 21
-2.02294
  0
LINE
  8
0
 10
28.9294
 20
-2.02294
 11
28.9823
 21
-1.01208
  0
LINE
  8
0
 10
28.9823
 20
-1.01208
 11
29
 21
0
  0
LINE
  8
0
 10
29
 20
0
 11
28.9823
 21
1.01208
  0
LINE
  8
0
 10
28.9823
 20
1.01208
 11
28.9294
 21
2.02294
  0
LINE
  8
0
 10
28.9294
 20
2.02294
 11
28.8411
 21
3.03133
  0
LINE
  8
0
 10
28.8411
 20
3.03133
 11
28.7178
 21
4.03602
  0
LINE
  8
0
 10
28.7178
 20
4.03602
 11
28.5594
 21
5.0358
  0
LINE
  8
0
 10
28.5594
 20
5.0358
 11
28.3663
 21
6.02944
  0
LINE
  8
0
 10
28.3663
 20
6.02944
 11
28.1386
 21
7.01573
  0
LINE
  8
0
 10
28.1386
 20
7.01573
 11
27.8766
 21
7.99348
  0
LINE
  8
0
 10
27.8766
 20
7.99348
 11
27.5806
 21
8.96149
  0
LINE
  8
0
 10
27.5806
 20
8.96149
 11
27.2511
 21
9.91858
  0
LINE
  8
0
 10
27.2511
 20
9.91858
 11
26.8883
 21
10.8636
  0
LINE
  8
0
 10
26.8883
 20
10.8636
 11
26.4928
 21
11.7954
  0
LINE
  8
0
 10
26.4928
 20
11.7954
 11
26.065
 21
12.7128
  0
LINE
  8
0
 10
26.065
 20
12.7128
 11
25.6055
 21
13.6147
  0
LINE
  8
0
 10
25.6055
 20
13.6147
 11
25.1147
 21
14.5
  0
LINE
  8
0
 10
25.1147
 20
14.5
 11
24.5934
 21
15.3677
  0
LINE
  8
0
 10
24.5934
 20
15.3677
 11
24.0421
 21
16.2166
  0
LINE
  8
0
 10
24.0421
 20
16.2166
 11
23.4615
 21
17.0458
  0
LINE
  8
0
 10
23.4615
 20
17.0458
 11
22.8523
 21
17.8542
  0
LINE
  8
0
 10
22.8523
 20
17.8542
 11
22.2153
 21
18.6408
  0
LINE
  8
0
 10
22.2153
 20
18.6408
 11
21.5512
 21
19.4048
  0
LINE
  8
0
 10
21.5512
 20
19.4048
 11
20.8609
 21
20.1451
  0
LINE
  8
0
 10
20.8609
 20
20.1451
 11
20.1451
 21
20.8609
  0
LINE
  8
0
 10
20.1451
 20
20.8609
 11
19.4048
 21
21.5512
  0
LINE
  8
0
 10
19.4048
 20
21.5512
 11
18.6408
 21
22.2153
  0
LINE
  8
0
 10
18.6408
 20
22.2153
 11
17.8542
 21
22.8523
  0
LINE
  8
0
 10
17.8542
 20
22.8523
 11
17.0458
 21
23.4615
  0
LINE
  8
0
 10
17.0458
 20
23.4615
 11
16.2166
 21
24.0421
  0
LINE
  8
0
 10
16.2166
 20
24.0421
 11
15.3677
 21
24.5934
  0
LINE
  8
0
 10
15.3677
 20
24.5934
 11
14.5
 21
25.1147
  0
LINE
  8
0
 10
14.5
 20
25.1147
 11
13.6147
 21
25.6055
  0
LINE
  8
0
 10
13.6147
 20
25.6055
 11
12.7128
 21
26.065
  0
LINE
  8
0
 10
12.7128
 20
26.065
 11
11.7954
 21
26.4928
  0
LINE
  8
0
 10
11.7954
 20
26.4928
 11
10.8636
 21
26.8883
  0
LINE
  8
0
 10
10.8636
 20
26.8883
 11
9.91858
 21
27.2511
  0
LINE
  8
0
 10
9.91858
 20
27.2511
 11
8.96149
 21
27.5806
  0
LINE
  8
0
 10
8.96149
 20
27.5806
 11
7.99348
 21
27.8766
  0
LINE
  8
0
 10
7.99348
 20
27.8766
 11
7.01573
 21
28.1386
  0
LINE
  8
0
 10
7.01573
 20
28.1386
 11
6.02944
 21
28.3663
  0
LINE
  8
0
 10
6.02944
 20
28.3663
 11
5.0358
 21
28.5594
  0
LINE
  8
0
 10
5.0358
 20
28.5594
 11
4.03602
 21
28.7178
  0
LINE
  8
0
 10
4.03602
 20
28.7178
 11
3.03133
 21
28.8411
  0
LINE
  8
0
 10
3.03133
 20
28.8411
 11
2.02294
 21
28.9294
  0
LINE
  8
0
 10
2.02294
 20
28.9294
 11
1.01208
 21
28.9823
  0
LINE
  8
0
 10
1.01208
 20
28.9823
 11
0
 21
29
  0
LINE
  8
0
 10
0
 20
29
 11
-1.01208
 21
28.9823
  0
LINE
  8
0
 10
-1.01208
 20
28.9823
 11
-2.02294
 21
28.9294
  0
LINE
  8
0
 10
-2.02294
 20
28.9294
 11
-3.03133
 21
28.8411
  0
LINE
  8
0
 10
-3.03133
 20
28.8411
 11
-4.03602
 21
28.7178
  0
LINE
  8
0
 10
-4.03602
 20
28.7178
 11
-5.0358
 21
28.5594
  0
LINE
  8
0
 10
-5.0358
 20
28.5594
 11
-6.02944
 21
28.3663
  0
LINE
  8
0
 10
-6.02944
 20
28.3663
 11
-7.01573
 21
28.1386
  0
LINE
  8
0
 10
-7.01573
 20
28.1386
 11
-7.99348
 21
27.8766
  0
LINE
  8
0
 10
-7.99348
 20
27.8766
 11
-8.96149
 21
27.5806
  0
LINE
  8
0
 10
-8.96149
 20
27.5806
 11
-9.91858
 21
27.2511
  0
LINE
  8
0
 10
-9.91858
 20
27.2511
 11
-10.8636
 21
26.8883
  0
LINE
  8
0
 10
-10.8636
 20
26.8883
 11
-11.7954
 21
26.4928
  0
LINE
  8
0
 10
-11.7954
 20
26.4928
 11
-12.7128
 21
26.065
  0
LINE
  8
0
 10
-12.7128
 20
26.065
 11
-13.6147
 21
25.6055
  0
LINE
  8
0
 10
-13.6147
 20
25.6055
 11
-14.5
 21
25.1147
  0
LINE
  8
0
 10
-14.5
 20
25.1147
 11
-15.3677
 21
24.5934
  0
LINE
  8
0
 10
-15.3677
 20
24.5934
 11
-16.2166
 21
24.0421
  0
LINE
  8
0
 10
-16.2166
 20
24.0421
 11
-17.0458
 21
23.4615
  0
LINE
  8
0
 10
-17.0458
 20
23.4615
 11
-17.8542
 21
22.8523
  0
LINE
  8
0
 10
-17.8542
 20
22.8523
 11
-18.6408
 21
22.2153
  0
LINE
  8
0
 10
-18.6408
 20
22.2153
 11
-19.4048
 21
21.5512
  0
LINE
  8
0
 10
-19.4048
 20
21.5512
 11
-20.1451
 21
20.8609
  0
LINE
  8
0
 10
-20.1451
 20
20.8609
 11
-20.8609
 21
20.1451
  0
LINE
  8
0
 10
-20.8609
 20
20.1451
 11
-21.5512
 21
19.4048
  0
LINE
  8
0
 10
-21.5512
 20
19.4048
 11
-22.2153
 21
18.6408
  0
LINE
  8
0
 10
-22.2153
 20
18.6408
 11
-22.8523
 21
17.8542
  0
LINE
  8
0
 10
-22.8523
 20
17.8542
 11
-23.4615
 21
17.0458
  0
LINE
  8
0
 10
-23.4615
 20
17.0458
 11
-24.0421
 21
16.2166
  0
LINE
  8
0
 10
-24.0421
 20
16.2166
 11
-24.5934
 21
15.3677
  0
LINE
  8
0
 10
-24.5934
 20
15.3677
 11
-25.1147
 21
14.5
  0
LINE
  8
0
 10
-25.1147
 20
14.5
 11
-25.6055
 21
13.6147
  0
LINE
  8
0
 10
-25.6055
 20
13.6147
 11
-26.065
 21
12.7128
  0
LINE
  8
0
 10
-26.065
 20
12.7128
 11
-26.4928
 21
11.7954
  0
LINE
  8
0
 10
-26.4928
 20
11.7954
 11
-26.8883
 21
10.8636
  0
LINE
  8
0
 10
-26.8883
 20
10.8636
 11
-27.2511
 21
9.91858
  0
LINE
  8
0
 10
-27.2511
 20
9.91858
 11
-27.5806
 21
8.96149
  0
LINE
  8
0
 10
-27.5806
 20
8.96149
 11
-27.8766
 21
7.99348
  0
LINE
  8
0
 10
-27.8766
 20
7.99348
 11
-28.1386
 21
7.01573
  0
LINE
  8
0
 10
-28.1386
 20
7.01573
 11
-28.3663
 21
6.02944
  0
LINE
  8
0
 10
-28.3663
 20
6.02944
 11
-28.5594
 21
5.0358
  0
LINE
  8
0
 10
-28.5594
 20
5.0358
 11
-28.7178
 21
4.03602
  0
LINE
  8
0
 10
-28.7178
 20
4.03602
 11
-28.8411
 21
3.03133
  0
LINE
  8
0
 10
-28.8411
 20
3.03133
 11
-28.9294
 21
2.02294
  0
LINE
  8
0
 10
-28.9294
 20
2.02294
 11
-28.9823
 21
1.01208
  0
LINE
  8
0
 10
-28.9823
 20
1.01208
 11
-29
 21
0
  0
LINE
  8
0
 10
-22.5
 20
0
 11
-22.4452
 21
1.56952
  0
LINE
  8
0
 10
-22.4452
 20
1.56952
 11
-22.281
 21
3.13139
  0
LINE
  8
0
 10
-22.281
 20
3.13139
 11
-22.0083
 21
4.67801
  0
LINE
  8
0
 10
-22.0083
 20
4.67801
 11
-21.6284
 21
6.20184
  0
LINE
  8
0
 10
-21.6284
 20
6.20184
 11
-21.1431
 21
7.69545
  0
LINE
  8
0
 10
-21.1431
 20
7.69545
 11
-20.5548
 21
9.15157
  0
LINE
  8
0
 10
-20.5548
 20
9.15157
 11
-19.8663
 21
10.5631
  0
LINE
  8
0
 10
-19.8663
 20
10.5631
 11
-19.0811
 21
11.9232
  0
LINE
  8
0
 10
-19.0811
 20
11.9232
 11
-18.2029
 21
13.2252
  0
LINE
  8
0
 10
-18.2029
 20
13.2252
 11
-17.236
 21
14.4627
  0
LINE
  8
0
 10
-17.236
 20
14.4627
 11
-16.1851
 21
15.6298
  0
LINE
  8
0
 10
-16.1851
 20
15.6298
 11
-15.0554
 21
16.7208
  0
LINE
  8
0
 10
-15.0554
 20
16.7208
 11
-13.8524
 21
17.7302
  0
LINE
  8
0
 10
-13.8524
 20
17.7302
 11
-12.5818
 21
18.6533
  0
LINE
  8
0
 10
-12.5818
 20
18.6533
 11
-11.25
 21
19.4856
  0
LINE
  8
0
 10
-11.25
 20
19.4856
 11
-9.86335
 21
20.2229
  0
LINE
  8
0
 10
-9.86335
 20
20.2229
 11
-8.42865
 21
20.8616
  0
LINE
  8
0
 10
-8.42865
 20
20.8616
 11
-6.95288
 21
21.3988
  0
LINE
  8
0
 10
-6.95288
 20
21.3988
 11
-5.44324
 21
21.8317
  0
LINE
  8
0
 10
-5.44324
 20
21.8317
 11
-3.90708
 21
22.1582
  0
LINE
  8
0
 10
-3.90708
 20
22.1582
 11
-2.35189
 21
22.3767
  0
LINE
  8
0
 10
-2.35189
 20
22.3767
 11
-0.785238
 21
22.4863
  0
LINE
  8
0
 10
-0.785238
 20
22.4863
 11
0.785238
 21
22.4863
  0
LINE
  8
0
 10
0.785238
 20
22.4863
 11
2.35189
 21
22.3767
  0
LINE
  8
0
 10
2.35189
 20
22.3767
 11
3.90708
 21
22.1582
  0
LINE
  8
0
 10
3.90708
 20
22.1582
 11
5.44324
 21
21.8317
  0
LINE
  8
0
 10
5.44324
 20
21.8317
 11
6.95288
 21
21.3988
  0
LINE
  8
0
 10
6.95288
 20
21.3988
 11
8.42865
 21
20.8616
  0
LINE
  8
0
 10
8.42865
 20
20.8616
 11
9.86335
 21
20.2229
  0
LINE
  8
0
 10
9.86335
 20
20.2229
 11
11.25
 21
19.4856
  0
LINE
  8
0
 10
11.25
 20
19.4856
 11
12.5818
 21
18.6533
  0
LINE
  8
0
 10
12.5818
 20
18.6533
 11
13.8524
 21
17.7302
  0
LINE
  8
0
 10
13.8524
 20
17.7302
 11
15.0554
 21
16.7208
  0
LINE
  8
0
 10
15.0554
 20
16.7208
 11
16.1851
 21
15.6298
  0
LINE
  8
0
 10
16.1851
 20
15.6298
 11
17.236
 21
14.4627
  0
LINE
  8
0
 10
17.236
 20
14.4627
 11
18.2029
 21
13.2252
  0
LINE
  8
0
 10
18.2029
 20
13.2252
 11
19.0811
 21
11.9232
  0
LINE
  8
0
 10
19.0811
 20
11.9232
 11
19.8663
 21
10.5631
  0
LINE
  8
0
 10
19.8663
 20
10.5631
 11
20.5548
 21
9.15157
  0
LINE
  8
0
 10
20.5548
 20
9.15157
 11
21.1431
 21
7.69545
  0
LINE
  8
0
 10
21.1431
 20
7.69545
 11
21.6284
 21
6.20184
  0
LINE
  8
0
 10
21.6284
 20
6.20184
 11
22.0083
 21
4.67801
  0
LINE
  8
0
 10
22.0083
 20
4.67801
 11
22.281
 21
3.13139
  0
LINE
  8
0
 10
22.281
 20
3.13139
 11
22.4452
 21
1.56952
  0
LINE
  8
0
 10
22.4452
 20
1.56952
 11
22.5
 21
0
  0
LINE
  8
0
 10
22.5
 20
0
 11
22.4452
 21
-1.56952
  0
LINE
  8
0
 10
22.4452
 20
-1.56952
 11
22.281
 21
-3.13139
  0
LINE
  8
0
 10
22.281
 20
-3.13139
 11
22.0083
 21
-4.67801
  0
LINE
  8
0
 10
22.0083
 20
-4.67801
 11
21.6284
 21
-6.20184
  0
LINE
  8
0
 10
21.6284
 20
-6.20184
 11
21.1431
 21
-7.69545
  0
LINE
  8
0
 10
21.1431
 20
-7.69545
 11
20.5548
 21
-9.15157
  0
LINE
  8
0
 10
20.5548
 20
-9.15157
 11
19.8663
 21
-10.5631
  0
LINE
  8
0
 10
19.8663
 20
-10.5631
 11
19.0811
 21
-11.9232
  0
LINE
  8
0
 10
19.0811
 20
-11.9232
 11
18.2029
 21
-13.2252
  0
LINE
  8
0
 10
18.2029
 20
-13.2252
 11
17.236
 21
-14.4627
  0
LINE
  8
0
 10
17.236
 20
-14.4627
 11
16.1851
 21
-15.6298
  0
LINE
  8
0
 10
16.1851
 20
-15.6298
 11
15.0554
 21
-16.7208
  0
LINE
  8
0
 10
15.0554
 20
-16.7208
 11
13.8524
 21
-17.7302
  0
LINE
  8
0
 10
13.8524
 20
-17.7302
 11
12.5818
 21
-18.6533
  0
LINE
  8
0
 10
12.5818
 20
-18.6533
 11
11.25
 21
-19.4856
  0
LINE
  8
0
 10
11.25
 20
-19.4856
 11
9.86335
 21
-20.2229
  0
LINE
  8
0
 10
9.86335
 20
-20.2229
 11
8.42865
 21
-20.8616
  0
LINE
  8
0
 10
8.42865
 20
-20.8616
 11
6.95288
 21
-21.3988
  0
LINE
  8
0
 10
6.95288
 20
-21.3988
 11
5.44324
 21
-21.8317
  0
LINE
  8
0
 10
5.44324
 20
-21.8317
 11
3.90708
 21
-22.1582
  0
LINE
  8
0
 10
3.90708
 20
-22.1582
 11
2.35189
 21
-22.3767
  0
LINE
  8
0
 10
2.35189
 20
-22.3767
 11
0.785238
 21
-22.4863
  0
LINE
  8
0
 10
0.785238
 20
-22.4863
 11
-0.785238
 21
-22.4863
  0
LINE
  8
0
 10
-0.785238
 20
-22.4863
 11
-2.35189
 21
-22.3767
  0
LINE
  8
0
 10
-2.35189
 20
-22.3767
 11
-3.90708
 21
-22.1582
  0
LINE
  8
0
 10
-3.90708
 20
-22.1582
 11
-5.44324
 21
-21.8317
  0
LINE
  8
0
 10
-5.44324
 20
-21.8317
 11
-6.95288
 21
-21.3988
  0
LINE
  8
0
 10
-6.95288
 20
-21.3988
 11
-8.42865
 21
-20.8616
  0
LINE
  8
0
 10
-8.42865
 20
-20.8616
 11
-9.86335
 21
-20.2229
  0
LINE
  8
0
 10
-9.86335
 20
-20.2229
 11
-11.25
 21
-19.4856
  0
LINE
  8
0
 10
-11.25
 20
-19.4856
 11
-12.5818
 21
-18.6533
  0
LINE
  8
0
 10
-12.5818
 20
-18.6533
 11
-13.8524
 21
-17.7302
  0
LINE
  8
0
 10
-13.8524
 20
-17.7302
 11
-15.0554
 21
-16.7208
  0
LINE
  8
0
 10
-15.0554
 20
-16.7208
 11
-16.1851
 21
-15.6298
  0
LINE
  8
0
 10
-16.1851
 20
-15.6298
 11
-17.236
 21
-14.4627
  0
LINE
  8
0
 10
-17.236
 20
-14.4627
 11
-18.2029
 21
-13.2252
  0
LINE
  8
0
 10
-18.2029
 20
-13.2252
 11
-19.0811
 21
-11.9232
  0
LINE
  8
0
 10
-19.0811
 20
-11.9232
 11
-19.8663
 21
-10.5631
  0
LINE
  8
0
 10
-19.8663
 20
-10.5631
 11
-20.5548
 21
-9.15157
  0
LINE
  8
0
 10
-20.5548
 20
-9.15157
 11
-21.1431
 21
-7.69545
  0
LINE
  8
0
 10
-21.1431
 20
-7.69545
 11
-21.6284
 21
-6.20184
  0
LINE
  8
0
 10
-21.6284
 20
-6.20184
 11
-22.0083
 21
-4.67801
  0
LINE
  8
0
 10
-22.0083
 20
-4.67801
 11
-22.281
 21
-3.13139
  0
LINE
  8
0
 10
-22.281
 20
-3.13139
 11
-22.4452
 21
-1.56952
  0
LINE
  8
0
 10
-22.4452
 20
-1.56952
 11
-22.5
 21
0
  0
ENDSEC
  0
SECTION
  2
OBJECTS
  0
DICTIONARY
  0
ENDSEC
  0
EOF
