  0
SECTION
  2
BLOCKS
  0
ENDSEC
  0
SECTION
  2
ENTITIES
  0
LINE
  8
0
 10
-85
 20
0
 11
-84.7929
 21
-5.9293
  0
LINE
  8
0
 10
-84.7929
 20
-5.9293
 11
-84.1728
 21
-11.8297
  0
LINE
  8
0
 10
-84.1728
 20
-11.8297
 11
-83.1425
 21
-17.6725
  0
LINE
  8
0
 10
-83.1425
 20
-17.6725
 11
-81.7072
 21
-23.4292
  0
LINE
  8
0
 10
-81.7072
 20
-23.4292
 11
-79.8739
 21
-29.0717
  0
LINE
  8
0
 10
-79.8739
 20
-29.0717
 11
-77.6514
 21
-34.5726
  0
LINE
  8
0
 10
-77.6514
 20
-34.5726
 11
-75.0505
 21
-39.9051
  0
LINE
  8
0
 10
-75.0505
 20
-39.9051
 11
-72.0841
 21
-45.0431
  0
LINE
  8
0
 10
-72.0841
 20
-45.0431
 11
-68.7664
 21
-49.9617
  0
LINE
  8
0
 10
-68.7664
 20
-49.9617
 11
-65.1138
 21
-54.6369
  0
LINE
  8
0
 10
-65.1138
 20
-54.6369
 11
-61.1439
 21
-59.046
  0
LINE
  8
0
 10
-61.1439
 20
-59.046
 11
-56.8761
 21
-63.1673
  0
LINE
  8
0
 10
-56.8761
 20
-63.1673
 11
-52.3312
 21
-66.9809
  0
LINE
  8
0
 10
-52.3312
 20
-66.9809
 11
-47.5314
 21
-70.4682
  0
LINE
  8
0
 10
-47.5314
 20
-70.4682
 11
-42.5
 21
-73.6122
  0
LINE
  8
0
 10
-42.5
 20
-73.6122
 11
-37.2615
 21
-76.3975
  0
LINE
  8
0
 10
-37.2615
 20
-76.3975
 11
-31.8416
 21
-78.8106
  0
LINE
  8
0
 10
-31.8416
 20
-78.8106
 11
-26.2664
 21
-80.8398
  0
LINE
  8
0
 10
-26.2664
 20
-80.8398
 11
-20.5634
 21
-82.4751
  0
LINE
  8
0
 10
-20.5634
 20
-82.4751
 11
-14.7601
 21
-83.7087
  0
LINE
  8
0
 10
-14.7601
 20
-83.7087
 11
-8.88492
 21
-84.5344
  0
LINE
  8
0
 10
-8.88492
 20
-84.5344
 11
-2.96646
 21
-84.9482
  0
LINE
  8
0
 10
-2.96646
 20
-84.9482
 11
2.96646
 21
-84.9482
  0
LINE
  8
0
 10
2.96646
 20
-84.9482
 11
8.88492
 21
-84.5344
  0
LINE
  8
0
 10
8.88492
 20
-84.5344
 11
14.7601
 21
-83.7087
  0
LINE
  8
0
 10
14.7601
 20
-83.7087
 11
20.5634
 21
-82.4751
  0
LINE
  8
0
 10
20.5634
 20
-82.4751
 11
26.2664
 21
-80.8398
  0
LINE
  8
0
 10
26.2664
 20
-80.8398
 11
31.8416
 21
-78.8106
  0
LINE
  8
0
 10
31.8416
 20
-78.8106
 11
37.2615
 21
-76.3975
  0
LINE
  8
0
 10
37.2615
 20
-76.3975
 11
42.5
 21
-73.6122
  0
LINE
  8
0
 10
42.5
 20
-73.6122
 11
47.5314
 21
-70.4682
  0
LINE
  8
0
 10
47.5314
 20
-70.4682
 11
52.3312
 21
-66.9809
  0
LINE
  8
0
 10
52.3312
 20
-66.9809
 11
56.8761
 21
-63.1673
  0
LINE
  8
0
 10
56.8761
 20
-63.1673
 11
61.1439
 21
-59.046
  0
LINE
  8
0
 10
61.1439
 20
-59.046
 11
65.1138
 21
-54.6369
  0
LINE
  8
0
 10
65.1138
 20
-54.6369
 11
68.7664
 21
-49.9617
  0
LINE
  8
0
 10
68.7664
 20
-49.9617
 11
72.0841
 21
-45.0431
  0
LINE
  8
0
 10
72.0841
 20
-45.0431
 11
75.0505
 21
-39.9051
  0
LINE
  8
0
 10
75.0505
 20
-39.9051
 11
77.6514
 21
-34.5726
  0
LINE
  8
0
 10
77.6514
 20
-34.5726
 11
79.8739
 21
-29.0717
  0
LINE
  8
0
 10
79.8739
 20
-29.0717
 11
81.7072
 21
-23.4292
  0
LINE
  8
0
 10
81.7072
 20
-23.4292
 11
83.1425
 21
-17.6725
  0
LINE
  8
0
 10
83.1425
 20
-17.6725
 11
84.1728
 21
-11.8297
  0
LINE
  8
0
 10
84.1728
 20
-11.8297
 11
84.7929
 21
-5.9293
  0
LINE
  8
0
 10
84.7929
 20
-5.9293
 11
85
 21
0
  0
LINE
  8
0
 10
85
 20
0
 11
84.7929
 21
5.9293
  0
LINE
  8
0
 10
84.7929
 20
5.9293
 11
84.1728
 21
11.8297
  0
LINE
  8
0
 10
84.1728
 20
11.8297
 11
83.1425
 21
17.6725
  0
LINE
  8
0
 10
83.1425
 20
17.6725
 11
81.7072
 21
23.4292
  0
LINE
  8
0
 10
81.7072
 20
23.4292
 11
79.8739
 21
29.0717
  0
LINE
  8
0
 10
79.8739
 20
29.0717
 11
77.6514
 21
34.5726
  0
LINE
  8
0
 10
77.6514
 20
34.5726
 11
75.0505
 21
39.9051
  0
LINE
  8
0
 10
75.0505
 20
39.9051
 11
26.4884
 21
139.084
  0
LINE
  8
0
 10
26.4884
 20
139.084
 11
25.4414
 21
140.898
  0
LINE
  8
0
 10
25.4414
 20
140.898
 11
24.2705
 21
142.634
  0
LINE
  8
0
 10
24.2705
 20
142.634
 11
22.9813
 21
144.284
  0
LINE
  8
0
 10
22.9813
 20
144.284
 11
21.5802
 21
145.84
  0
LINE
  8
0
 10
21.5802
 20
145.84
 11
20.0739
 21
147.294
  0
LINE
  8
0
 10
20.0739
 20
147.294
 11
18.4698
 21
148.64
  0
LINE
  8
0
 10
18.4698
 20
148.64
 11
16.7758
 21
149.871
  0
LINE
  8
0
 10
16.7758
 20
149.871
 11
15
 21
150.981
  0
LINE
  8
0
 10
15
 20
150.981
 11
13.1511
 21
151.964
  0
LINE
  8
0
 10
13.1511
 20
151.964
 11
11.2382
 21
152.816
  0
LINE
  8
0
 10
11.2382
 20
152.816
 11
9.27051
 21
153.532
  0
LINE
  8
0
 10
9.27051
 20
153.532
 11
7.25766
 21
154.109
  0
LINE
  8
0
 10
7.25766
 20
154.109
 11
5.20944
 21
154.544
  0
LINE
  8
0
 10
5.20944
 20
154.544
 11
3.13585
 21
154.836
  0
LINE
  8
0
 10
3.13585
 20
154.836
 11
1.04698
 21
154.982
  0
LINE
  8
0
 10
1.04698
 20
154.982
 11
-1.04698
 21
154.982
  0
LINE
  8
0
 10
-1.04698
 20
154.982
 11
-3.13585
 21
154.836
  0
LINE
  8
0
 10
-3.13585
 20
154.836
 11
-5.20944
 21
154.544
  0
LINE
  8
0
 10
-5.20944
 20
154.544
 11
-7.25766
 21
154.109
  0
LINE
  8
0
 10
-7.25766
 20
154.109
 11
-9.27051
 21
153.532
  0
LINE
  8
0
 10
-9.27051
 20
153.532
 11
-11.2382
 21
152.816
  0
LINE
  8
0
 10
-11.2382
 20
152.816
 11
-13.1511
 21
151.964
  0
LINE
  8
0
 10
-13.1511
 20
151.964
 11
-15
 21
150.981
  0
LINE
  8
0
 10
-15
 20
150.981
 11
-16.7758
 21
149.871
  0
LINE
  8
0
 10
-16.7758
 20
149.871
 11
-18.4698
 21
148.64
  0
LINE
  8
0
 10
-18.4698
 20
148.64
 11
-20.0739
 21
147.294
  0
LINE
  8
0
 10
-20.0739
 20
147.294
 11
-21.5802
 21
145.84
  0
LINE
  8
0
 10
-21.5802
 20
145.84
 11
-22.9813
 21
144.284
  0
LINE
  8
0
 10
-22.9813
 20
144.284
 11
-24.2705
 21
142.634
  0
LINE
  8
0
 10
-24.2705
 20
142.634
 11
-25.4414
 21
140.898
  0
LINE
  8
0
 10
-25.4414
 20
140.898
 11
-26.4884
 21
139.084
  0
LINE
  8
0
 10
-26.4884
 20
139.084
 11
-75.0505
 21
39.9051
  0
LINE
  8
0
 10
-75.0505
 20
39.9051
 11
-77.6514
 21
34.5726
  0
LINE
  8
0
 10
-77.6514
 20
34.5726
 11
-79.8739
 21
29.0717
  0
LINE
  8
0
 10
-79.8739
 20
29.0717
 11
-81.7072
 21
23.4292
  0
LINE
  8
0
 10
-81.7072
 20
23.4292
 11
-83.1425
 21
17.6725
  0
LINE
  8
0
 10
-83.1425
 20
17.6725
 11
-84.1728
 21
11.8297
  0
LINE
  8
0
 10
-84.1728
 20
11.8297
 11
-84.7929
 21
5.9293
  0
LINE
  8
0
 10
-84.7929
 20
5.9293
 11
-85
 21
0
  0
LINE
  8
0
 10
-78
 20
0
 11
-77.9525
 21
2.72216
  0
LINE
  8
0
 10
-77.9525
 20
2.72216
 11
-77.81
 21
5.441
  0
LINE
  8
0
 10
-77.81
 20
5.441
 11
-77.5727
 21
8.15322
  0
LINE
  8
0
 10
-77.5727
 20
8.15322
 11
-77.2409
 21
10.8555
  0
LINE
  8
0
 10
-77.2409
 20
10.8555
 11
-76.815
 21
13.5446
  0
LINE
  8
0
 10
-76.815
 20
13.5446
 11
-76.2955
 21
16.2171
  0
LINE
  8
0
 10
-76.2955
 20
16.2171
 11
-75.6831
 21
18.8699
  0
LINE
  8
0
 10
-75.6831
 20
18.8699
 11
-74.9784
 21
21.4997
  0
LINE
  8
0
 10
-74.9784
 20
21.4997
 11
-74.1824
 21
24.1033
  0
LINE
  8
0
 10
-74.1824
 20
24.1033
 11
-73.296
 21
26.6776
  0
LINE
  8
0
 10
-73.296
 20
26.6776
 11
-72.3203
 21
29.2193
  0
LINE
  8
0
 10
-72.3203
 20
29.2193
 11
-71.2565
 21
31.7255
  0
LINE
  8
0
 10
-71.2565
 20
31.7255
 11
-70.1059
 21
34.1929
  0
LINE
  8
0
 10
-70.1059
 20
34.1929
 11
-68.8699
 21
36.6188
  0
LINE
  8
0
 10
-68.8699
 20
36.6188
 11
-67.55
 21
39
  0
LINE
  8
0
 10
-67.55
 20
39
 11
-66.1478
 21
41.3337
  0
LINE
  8
0
 10
-66.1478
 20
41.3337
 11
-64.6649
 21
43.617
  0
LINE
  8
0
 10
-64.6649
 20
43.617
 11
-63.1033
 21
45.8472
  0
LINE
  8
0
 10
-63.1033
 20
45.8472
 11
-61.4648
 21
48.0216
  0
LINE
  8
0
 10
-61.4648
 20
48.0216
 11
-59.7515
 21
50.1374
  0
LINE
  8
0
 10
-59.7515
 20
50.1374
 11
-57.9653
 21
52.1922
  0
LINE
  8
0
 10
-57.9653
 20
52.1922
 11
-56.1085
 21
54.1834
  0
LINE
  8
0
 10
-56.1085
 20
54.1834
 11
-54.1834
 21
56.1085
  0
LINE
  8
0
 10
-54.1834
 20
56.1085
 11
-52.1922
 21
57.9653
  0
LINE
  8
0
 10
-52.1922
 20
57.9653
 11
-50.1374
 21
59.7515
  0
LINE
  8
0
 10
-50.1374
 20
59.7515
 11
-48.0216
 21
61.4648
  0
LINE
  8
0
 10
-48.0216
 20
61.4648
 11
-45.8472
 21
63.1033
  0
LINE
  8
0
 10
-45.8472
 20
63.1033
 11
-43.617
 21
64.6649
  0
LINE
  8
0
 10
-43.617
 20
64.6649
 11
-41.3337
 21
66.1478
  0
LINE
  8
0
 10
-41.3337
 20
66.1478
 11
-39
 21
67.55
  0
LINE
  8
0
 10
-39
 20
67.55
 11
-36.6188
 21
68.8699
  0
LINE
  8
0
 10
-36.6188
 20
68.8699
 11
-34.1929
 21
70.1059
  0
LINE
  8
0
 10
-34.1929
 20
70.1059
 11
-31.7255
 21
71.2565
  0
LINE
  8
0
 10
-31.7255
 20
71.2565
 11
-29.2193
 21
72.3203
  0
LINE
  8
0
 10
-29.2193
 20
72.3203
 11
-26.6776
 21
73.296
  0
LINE
  8
0
 10
-26.6776
 20
73.296
 11
-24.1033
 21
74.1824
  0
LINE
  8
0
 10
-24.1033
 20
74.1824
 11
-21.4997
 21
74.9784
  0
LINE
  8
0
 10
-21.4997
 20
74.9784
 11
-18.8699
 21
75.6831
  0
LINE
  8
0
 10
-18.8699
 20
75.6831
 11
-16.2171
 21
76.2955
  0
LINE
  8
0
 10
-16.2171
 20
76.2955
 11
-13.5446
 21
76.815
  0
LINE
  8
0
 10
-13.5446
 20
76.815
 11
-10.8555
 21
77.2409
  0
LINE
  8
0
 10
-10.8555
 20
77.2409
 11
-8.15322
 21
77.5727
  0
LINE
  8
0
 10
-8.15322
 20
77.5727
 11
-5.441
 21
77.81
  0
LINE
  8
0
 10
-5.441
 20
77.81
 11
-4
 21
77.8855
  0
LINE
  8
0
 10
-4
 20
77.8855
 11
-4
 21
102.862
  0
LINE
  8
0
 10
-4
 20
102.862
 11
-5.44324
 21
103.168
  0
LINE
  8
0
 10
-5.44324
 20
103.168
 11
-6.95288
 21
103.601
  0
LINE
  8
0
 10
-6.95288
 20
103.601
 11
-8.42865
 21
104.138
  0
LINE
  8
0
 10
-8.42865
 20
104.138
 11
-9.86335
 21
104.777
  0
LINE
  8
0
 10
-9.86335
 20
104.777
 11
-11.25
 21
105.514
  0
LINE
  8
0
 10
-11.25
 20
105.514
 11
-12.5818
 21
106.347
  0
LINE
  8
0
 10
-12.5818
 20
106.347
 11
-13.8524
 21
107.27
  0
LINE
  8
0
 10
-13.8524
 20
107.27
 11
-15.0554
 21
108.279
  0
LINE
  8
0
 10
-15.0554
 20
108.279
 11
-16.1851
 21
109.37
  0
LINE
  8
0
 10
-16.1851
 20
109.37
 11
-17.236
 21
110.537
  0
LINE
  8
0
 10
-17.236
 20
110.537
 11
-18.2029
 21
111.775
  0
LINE
  8
0
 10
-18.2029
 20
111.775
 11
-19.0811
 21
113.077
  0
LINE
  8
0
 10
-19.0811
 20
113.077
 11
-19.8663
 21
114.437
  0
LINE
  8
0
 10
-19.8663
 20
114.437
 11
-20.5548
 21
115.848
  0
LINE
  8
0
 10
-20.5548
 20
115.848
 11
-21.1431
 21
117.305
  0
LINE
  8
0
 10
-21.1431
 20
117.305
 11
-21.6284
 21
118.798
  0
LINE
  8
0
 10
-21.6284
 20
118.798
 11
-22.0083
 21
120.322
  0
LINE
  8
0
 10
-22.0083
 20
120.322
 11
-22.281
 21
121.869
  0
LINE
  8
0
 10
-22.281
 20
121.869
 11
-22.4452
 21
123.43
  0
LINE
  8
0
 10
-22.4452
 20
123.43
 11
-22.5
 21
125
  0
LINE
  8
0
 10
-22.5
 20
125
 11
-22.4452
 21
126.57
  0
LINE
  8
0
 10
-22.4452
 20
126.57
 11
-22.281
 21
128.131
  0
LINE
  8
0
 10
-22.281
 20
128.131
 11
-22.0083
 21
129.678
  0
LINE
  8
0
 10
-22.0083
 20
129.678
 11
-21.6284
 21
131.202
  0
LINE
  8
0
 10
-21.6284
 20
131.202
 11
-21.1431
 21
132.695
  0
LINE
  8
0
 10
-21.1431
 20
132.695
 11
-20.5548
 21
134.152
  0
LINE
  8
0
 10
-20.5548
 20
134.152
 11
-19.8663
 21
135.563
  0
LINE
  8
0
 10
-19.8663
 20
135.563
 11
-19.0811
 21
136.923
  0
LINE
  8
0
 10
-19.0811
 20
136.923
 11
-18.2029
 21
138.225
  0
LINE
  8
0
 10
-18.2029
 20
138.225
 11
-17.236
 21
139.463
  0
LINE
  8
0
 10
-17.236
 20
139.463
 11
-16.1851
 21
140.63
  0
LINE
  8
0
 10
-16.1851
 20
140.63
 11
-15.0554
 21
141.721
  0
LINE
  8
0
 10
-15.0554
 20
141.721
 11
-13.8524
 21
142.73
  0
LINE
  8
0
 10
-13.8524
 20
142.73
 11
-12.5818
 21
143.653
  0
LINE
  8
0
 10
-12.5818
 20
143.653
 11
-11.25
 21
144.486
  0
LINE
  8
0
 10
-11.25
 20
144.486
 11
-9.86335
 21
145.223
  0
LINE
  8
0
 10
-9.86335
 20
145.223
 11
-8.42865
 21
145.862
  0
LINE
  8
0
 10
-8.42865
 20
145.862
 11
-6.95288
 21
146.399
  0
LINE
  8
0
 10
-6.95288
 20
146.399
 11
-5.44324
 21
146.832
  0
LINE
  8
0
 10
-5.44324
 20
146.832
 11
-3.90708
 21
147.158
  0
LINE
  8
0
 10
-3.90708
 20
147.158
 11
-2.35189
 21
147.377
  0
LINE
  8
0
 10
-2.35189
 20
147.377
 11
-0.785238
 21
147.486
  0
LINE
  8
0
 10
-0.785238
 20
147.486
 11
0.785238
 21
147.486
  0
LINE
  8
0
 10
0.785238
 20
147.486
 11
2.35189
 21
147.377
  0
LINE
  8
0
 10
2.35189
 20
147.377
 11
3.90708
 21
147.158
  0
LINE
  8
0
 10
3.90708
 20
147.158
 11
5.44324
 21
146.832
  0
LINE
  8
0
 10
5.44324
 20
146.832
 11
6.95288
 21
146.399
  0
LINE
  8
0
 10
6.95288
 20
146.399
 11
8.42865
 21
145.862
  0
LINE
  8
0
 10
8.42865
 20
145.862
 11
9.86335
 21
145.223
  0
LINE
  8
0
 10
9.86335
 20
145.223
 11
11.25
 21
144.486
  0
LINE
  8
0
 10
11.25
 20
144.486
 11
12.5818
 21
143.653
  0
LINE
  8
0
 10
12.5818
 20
143.653
 11
13.8524
 21
142.73
  0
LINE
  8
0
 10
13.8524
 20
142.73
 11
15.0554
 21
141.721
  0
LINE
  8
0
 10
15.0554
 20
141.721
 11
16.1851
 21
140.63
  0
LINE
  8
0
 10
16.1851
 20
140.63
 11
17.236
 21
139.463
  0
LINE
  8
0
 10
17.236
 20
139.463
 11
18.2029
 21
138.225
  0
LINE
  8
0
 10
18.2029
 20
138.225
 11
19.0811
 21
136.923
  0
LINE
  8
0
 10
19.0811
 20
136.923
 11
19.8663
 21
135.563
  0
LINE
  8
0
 10
19.8663
 20
135.563
 11
20.5548
 21
134.152
  0
LINE
  8
0
 10
20.5548
 20
134.152
 11
21.1431
 21
132.695
  0
LINE
  8
0
 10
21.1431
 20
132.695
 11
21.6284
 21
131.202
  0
LINE
  8
0
 10
21.6284
 20
131.202
 11
22.0083
 21
129.678
  0
LINE
  8
0
 10
22.0083
 20
129.678
 11
22.281
 21
128.131
  0
LINE
  8
0
 10
22.281
 20
128.131
 11
22.4452
 21
126.57
  0
LINE
  8
0
 10
22.4452
 20
126.57
 11
22.5
 21
125
  0
LINE
  8
0
 10
22.5
 20
125
 11
22.4452
 21
123.43
  0
LINE
  8
0
 10
22.4452
 20
123.43
 11
22.281
 21
121.869
  0
LINE
  8
0
 10
22.281
 20
121.869
 11
22.0083
 21
120.322
  0
LINE
  8
0
 10
22.0083
 20
120.322
 11
21.6284
 21
118.798
  0
LINE
  8
0
 10
21.6284
 20
118.798
 11
21.1431
 21
117.305
  0
LINE
  8
0
 10
21.1431
 20
117.305
 11
20.5548
 21
115.848
  0
LINE
  8
0
 10
20.5548
 20
115.848
 11
19.8663
 21
114.437
  0
LINE
  8
0
 10
19.8663
 20
114.437
 11
19.0811
 21
113.077
  0
LINE
  8
0
 10
19.0811
 20
113.077
 11
18.2029
 21
111.775
  0
LINE
  8
0
 10
18.2029
 20
111.775
 11
17.236
 21
110.537
  0
LINE
  8
0
 10
17.236
 20
110.537
 11
16.1851
 21
109.37
  0
LINE
  8
0
 10
16.1851
 20
109.37
 11
15.0554
 21
108.279
  0
LINE
  8
0
 10
15.0554
 20
108.279
 11
13.8524
 21
107.27
  0
LINE
  8
0
 10
13.8524
 20
107.27
 11
12.5818
 21
106.347
  0
LINE
  8
0
 10
12.5818
 20
106.347
 11
11.25
 21
105.514
  0
LINE
  8
0
 10
11.25
 20
105.514
 11
9.86335
 21
104.777
  0
LINE
  8
0
 10
9.86335
 20
104.777
 11
8.42865
 21
104.138
  0
LINE
  8
0
 10
8.42865
 20
104.138
 11
6.95288
 21
103.601
  0
LINE
  8
0
 10
6.95288
 20
103.601
 11
5.44324
 21
103.168
  0
LINE
  8
0
 10
5.44324
 20
103.168
 11
4
 21
102.862
  0
LINE
  8
0
 10
4
 20
102.862
 11
4
 21
77.8855
  0
LINE
  8
0
 10
4
 20
77.8855
 11
5.441
 21
77.81
  0
LINE
  8
0
 10
5.441
 20
77.81
 11
8.15322
 21
77.5727
  0
LINE
  8
0
 10
8.15322
 20
77.5727
 11
10.8555
 21
77.2409
  0
LINE
  8
0
 10
10.8555
 20
77.2409
 11
13.5446
 21
76.815
  0
LINE
  8
0
 10
13.5446
 20
76.815
 11
16.2171
 21
76.2955
  0
LINE
  8
0
 10
16.2171
 20
76.2955
 11
18.8699
 21
75.6831
  0
LINE
  8
0
 10
18.8699
 20
75.6831
 11
21.4997
 21
74.9784
  0
LINE
  8
0
 10
21.4997
 20
74.9784
 11
24.1033
 21
74.1824
  0
LINE
  8
0
 10
24.1033
 20
74.1824
 11
26.6776
 21
73.296
  0
LINE
  8
0
 10
26.6776
 20
73.296
 11
29.2193
 21
72.3203
  0
LINE
  8
0
 10
29.2193
 20
72.3203
 11
31.7255
 21
71.2565
  0
LINE
  8
0
 10
31.7255
 20
71.2565
 11
34.1929
 21
70.1059
  0
LINE
  8
0
 10
34.1929
 20
70.1059
 11
36.6188
 21
68.8699
  0
LINE
  8
0
 10
36.6188
 20
68.8699
 11
39
 21
67.55
  0
LINE
  8
0
 10
39
 20
67.55
 11
41.3337
 21
66.1478
  0
LINE
  8
0
 10
41.3337
 20
66.1478
 11
43.617
 21
64.6649
  0
LINE
  8
0
 10
43.617
 20
64.6649
 11
45.8472
 21
63.1033
  0
LINE
  8
0
 10
45.8472
 20
63.1033
 11
48.0216
 21
61.4648
  0
LINE
  8
0
 10
48.0216
 20
61.4648
 11
50.1374
 21
59.7515
  0
LINE
  8
0
 10
50.1374
 20
59.7515
 11
52.1922
 21
57.9653
  0
LINE
  8
0
 10
52.1922
 20
57.9653
 11
54.1834
 21
56.1085
  0
LINE
  8
0
 10
54.1834
 20
56.1085
 11
56.1085
 21
54.1834
  0
LINE
  8
0
 10
56.1085
 20
54.1834
 11
57.9653
 21
52.1922
  0
LINE
  8
0
 10
57.9653
 20
52.1922
 11
59.7515
 21
50.1374
  0
LINE
  8
0
 10
59.7515
 20
50.1374
 11
61.4648
 21
48.0216
  0
LINE
  8
0
 10
61.4648
 20
48.0216
 11
63.1033
 21
45.8472
  0
LINE
  8
0
 10
63.1033
 20
45.8472
 11
64.6649
 21
43.617
  0
LINE
  8
0
 10
64.6649
 20
43.617
 11
66.1478
 21
41.3337
  0
LINE
  8
0
 10
66.1478
 20
41.3337
 11
67.55
 21
39
  0
LINE
  8
0
 10
67.55
 20
39
 11
68.8699
 21
36.6188
  0
LINE
  8
0
 10
68.8699
 20
36.6188
 11
70.1059
 21
34.1929
  0
LINE
  8
0
 10
70.1059
 20
34.1929
 11
71.2565
 21
31.7255
  0
LINE
  8
0
 10
71.2565
 20
31.7255
 11
72.3203
 21
29.2193
  0
LINE
  8
0
 10
72.3203
 20
29.2193
 11
73.296
 21
26.6776
  0
LINE
  8
0
 10
73.296
 20
26.6776
 11
74.1824
 21
24.1033
  0
LINE
  8
0
 10
74.1824
 20
24.1033
 11
74.9784
 21
21.4997
  0
LINE
  8
0
 10
74.9784
 20
21.4997
 11
75.6831
 21
18.8699
  0
LINE
  8
0
 10
75.6831
 20
18.8699
 11
76.2955
 21
16.2171
  0
LINE
  8
0
 10
76.2955
 20
16.2171
 11
76.815
 21
13.5446
  0
LINE
  8
0
 10
76.815
 20
13.5446
 11
77.2409
 21
10.8555
  0
LINE
  8
0
 10
77.2409
 20
10.8555
 11
77.5727
 21
8.15322
  0
LINE
  8
0
 10
77.5727
 20
8.15322
 11
77.81
 21
5.441
  0
LINE
  8
0
 10
77.81
 20
5.441
 11
77.9525
 21
2.72216
  0
LINE
  8
0
 10
77.9525
 20
2.72216
 11
78
 21
0
  0
LINE
  8
0
 10
78
 20
0
 11
77.9525
 21
-2.72216
  0
LINE
  8
0
 10
77.9525
 20
-2.72216
 11
77.81
 21
-5.441
  0
LINE
  8
0
 10
77.81
 20
-5.441
 11
77.5727
 21
-8.15322
  0
LINE
  8
0
 10
77.5727
 20
-8.15322
 11
77.2409
 21
-10.8555
  0
LINE
  8
0
 10
77.2409
 20
-10.8555
 11
76.815
 21
-13.5446
  0
LINE
  8
0
 10
76.815
 20
-13.5446
 11
76.2955
 21
-16.2171
  0
LINE
  8
0
 10
76.2955
 20
-16.2171
 11
75.6831
 21
-18.8699
  0
LINE
  8
0
 10
75.6831
 20
-18.8699
 11
74.9784
 21
-21.4997
  0
LINE
  8
0
 10
74.9784
 20
-21.4997
 11
74.1824
 21
-24.1033
  0
LINE
  8
0
 10
74.1824
 20
-24.1033
 11
73.296
 21
-26.6776
  0
LINE
  8
0
 10
73.296
 20
-26.6776
 11
72.3203
 21
-29.2193
  0
LINE
  8
0
 10
72.3203
 20
-29.2193
 11
71.2565
 21
-31.7255
  0
LINE
  8
0
 10
71.2565
 20
-31.7255
 11
70.1059
 21
-34.1929
  0
LINE
  8
0
 10
70.1059
 20
-34.1929
 11
68.8699
 21
-36.6188
  0
LINE
  8
0
 10
68.8699
 20
-36.6188
 11
67.55
 21
-39
  0
LINE
  8
0
 10
67.55
 20
-39
 11
66.1478
 21
-41.3337
  0
LINE
  8
0
 10
66.1478
 20
-41.3337
 11
64.6649
 21
-43.617
  0
LINE
  8
0
 10
64.6649
 20
-43.617
 11
63.1033
 21
-45.8472
  0
LINE
  8
0
 10
63.1033
 20
-45.8472
 11
61.4648
 21
-48.0216
  0
LINE
  8
0
 10
61.4648
 20
-48.0216
 11
59.7515
 21
-50.1374
  0
LINE
  8
0
 10
59.7515
 20
-50.1374
 11
57.9653
 21
-52.1922
  0
LINE
  8
0
 10
57.9653
 20
-52.1922
 11
56.1085
 21
-54.1834
  0
LINE
  8
0
 10
56.1085
 20
-54.1834
 11
54.1834
 21
-56.1085
  0
LINE
  8
0
 10
54.1834
 20
-56.1085
 11
52.1922
 21
-57.9653
  0
LINE
  8
0
 10
52.1922
 20
-57.9653
 11
50.1374
 21
-59.7515
  0
LINE
  8
0
 10
50.1374
 20
-59.7515
 11
48.0216
 21
-61.4648
  0
LINE
  8
0
 10
48.0216
 20
-61.4648
 11
45.8472
 21
-63.1033
  0
LINE
  8
0
 10
45.8472
 20
-63.1033
 11
43.617
 21
-64.6649
  0
LINE
  8
0
 10
43.617
 20
-64.6649
 11
41.3337
 21
-66.1478
  0
LINE
  8
0
 10
41.3337
 20
-66.1478
 11
39
 21
-67.55
  0
LINE
  8
0
 10
39
 20
-67.55
 11
36.6188
 21
-68.8699
  0
LINE
  8
0
 10
36.6188
 20
-68.8699
 11
34.1929
 21
-70.1059
  0
LINE
  8
0
 10
34.1929
 20
-70.1059
 11
31.7255
 21
-71.2565
  0
LINE
  8
0
 10
31.7255
 20
-71.2565
 11
29.2193
 21
-72.3203
  0
LINE
  8
0
 10
29.2193
 20
-72.3203
 11
26.6776
 21
-73.296
  0
LINE
  8
0
 10
26.6776
 20
-73.296
 11
24.1033
 21
-74.1824
  0
LINE
  8
0
 10
24.1033
 20
-74.1824
 11
21.4997
 21
-74.9784
  0
LINE
  8
0
 10
21.4997
 20
-74.9784
 11
18.8699
 21
-75.6831
  0
LINE
  8
0
 10
18.8699
 20
-75.6831
 11
16.2171
 21
-76.2955
  0
LINE
  8
0
 10
16.2171
 20
-76.2955
 11
13.5446
 21
-76.815
  0
LINE
  8
0
 10
13.5446
 20
-76.815
 11
10.8555
 21
-77.2409
  0
LINE
  8
0
 10
10.8555
 20
-77.2409
 11
8.15322
 21
-77.5727
  0
LINE
  8
0
 10
8.15322
 20
-77.5727
 11
5.441
 21
-77.81
  0
LINE
  8
0
 10
5.441
 20
-77.81
 11
2.72216
 21
-77.9525
  0
LINE
  8
0
 10
2.72216
 20
-77.9525
 11
0
 21
-78
  0
LINE
  8
0
 10
0
 20
-78
 11
-2.72216
 21
-77.9525
  0
LINE
  8
0
 10
-2.72216
 20
-77.9525
 11
-5.441
 21
-77.81
  0
LINE
  8
0
 10
-5.441
 20
-77.81
 11
-8.15322
 21
-77.5727
  0
LINE
  8
0
 10
-8.15322
 20
-77.5727
 11
-10.8555
 21
-77.2409
  0
LINE
  8
0
 10
-10.8555
 20
-77.2409
 11
-13.5446
 21
-76.815
  0
LINE
  8
0
 10
-13.5446
 20
-76.815
 11
-16.2171
 21
-76.2955
  0
LINE
  8
0
 10
-16.2171
 20
-76.2955
 11
-18.8699
 21
-75.6831
  0
LINE
  8
0
 10
-18.8699
 20
-75.6831
 11
-21.4997
 21
-74.9784
  0
LINE
  8
0
 10
-21.4997
 20
-74.9784
 11
-24.1033
 21
-74.1824
  0
LINE
  8
0
 10
-24.1033
 20
-74.1824
 11
-26.6776
 21
-73.296
  0
LINE
  8
0
 10
-26.6776
 20
-73.296
 11
-29.2193
 21
-72.3203
  0
LINE
  8
0
 10
-29.2193
 20
-72.3203
 11
-31.7255
 21
-71.2565
  0
LINE
  8
0
 10
-31.7255
 20
-71.2565
 11
-34.1929
 21
-70.1059
  0
LINE
  8
0
 10
-34.1929
 20
-70.1059
 11
-36.6188
 21
-68.8699
  0
LINE
  8
0
 10
-36.6188
 20
-68.8699
 11
-39
 21
-67.55
  0
LINE
  8
0
 10
-39
 20
-67.55
 11
-41.3337
 21
-66.1478
  0
LINE
  8
0
 10
-41.3337
 20
-66.1478
 11
-43.617
 21
-64.6649
  0
LINE
  8
0
 10
-43.617
 20
-64.6649
 11
-45.8472
 21
-63.1033
  0
LINE
  8
0
 10
-45.8472
 20
-63.1033
 11
-48.0216
 21
-61.4648
  0
LINE
  8
0
 10
-48.0216
 20
-61.4648
 11
-50.1374
 21
-59.7515
  0
LINE
  8
0
 10
-50.1374
 20
-59.7515
 11
-52.1922
 21
-57.9653
  0
LINE
  8
0
 10
-52.1922
 20
-57.9653
 11
-54.1834
 21
-56.1085
  0
LINE
  8
0
 10
-54.1834
 20
-56.1085
 11
-56.1085
 21
-54.1834
  0
LINE
  8
0
 10
-56.1085
 20
-54.1834
 11
-57.9653
 21
-52.1922
  0
LINE
  8
0
 10
-57.9653
 20
-52.1922
 11
-59.7515
 21
-50.1374
  0
LINE
  8
0
 10
-59.7515
 20
-50.1374
 11
-61.4648
 21
-48.0216
  0
LINE
  8
0
 10
-61.4648
 20
-48.0216
 11
-63.1033
 21
-45.8472
  0
LINE
  8
0
 10
-63.1033
 20
-45.8472
 11
-64.6649
 21
-43.617
  0
LINE
  8
0
 10
-64.6649
 20
-43.617
 11
-66.1478
 21
-41.3337
  0
LINE
  8
0
 10
-66.1478
 20
-41.3337
 11
-67.55
 21
-39
  0
LINE
  8
0
 10
-67.55
 20
-39
 11
-68.8699
 21
-36.6188
  0
LINE
  8
0
 10
-68.8699
 20
-36.6188
 11
-70.1059
 21
-34.1929
  0
LINE
  8
0
 10
-70.1059
 20
-34.1929
 11
-71.2565
 21
-31.7255
  0
LINE
  8
0
 10
-71.2565
 20
-31.7255
 11
-72.3203
 21
-29.2193
  0
LINE
  8
0
 10
-72.3203
 20
-29.2193
 11
-73.296
 21
-26.6776
  0
LINE
  8
0
 10
-73.296
 20
-26.6776
 11
-74.1824
 21
-24.1033
  0
LINE
  8
0
 10
-74.1824
 20
-24.1033
 11
-74.9784
 21
-21.4997
  0
LINE
  8
0
 10
-74.9784
 20
-21.4997
 11
-75.6831
 21
-18.8699
  0
LINE
  8
0
 10
-75.6831
 20
-18.8699
 11
-76.2955
 21
-16.2171
  0
LINE
  8
0
 10
-76.2955
 20
-16.2171
 11
-76.815
 21
-13.5446
  0
LINE
  8
0
 10
-76.815
 20
-13.5446
 11
-77.2409
 21
-10.8555
  0
LINE
  8
0
 10
-77.2409
 20
-10.8555
 11
-77.5727
 21
-8.15322
  0
LINE
  8
0
 10
-77.5727
 20
-8.15322
 11
-77.81
 21
-5.441
  0
LINE
  8
0
 10
-77.81
 20
-5.441
 11
-77.9525
 21
-2.72216
  0
LINE
  8
0
 10
-77.9525
 20
-2.72216
 11
-78
 21
0
  0
LINE
  8
0
 10
-73
 20
0
 11
-72.9555
 21
-2.54766
  0
LINE
  8
0
 10
-72.9555
 20
-2.54766
 11
-72.8222
 21
-5.09222
  0
LINE
  8
0
 10
-72.8222
 20
-5.09222
 11
-72.6001
 21
-7.63058
  0
LINE
  8
0
 10
-72.6001
 20
-7.63058
 11
-72.2896
 21
-10.1596
  0
LINE
  8
0
 10
-72.2896
 20
-10.1596
 11
-71.891
 21
-12.6763
  0
LINE
  8
0
 10
-71.891
 20
-12.6763
 11
-71.4048
 21
-15.1776
  0
LINE
  8
0
 10
-71.4048
 20
-15.1776
 11
-70.8316
 21
-17.6603
  0
LINE
  8
0
 10
-70.8316
 20
-17.6603
 11
-70.1721
 21
-20.1215
  0
LINE
  8
0
 10
-70.1721
 20
-20.1215
 11
-69.4271
 21
-22.5582
  0
LINE
  8
0
 10
-69.4271
 20
-22.5582
 11
-68.5976
 21
-24.9675
  0
LINE
  8
0
 10
-68.5976
 20
-24.9675
 11
-67.6844
 21
-27.3463
  0
LINE
  8
0
 10
-67.6844
 20
-27.3463
 11
-66.6888
 21
-29.6918
  0
LINE
  8
0
 10
-66.6888
 20
-29.6918
 11
-65.612
 21
-32.0011
  0
LINE
  8
0
 10
-65.612
 20
-32.0011
 11
-64.4552
 21
-34.2714
  0
LINE
  8
0
 10
-64.4552
 20
-34.2714
 11
-63.2199
 21
-36.5
  0
LINE
  8
0
 10
-63.2199
 20
-36.5
 11
-61.9075
 21
-38.6841
  0
LINE
  8
0
 10
-61.9075
 20
-38.6841
 11
-60.5197
 21
-40.8211
  0
LINE
  8
0
 10
-60.5197
 20
-40.8211
 11
-59.0582
 21
-42.9083
  0
LINE
  8
0
 10
-59.0582
 20
-42.9083
 11
-57.5248
 21
-44.9433
  0
LINE
  8
0
 10
-57.5248
 20
-44.9433
 11
-55.9212
 21
-46.9235
  0
LINE
  8
0
 10
-55.9212
 20
-46.9235
 11
-54.2496
 21
-48.8465
  0
LINE
  8
0
 10
-54.2496
 20
-48.8465
 11
-52.5118
 21
-50.7101
  0
LINE
  8
0
 10
-52.5118
 20
-50.7101
 11
-50.7101
 21
-52.5118
  0
LINE
  8
0
 10
-50.7101
 20
-52.5118
 11
-48.8465
 21
-54.2496
  0
LINE
  8
0
 10
-48.8465
 20
-54.2496
 11
-46.9235
 21
-55.9212
  0
LINE
  8
0
 10
-46.9235
 20
-55.9212
 11
-44.9433
 21
-57.5248
  0
LINE
  8
0
 10
-44.9433
 20
-57.5248
 11
-42.9083
 21
-59.0582
  0
LINE
  8
0
 10
-42.9083
 20
-59.0582
 11
-40.8211
 21
-60.5197
  0
LINE
  8
0
 10
-40.8211
 20
-60.5197
 11
-38.6841
 21
-61.9075
  0
LINE
  8
0
 10
-38.6841
 20
-61.9075
 11
-36.5
 21
-63.2199
  0
LINE
  8
0
 10
-36.5
 20
-63.2199
 11
-34.2714
 21
-64.4552
  0
LINE
  8
0
 10
-34.2714
 20
-64.4552
 11
-32.0011
 21
-65.612
  0
LINE
  8
0
 10
-32.0011
 20
-65.612
 11
-29.6918
 21
-66.6888
  0
LINE
  8
0
 10
-29.6918
 20
-66.6888
 11
-27.3463
 21
-67.6844
  0
LINE
  8
0
 10
-27.3463
 20
-67.6844
 11
-24.9675
 21
-68.5976
  0
LINE
  8
0
 10
-24.9675
 20
-68.5976
 11
-22.5582
 21
-69.4271
  0
LINE
  8
0
 10
-22.5582
 20
-69.4271
 11
-20.1215
 21
-70.1721
  0
LINE
  8
0
 10
-20.1215
 20
-70.1721
 11
-17.6603
 21
-70.8316
  0
LINE
  8
0
 10
-17.6603
 20
-70.8316
 11
-15.1776
 21
-71.4048
  0
LINE
  8
0
 10
-15.1776
 20
-71.4048
 11
-12.6763
 21
-71.891
  0
LINE
  8
0
 10
-12.6763
 20
-71.891
 11
-10.1596
 21
-72.2896
  0
LINE
  8
0
 10
-10.1596
 20
-72.2896
 11
-7.63058
 21
-72.6001
  0
LINE
  8
0
 10
-7.63058
 20
-72.6001
 11
-5.09222
 21
-72.8222
  0
LINE
  8
0
 10
-5.09222
 20
-72.8222
 11
-2.54766
 21
-72.9555
  0
LINE
  8
0
 10
-2.54766
 20
-72.9555
 11
0
 21
-73
  0
LINE
  8
0
 10
0
 20
-73
 11
2.54766
 21
-72.9555
  0
LINE
  8
0
 10
2.54766
 20
-72.9555
 11
5.09222
 21
-72.8222
  0
LINE
  8
0
 10
5.09222
 20
-72.8222
 11
7.63058
 21
-72.6001
  0
LINE
  8
0
 10
7.63058
 20
-72.6001
 11
10.1596
 21
-72.2896
  0
LINE
  8
0
 10
10.1596
 20
-72.2896
 11
12.6763
 21
-71.891
  0
LINE
  8
0
 10
12.6763
 20
-71.891
 11
15.1776
 21
-71.4048
  0
LINE
  8
0
 10
15.1776
 20
-71.4048
 11
17.6603
 21
-70.8316
  0
LINE
  8
0
 10
17.6603
 20
-70.8316
 11
20.1215
 21
-70.1721
  0
LINE
  8
0
 10
20.1215
 20
-70.1721
 11
22.5582
 21
-69.4271
  0
LINE
  8
0
 10
22.5582
 20
-69.4271
 11
24.9675
 21
-68.5976
  0
LINE
  8
0
 10
24.9675
 20
-68.5976
 11
27.3463
 21
-67.6844
  0
LINE
  8
0
 10
27.3463
 20
-67.6844
 11
29.6918
 21
-66.6888
  0
LINE
  8
0
 10
29.6918
 20
-66.6888
 11
32.0011
 21
-65.612
  0
LINE
  8
0
 10
32.0011
 20
-65.612
 11
34.2714
 21
-64.4552
  0
LINE
  8
0
 10
34.2714
 20
-64.4552
 11
36.5
 21
-63.2199
  0
LINE
  8
0
 10
36.5
 20
-63.2199
 11
38.6841
 21
-61.9075
  0
LINE
  8
0
 10
38.6841
 20
-61.9075
 11
40.8211
 21
-60.5197
  0
LINE
  8
0
 10
40.8211
 20
-60.5197
 11
42.9083
 21
-59.0582
  0
LINE
  8
0
 10
42.9083
 20
-59.0582
 11
44.9433
 21
-57.5248
  0
LINE
  8
0
 10
44.9433
 20
-57.5248
 11
46.9235
 21
-55.9212
  0
LINE
  8
0
 10
46.9235
 20
-55.9212
 11
48.8465
 21
-54.2496
  0
LINE
  8
0
 10
48.8465
 20
-54.2496
 11
50.7101
 21
-52.5118
  0
LINE
  8
0
 10
50.7101
 20
-52.5118
 11
52.5118
 21
-50.7101
  0
LINE
  8
0
 10
52.5118
 20
-50.7101
 11
54.2496
 21
-48.8465
  0
LINE
  8
0
 10
54.2496
 20
-48.8465
 11
55.9212
 21
-46.9235
  0
LINE
  8
0
 10
55.9212
 20
-46.9235
 11
57.5248
 21
-44.9433
  0
LINE
  8
0
 10
57.5248
 20
-44.9433
 11
59.0582
 21
-42.9083
  0
LINE
  8
0
 10
59.0582
 20
-42.9083
 11
60.5197
 21
-40.8211
  0
LINE
  8
0
 10
60.5197
 20
-40.8211
 11
61.9075
 21
-38.6841
  0
LINE
  8
0
 10
61.9075
 20
-38.6841
 11
63.2199
 21
-36.5
  0
LINE
  8
0
 10
63.2199
 20
-36.5
 11
64.4552
 21
-34.2714
  0
LINE
  8
0
 10
64.4552
 20
-34.2714
 11
65.612
 21
-32.0011
  0
LINE
  8
0
 10
65.612
 20
-32.0011
 11
66.6888
 21
-29.6918
  0
LINE
  8
0
 10
66.6888
 20
-29.6918
 11
67.6844
 21
-27.3463
  0
LINE
  8
0
 10
67.6844
 20
-27.3463
 11
68.5976
 21
-24.9675
  0
LINE
  8
0
 10
68.5976
 20
-24.9675
 11
69.4271
 21
-22.5582
  0
LINE
  8
0
 10
69.4271
 20
-22.5582
 11
70.1721
 21
-20.1215
  0
LINE
  8
0
 10
70.1721
 20
-20.1215
 11
70.8316
 21
-17.6603
  0
LINE
  8
0
 10
70.8316
 20
-17.6603
 11
71.4048
 21
-15.1776
  0
LINE
  8
0
 10
71.4048
 20
-15.1776
 11
71.891
 21
-12.6763
  0
LINE
  8
0
 10
71.891
 20
-12.6763
 11
72.2896
 21
-10.1596
  0
LINE
  8
0
 10
72.2896
 20
-10.1596
 11
72.6001
 21
-7.63058
  0
LINE
  8
0
 10
72.6001
 20
-7.63058
 11
72.8222
 21
-5.09222
  0
LINE
  8
0
 10
72.8222
 20
-5.09222
 11
72.9555
 21
-2.54766
  0
LINE
  8
0
 10
72.9555
 20
-2.54766
 11
73
 21
0
  0
LINE
  8
0
 10
73
 20
0
 11
72.9555
 21
2.54766
  0
LINE
  8
0
 10
72.9555
 20
2.54766
 11
72.8222
 21
5.09222
  0
LINE
  8
0
 10
72.8222
 20
5.09222
 11
72.6001
 21
7.63058
  0
LINE
  8
0
 10
72.6001
 20
7.63058
 11
72.2896
 21
10.1596
  0
LINE
  8
0
 10
72.2896
 20
10.1596
 11
71.891
 21
12.6763
  0
LINE
  8
0
 10
71.891
 20
12.6763
 11
71.4048
 21
15.1776
  0
LINE
  8
0
 10
71.4048
 20
15.1776
 11
70.8316
 21
17.6603
  0
LINE
  8
0
 10
70.8316
 20
17.6603
 11
70.1721
 21
20.1215
  0
LINE
  8
0
 10
70.1721
 20
20.1215
 11
69.4271
 21
22.5582
  0
LINE
  8
0
 10
69.4271
 20
22.5582
 11
68.5976
 21
24.9675
  0
LINE
  8
0
 10
68.5976
 20
24.9675
 11
67.6844
 21
27.3463
  0
LINE
  8
0
 10
67.6844
 20
27.3463
 11
66.6888
 21
29.6918
  0
LINE
  8
0
 10
66.6888
 20
29.6918
 11
65.612
 21
32.0011
  0
LINE
  8
0
 10
65.612
 20
32.0011
 11
64.4552
 21
34.2714
  0
LINE
  8
0
 10
64.4552
 20
34.2714
 11
63.2199
 21
36.5
  0
LINE
  8
0
 10
63.2199
 20
36.5
 11
61.9075
 21
38.6841
  0
LINE
  8
0
 10
61.9075
 20
38.6841
 11
60.5197
 21
40.8211
  0
LINE
  8
0
 10
60.5197
 20
40.8211
 11
59.0582
 21
42.9083
  0
LINE
  8
0
 10
59.0582
 20
42.9083
 11
57.5248
 21
44.9433
  0
LINE
  8
0
 10
57.5248
 20
44.9433
 11
55.9212
 21
46.9235
  0
LINE
  8
0
 10
55.9212
 20
46.9235
 11
54.2496
 21
48.8465
  0
LINE
  8
0
 10
54.2496
 20
48.8465
 11
52.5118
 21
50.7101
  0
LINE
  8
0
 10
52.5118
 20
50.7101
 11
50.7101
 21
52.5118
  0
LINE
  8
0
 10
50.7101
 20
52.5118
 11
48.8465
 21
54.2496
  0
LINE
  8
0
 10
48.8465
 20
54.2496
 11
46.9235
 21
55.9212
  0
LINE
  8
0
 10
46.9235
 20
55.9212
 11
44.9433
 21
57.5248
  0
LINE
  8
0
 10
44.9433
 20
57.5248
 11
42.9083
 21
59.0582
  0
LINE
  8
0
 10
42.9083
 20
59.0582
 11
40.8211
 21
60.5197
  0
LINE
  8
0
 10
40.8211
 20
60.5197
 11
38.6841
 21
61.9075
  0
LINE
  8
0
 10
38.6841
 20
61.9075
 11
36.5
 21
63.2199
  0
LINE
  8
0
 10
36.5
 20
63.2199
 11
34.2714
 21
64.4552
  0
LINE
  8
0
 10
34.2714
 20
64.4552
 11
32.0011
 21
65.612
  0
LINE
  8
0
 10
32.0011
 20
65.612
 11
29.6918
 21
66.6888
  0
LINE
  8
0
 10
29.6918
 20
66.6888
 11
27.3463
 21
67.6844
  0
LINE
  8
0
 10
27.3463
 20
67.6844
 11
24.9675
 21
68.5976
  0
LINE
  8
0
 10
24.9675
 20
68.5976
 11
22.5582
 21
69.4271
  0
LINE
  8
0
 10
22.5582
 20
69.4271
 11
20.1215
 21
70.1721
  0
LINE
  8
0
 10
20.1215
 20
70.1721
 11
17.6603
 21
70.8316
  0
LINE
  8
0
 10
17.6603
 20
70.8316
 11
15.1776
 21
71.4048
  0
LINE
  8
0
 10
15.1776
 20
71.4048
 11
12.6763
 21
71.891
  0
LINE
  8
0
 10
12.6763
 20
71.891
 11
10.1596
 21
72.2896
  0
LINE
  8
0
 10
10.1596
 20
72.2896
 11
7.63058
 21
72.6001
  0
LINE
  8
0
 10
7.63058
 20
72.6001
 11
5.09222
 21
72.8222
  0
LINE
  8
0
 10
5.09222
 20
72.8222
 11
2.54766
 21
72.9555
  0
LINE
  8
0
 10
2.54766
 20
72.9555
 11
0
 21
73
  0
LINE
  8
0
 10
0
 20
73
 11
-2.54766
 21
72.9555
  0
LINE
  8
0
 10
-2.54766
 20
72.9555
 11
-5.09222
 21
72.8222
  0
LINE
  8
0
 10
-5.09222
 20
72.8222
 11
-7.63058
 21
72.6001
  0
LINE
  8
0
 10
-7.63058
 20
72.6001
 11
-10.1596
 21
72.2896
  0
LINE
  8
0
 10
-10.1596
 20
72.2896
 11
-12.6763
 21
71.891
  0
LINE
  8
0
 10
-12.6763
 20
71.891
 11
-15.1776
 21
71.4048
  0
LINE
  8
0
 10
-15.1776
 20
71.4048
 11
-17.6603
 21
70.8316
  0
LINE
  8
0
 10
-17.6603
 20
70.8316
 11
-20.1215
 21
70.1721
  0
LINE
  8
0
 10
-20.1215
 20
70.1721
 11
-22.5582
 21
69.4271
  0
LINE
  8
0
 10
-22.5582
 20
69.4271
 11
-24.9675
 21
68.5976
  0
LINE
  8
0
 10
-24.9675
 20
68.5976
 11
-27.3463
 21
67.6844
  0
LINE
  8
0
 10
-27.3463
 20
67.6844
 11
-29.6918
 21
66.6888
  0
LINE
  8
0
 10
-29.6918
 20
66.6888
 11
-32.0011
 21
65.612
  0
LINE
  8
0
 10
-32.0011
 20
65.612
 11
-34.2714
 21
64.4552
  0
LINE
  8
0
 10
-34.2714
 20
64.4552
 11
-36.5
 21
63.2199
  0
LINE
  8
0
 10
-36.5
 20
63.2199
 11
-38.6841
 21
61.9075
  0
LINE
  8
0
 10
-38.6841
 20
61.9075
 11
-40.8211
 21
60.5197
  0
LINE
  8
0
 10
-40.8211
 20
60.5197
 11
-42.9083
 21
59.0582
  0
LINE
  8
0
 10
-42.9083
 20
59.0582
 11
-44.9433
 21
57.5248
  0
LINE
  8
0
 10
-44.9433
 20
57.5248
 11
-46.9235
 21
55.9212
  0
LINE
  8
0
 10
-46.9235
 20
55.9212
 11
-48.8465
 21
54.2496
  0
LINE
  8
0
 10
-48.8465
 20
54.2496
 11
-50.7101
 21
52.5118
  0
LINE
  8
0
 10
-50.7101
 20
52.5118
 11
-52.5118
 21
50.7101
  0
LINE
  8
0
 10
-52.5118
 20
50.7101
 11
-54.2496
 21
48.8465
  0
LINE
  8
0
 10
-54.2496
 20
48.8465
 11
-55.9212
 21
46.9235
  0
LINE
  8
0
 10
-55.9212
 20
46.9235
 11
-57.5248
 21
44.9433
  0
LINE
  8
0
 10
-57.5248
 20
44.9433
 11
-59.0582
 21
42.9083
  0
LINE
  8
0
 10
-59.0582
 20
42.9083
 11
-60.5197
 21
40.8211
  0
LINE
  8
0
 10
-60.5197
 20
40.8211
 11
-61.9075
 21
38.6841
  0
LINE
  8
0
 10
-61.9075
 20
38.6841
 11
-63.2199
 21
36.5
  0
LINE
  8
0
 10
-63.2199
 20
36.5
 11
-64.4552
 21
34.2714
  0
LINE
  8
0
 10
-64.4552
 20
34.2714
 11
-65.612
 21
32.0011
  0
LINE
  8
0
 10
-65.612
 20
32.0011
 11
-66.6888
 21
29.6918
  0
LINE
  8
0
 10
-66.6888
 20
29.6918
 11
-67.6844
 21
27.3463
  0
LINE
  8
0
 10
-67.6844
 20
27.3463
 11
-68.5976
 21
24.9675
  0
LINE
  8
0
 10
-68.5976
 20
24.9675
 11
-69.4271
 21
22.5582
  0
LINE
  8
0
 10
-69.4271
 20
22.5582
 11
-70.1721
 21
20.1215
  0
LINE
  8
0
 10
-70.1721
 20
20.1215
 11
-70.8316
 21
17.6603
  0
LINE
  8
0
 10
-70.8316
 20
17.6603
 11
-71.4048
 21
15.1776
  0
LINE
  8
0
 10
-71.4048
 20
15.1776
 11
-71.891
 21
12.6763
  0
LINE
  8
0
 10
-71.891
 20
12.6763
 11
-72.2896
 21
10.1596
  0
LINE
  8
0
 10
-72.2896
 20
10.1596
 11
-72.6001
 21
7.63058
  0
LINE
  8
0
 10
-72.6001
 20
7.63058
 11
-72.8222
 21
5.09222
  0
LINE
  8
0
 10
-72.8222
 20
5.09222
 11
-72.9555
 21
2.54766
  0
LINE
  8
0
 10
-72.9555
 20
2.54766
 11
-73
 21
0
  0
LINE
  8
0
 10
-34
 20
0
 11
-33.9793
 21
1.18658
  0
LINE
  8
0
 10
-33.9793
 20
1.18658
 11
-33.9172
 21
2.37172
  0
LINE
  8
0
 10
-33.9172
 20
2.37172
 11
-33.8137
 21
3.55397
  0
LINE
  8
0
 10
-33.8137
 20
3.55397
 11
-33.6691
 21
4.73188
  0
LINE
  8
0
 10
-33.6691
 20
4.73188
 11
-33.4835
 21
5.90404
  0
LINE
  8
0
 10
-33.4835
 20
5.90404
 11
-33.257
 21
7.069
  0
LINE
  8
0
 10
-33.257
 20
7.069
 11
-32.9901
 21
8.22534
  0
LINE
  8
0
 10
-32.9901
 20
8.22534
 11
-32.6829
 21
9.37167
  0
LINE
  8
0
 10
-32.6829
 20
9.37167
 11
-32.3359
 21
10.5066
  0
LINE
  8
0
 10
-32.3359
 20
10.5066
 11
-31.9495
 21
11.6287
  0
LINE
  8
0
 10
-31.9495
 20
11.6287
 11
-31.5243
 21
12.7366
  0
LINE
  8
0
 10
-31.5243
 20
12.7366
 11
-31.0605
 21
13.829
  0
LINE
  8
0
 10
-31.0605
 20
13.829
 11
-30.559
 21
14.9046
  0
LINE
  8
0
 10
-30.559
 20
14.9046
 11
-30.0202
 21
15.962
  0
LINE
  8
0
 10
-30.0202
 20
15.962
 11
-29.4449
 21
17
  0
LINE
  8
0
 10
-29.4449
 20
17
 11
-28.8336
 21
18.0173
  0
LINE
  8
0
 10
-28.8336
 20
18.0173
 11
-28.1873
 21
19.0126
  0
LINE
  8
0
 10
-28.1873
 20
19.0126
 11
-27.5066
 21
19.9847
  0
LINE
  8
0
 10
-27.5066
 20
19.9847
 11
-26.7924
 21
20.9325
  0
LINE
  8
0
 10
-26.7924
 20
20.9325
 11
-26.0455
 21
21.8548
  0
LINE
  8
0
 10
-26.0455
 20
21.8548
 11
-25.2669
 21
22.7504
  0
LINE
  8
0
 10
-25.2669
 20
22.7504
 11
-24.4576
 21
23.6184
  0
LINE
  8
0
 10
-24.4576
 20
23.6184
 11
-23.6184
 21
24.4576
  0
LINE
  8
0
 10
-23.6184
 20
24.4576
 11
-22.7504
 21
25.2669
  0
LINE
  8
0
 10
-22.7504
 20
25.2669
 11
-21.8548
 21
26.0455
  0
LINE
  8
0
 10
-21.8548
 20
26.0455
 11
-20.9325
 21
26.7924
  0
LINE
  8
0
 10
-20.9325
 20
26.7924
 11
-19.9847
 21
27.5066
  0
LINE
  8
0
 10
-19.9847
 20
27.5066
 11
-19.0126
 21
28.1873
  0
LINE
  8
0
 10
-19.0126
 20
28.1873
 11
-18.0173
 21
28.8336
  0
LINE
  8
0
 10
-18.0173
 20
28.8336
 11
-17
 21
29.4449
  0
LINE
  8
0
 10
-17
 20
29.4449
 11
-15.962
 21
30.0202
  0
LINE
  8
0
 10
-15.962
 20
30.0202
 11
-14.9046
 21
30.559
  0
LINE
  8
0
 10
-14.9046
 20
30.559
 11
-13.829
 21
31.0605
  0
LINE
  8
0
 10
-13.829
 20
31.0605
 11
-12.7366
 21
31.5243
  0
LINE
  8
0
 10
-12.7366
 20
31.5243
 11
-11.6287
 21
31.9495
  0
LINE
  8
0
 10
-11.6287
 20
31.9495
 11
-10.5066
 21
32.3359
  0
LINE
  8
0
 10
-10.5066
 20
32.3359
 11
-9.37167
 21
32.6829
  0
LINE
  8
0
 10
-9.37167
 20
32.6829
 11
-8.22534
 21
32.9901
  0
LINE
  8
0
 10
-8.22534
 20
32.9901
 11
-7.069
 21
33.257
  0
LINE
  8
0
 10
-7.069
 20
33.257
 11
-5.90404
 21
33.4835
  0
LINE
  8
0
 10
-5.90404
 20
33.4835
 11
-4.73188
 21
33.6691
  0
LINE
  8
0
 10
-4.73188
 20
33.6691
 11
-3.55397
 21
33.8137
  0
LINE
  8
0
 10
-3.55397
 20
33.8137
 11
-2.37172
 21
33.9172
  0
LINE
  8
0
 10
-2.37172
 20
33.9172
 11
-1.18658
 21
33.9793
  0
LINE
  8
0
 10
-1.18658
 20
33.9793
 11
0
 21
34
  0
LINE
  8
0
 10
0
 20
34
 11
1.18658
 21
33.9793
  0
LINE
  8
0
 10
1.18658
 20
33.9793
 11
2.37172
 21
33.9172
  0
LINE
  8
0
 10
2.37172
 20
33.9172
 11
3.55397
 21
33.8137
  0
LINE
  8
0
 10
3.55397
 20
33.8137
 11
4.73188
 21
33.6691
  0
LINE
  8
0
 10
4.73188
 20
33.6691
 11
5.90404
 21
33.4835
  0
LINE
  8
0
 10
5.90404
 20
33.4835
 11
7.069
 21
33.257
  0
LINE
  8
0
 10
7.069
 20
33.257
 11
8.22534
 21
32.9901
  0
LINE
  8
0
 10
8.22534
 20
32.9901
 11
9.37167
 21
32.6829
  0
LINE
  8
0
 10
9.37167
 20
32.6829
 11
10.5066
 21
32.3359
  0
LINE
  8
0
 10
10.5066
 20
32.3359
 11
11.6287
 21
31.9495
  0
LINE
  8
0
 10
11.6287
 20
31.9495
 11
12.7366
 21
31.5243
  0
LINE
  8
0
 10
12.7366
 20
31.5243
 11
13.829
 21
31.0605
  0
LINE
  8
0
 10
13.829
 20
31.0605
 11
14.9046
 21
30.559
  0
LINE
  8
0
 10
14.9046
 20
30.559
 11
15.962
 21
30.0202
  0
LINE
  8
0
 10
15.962
 20
30.0202
 11
17
 21
29.4449
  0
LINE
  8
0
 10
17
 20
29.4449
 11
18.0173
 21
28.8336
  0
LINE
  8
0
 10
18.0173
 20
28.8336
 11
19.0126
 21
28.1873
  0
LINE
  8
0
 10
19.0126
 20
28.1873
 11
19.9847
 21
27.5066
  0
LINE
  8
0
 10
19.9847
 20
27.5066
 11
20.9325
 21
26.7924
  0
LINE
  8
0
 10
20.9325
 20
26.7924
 11
21.8548
 21
26.0455
  0
LINE
  8
0
 10
21.8548
 20
26.0455
 11
22.7504
 21
25.2669
  0
LINE
  8
0
 10
22.7504
 20
25.2669
 11
23.6184
 21
24.4576
  0
LINE
  8
0
 10
23.6184
 20
24.4576
 11
24.4576
 21
23.6184
  0
LINE
  8
0
 10
24.4576
 20
23.6184
 11
25.2669
 21
22.7504
  0
LINE
  8
0
 10
25.2669
 20
22.7504
 11
26.0455
 21
21.8548
  0
LINE
  8
0
 10
26.0455
 20
21.8548
 11
26.7924
 21
20.9325
  0
LINE
  8
0
 10
26.7924
 20
20.9325
 11
27.5066
 21
19.9847
  0
LINE
  8
0
 10
27.5066
 20
19.9847
 11
28.1873
 21
19.0126
  0
LINE
  8
0
 10
28.1873
 20
19.0126
 11
28.8336
 21
18.0173
  0
LINE
  8
0
 10
28.8336
 20
18.0173
 11
29.4449
 21
17
  0
LINE
  8
0
 10
29.4449
 20
17
 11
30.0202
 21
15.962
  0
LINE
  8
0
 10
30.0202
 20
15.962
 11
30.559
 21
14.9046
  0
LINE
  8
0
 10
30.559
 20
14.9046
 11
31.0605
 21
13.829
  0
LINE
  8
0
 10
31.0605
 20
13.829
 11
31.5243
 21
12.7366
  0
LINE
  8
0
 10
31.5243
 20
12.7366
 11
31.9495
 21
11.6287
  0
LINE
  8
0
 10
31.9495
 20
11.6287
 11
32.3359
 21
10.5066
  0
LINE
  8
0
 10
32.3359
 20
10.5066
 11
32.6829
 21
9.37167
  0
LINE
  8
0
 10
32.6829
 20
9.37167
 11
32.9901
 21
8.22534
  0
LINE
  8
0
 10
32.9901
 20
8.22534
 11
33.257
 21
7.069
  0
LINE
  8
0
 10
33.257
 20
7.069
 11
33.4835
 21
5.90404
  0
LINE
  8
0
 10
33.4835
 20
5.90404
 11
33.6691
 21
4.73188
  0
LINE
  8
0
 10
33.6691
 20
4.73188
 11
33.8137
 21
3.55397
  0
LINE
  8
0
 10
33.8137
 20
3.55397
 11
33.9172
 21
2.37172
  0
LINE
  8
0
 10
33.9172
 20
2.37172
 11
33.9793
 21
1.18658
  0
LINE
  8
0
 10
33.9793
 20
1.18658
 11
34
 21
0
  0
LINE
  8
0
 10
34
 20
0
 11
33.9793
 21
-1.18658
  0
LINE
  8
0
 10
33.9793
 20
-1.18658
 11
33.9172
 21
-2.37172
  0
LINE
  8
0
 10
33.9172
 20
-2.37172
 11
33.8137
 21
-3.55397
  0
LINE
  8
0
 10
33.8137
 20
-3.55397
 11
33.6691
 21
-4.73188
  0
LINE
  8
0
 10
33.6691
 20
-4.73188
 11
33.4835
 21
-5.90404
  0
LINE
  8
0
 10
33.4835
 20
-5.90404
 11
33.257
 21
-7.069
  0
LINE
  8
0
 10
33.257
 20
-7.069
 11
32.9901
 21
-8.22534
  0
LINE
  8
0
 10
32.9901
 20
-8.22534
 11
32.6829
 21
-9.37167
  0
LINE
  8
0
 10
32.6829
 20
-9.37167
 11
32.3359
 21
-10.5066
  0
LINE
  8
0
 10
32.3359
 20
-10.5066
 11
31.9495
 21
-11.6287
  0
LINE
  8
0
 10
31.9495
 20
-11.6287
 11
31.5243
 21
-12.7366
  0
LINE
  8
0
 10
31.5243
 20
-12.7366
 11
31.0605
 21
-13.829
  0
LINE
  8
0
 10
31.0605
 20
-13.829
 11
30.559
 21
-14.9046
  0
LINE
  8
0
 10
30.559
 20
-14.9046
 11
30.0202
 21
-15.962
  0
LINE
  8
0
 10
30.0202
 20
-15.962
 11
29.4449
 21
-17
  0
LINE
  8
0
 10
29.4449
 20
-17
 11
28.8336
 21
-18.0173
  0
LINE
  8
0
 10
28.8336
 20
-18.0173
 11
28.1873
 21
-19.0126
  0
LINE
  8
0
 10
28.1873
 20
-19.0126
 11
27.5066
 21
-19.9847
  0
LINE
  8
0
 10
27.5066
 20
-19.9847
 11
26.7924
 21
-20.9325
  0
LINE
  8
0
 10
26.7924
 20
-20.9325
 11
26.0455
 21
-21.8548
  0
LINE
  8
0
 10
26.0455
 20
-21.8548
 11
25.2669
 21
-22.7504
  0
LINE
  8
0
 10
25.2669
 20
-22.7504
 11
24.4576
 21
-23.6184
  0
LINE
  8
0
 10
24.4576
 20
-23.6184
 11
23.6184
 21
-24.4576
  0
LINE
  8
0
 10
23.6184
 20
-24.4576
 11
22.7504
 21
-25.2669
  0
LINE
  8
0
 10
22.7504
 20
-25.2669
 11
21.8548
 21
-26.0455
  0
LINE
  8
0
 10
21.8548
 20
-26.0455
 11
20.9325
 21
-26.7924
  0
LINE
  8
0
 10
20.9325
 20
-26.7924
 11
19.9847
 21
-27.5066
  0
LINE
  8
0
 10
19.9847
 20
-27.5066
 11
19.0126
 21
-28.1873
  0
LINE
  8
0
 10
19.0126
 20
-28.1873
 11
18.0173
 21
-28.8336
  0
LINE
  8
0
 10
18.0173
 20
-28.8336
 11
17
 21
-29.4449
  0
LINE
  8
0
 10
17
 20
-29.4449
 11
15.962
 21
-30.0202
  0
LINE
  8
0
 10
15.962
 20
-30.0202
 11
14.9046
 21
-30.559
  0
LINE
  8
0
 10
14.9046
 20
-30.559
 11
13.829
 21
-31.0605
  0
LINE
  8
0
 10
13.829
 20
-31.0605
 11
12.7366
 21
-31.5243
  0
LINE
  8
0
 10
12.7366
 20
-31.5243
 11
11.6287
 21
-31.9495
  0
LINE
  8
0
 10
11.6287
 20
-31.9495
 11
10.5066
 21
-32.3359
  0
LINE
  8
0
 10
10.5066
 20
-32.3359
 11
9.37167
 21
-32.6829
  0
LINE
  8
0
 10
9.37167
 20
-32.6829
 11
8.22534
 21
-32.9901
  0
LINE
  8
0
 10
8.22534
 20
-32.9901
 11
7.069
 21
-33.257
  0
LINE
  8
0
 10
7.069
 20
-33.257
 11
5.90404
 21
-33.4835
  0
LINE
  8
0
 10
5.90404
 20
-33.4835
 11
4.73188
 21
-33.6691
  0
LINE
  8
0
 10
4.73188
 20
-33.6691
 11
3.55397
 21
-33.8137
  0
LINE
  8
0
 10
3.55397
 20
-33.8137
 11
2.37172
 21
-33.9172
  0
LINE
  8
0
 10
2.37172
 20
-33.9172
 11
1.18658
 21
-33.9793
  0
LINE
  8
0
 10
1.18658
 20
-33.9793
 11
0
 21
-34
  0
LINE
  8
0
 10
0
 20
-34
 11
-1.18658
 21
-33.9793
  0
LINE
  8
0
 10
-1.18658
 20
-33.9793
 11
-2.37172
 21
-33.9172
  0
LINE
  8
0
 10
-2.37172
 20
-33.9172
 11
-3.55397
 21
-33.8137
  0
LINE
  8
0
 10
-3.55397
 20
-33.8137
 11
-4.73188
 21
-33.6691
  0
LINE
  8
0
 10
-4.73188
 20
-33.6691
 11
-5.90404
 21
-33.4835
  0
LINE
  8
0
 10
-5.90404
 20
-33.4835
 11
-7.069
 21
-33.257
  0
LINE
  8
0
 10
-7.069
 20
-33.257
 11
-8.22534
 21
-32.9901
  0
LINE
  8
0
 10
-8.22534
 20
-32.9901
 11
-9.37167
 21
-32.6829
  0
LINE
  8
0
 10
-9.37167
 20
-32.6829
 11
-10.5066
 21
-32.3359
  0
LINE
  8
0
 10
-10.5066
 20
-32.3359
 11
-11.6287
 21
-31.9495
  0
LINE
  8
0
 10
-11.6287
 20
-31.9495
 11
-12.7366
 21
-31.5243
  0
LINE
  8
0
 10
-12.7366
 20
-31.5243
 11
-13.829
 21
-31.0605
  0
LINE
  8
0
 10
-13.829
 20
-31.0605
 11
-14.9046
 21
-30.559
  0
LINE
  8
0
 10
-14.9046
 20
-30.559
 11
-15.962
 21
-30.0202
  0
LINE
  8
0
 10
-15.962
 20
-30.0202
 11
-17
 21
-29.4449
  0
LINE
  8
0
 10
-17
 20
-29.4449
 11
-18.0173
 21
-28.8336
  0
LINE
  8
0
 10
-18.0173
 20
-28.8336
 11
-19.0126
 21
-28.1873
  0
LINE
  8
0
 10
-19.0126
 20
-28.1873
 11
-19.9847
 21
-27.5066
  0
LINE
  8
0
 10
-19.9847
 20
-27.5066
 11
-20.9325
 21
-26.7924
  0
LINE
  8
0
 10
-20.9325
 20
-26.7924
 11
-21.8548
 21
-26.0455
  0
LINE
  8
0
 10
-21.8548
 20
-26.0455
 11
-22.7504
 21
-25.2669
  0
LINE
  8
0
 10
-22.7504
 20
-25.2669
 11
-23.6184
 21
-24.4576
  0
LINE
  8
0
 10
-23.6184
 20
-24.4576
 11
-24.4576
 21
-23.6184
  0
LINE
  8
0
 10
-24.4576
 20
-23.6184
 11
-25.2669
 21
-22.7504
  0
LINE
  8
0
 10
-25.2669
 20
-22.7504
 11
-26.0455
 21
-21.8548
  0
LINE
  8
0
 10
-26.0455
 20
-21.8548
 11
-26.7924
 21
-20.9325
  0
LINE
  8
0
 10
-26.7924
 20
-20.9325
 11
-27.5066
 21
-19.9847
  0
LINE
  8
0
 10
-27.5066
 20
-19.9847
 11
-28.1873
 21
-19.0126
  0
LINE
  8
0
 10
-28.1873
 20
-19.0126
 11
-28.8336
 21
-18.0173
  0
LINE
  8
0
 10
-28.8336
 20
-18.0173
 11
-29.4449
 21
-17
  0
LINE
  8
0
 10
-29.4449
 20
-17
 11
-30.0202
 21
-15.962
  0
LINE
  8
0
 10
-30.0202
 20
-15.962
 11
-30.559
 21
-14.9046
  0
LINE
  8
0
 10
-30.559
 20
-14.9046
 11
-31.0605
 21
-13.829
  0
LINE
  8
0
 10
-31.0605
 20
-13.829
 11
-31.5243
 21
-12.7366
  0
LINE
  8
0
 10
-31.5243
 20
-12.7366
 11
-31.9495
 21
-11.6287
  0
LINE
  8
0
 10
-31.9495
 20
-11.6287
 11
-32.3359
 21
-10.5066
  0
LINE
  8
0
 10
-32.3359
 20
-10.5066
 11
-32.6829
 21
-9.37167
  0
LINE
  8
0
 10
-32.6829
 20
-9.37167
 11
-32.9901
 21
-8.22534
  0
LINE
  8
0
 10
-32.9901
 20
-8.22534
 11
-33.257
 21
-7.069
  0
LINE
  8
0
 10
-33.257
 20
-7.069
 11
-33.4835
 21
-5.90404
  0
LINE
  8
0
 10
-33.4835
 20
-5.90404
 11
-33.6691
 21
-4.73188
  0
LINE
  8
0
 10
-33.6691
 20
-4.73188
 11
-33.8137
 21
-3.55397
  0
LINE
  8
0
 10
-33.8137
 20
-3.55397
 11
-33.9172
 21
-2.37172
  0
LINE
  8
0
 10
-33.9172
 20
-2.37172
 11
-33.9793
 21
-1.18658
  0
LINE
  8
0
 10
-33.9793
 20
-1.18658
 11
-34
 21
0
  0
LINE
  8
0
 10
-30
 20
0
 11
-29.9817
 21
-1.04698
  0
LINE
  8
0
 10
-29.9817
 20
-1.04698
 11
-29.9269
 21
-2.09269
  0
LINE
  8
0
 10
-29.9269
 20
-2.09269
 11
-29.8357
 21
-3.13585
  0
LINE
  8
0
 10
-29.8357
 20
-3.13585
 11
-29.708
 21
-4.17519
  0
LINE
  8
0
 10
-29.708
 20
-4.17519
 11
-29.5442
 21
-5.20944
  0
LINE
  8
0
 10
-29.5442
 20
-5.20944
 11
-29.3444
 21
-6.23735
  0
LINE
  8
0
 10
-29.3444
 20
-6.23735
 11
-29.1089
 21
-7.25766
  0
LINE
  8
0
 10
-29.1089
 20
-7.25766
 11
-28.8379
 21
-8.26912
  0
LINE
  8
0
 10
-28.8379
 20
-8.26912
 11
-28.5317
 21
-9.27051
  0
LINE
  8
0
 10
-28.5317
 20
-9.27051
 11
-28.1908
 21
-10.2606
  0
LINE
  8
0
 10
-28.1908
 20
-10.2606
 11
-27.8155
 21
-11.2382
  0
LINE
  8
0
 10
-27.8155
 20
-11.2382
 11
-27.4064
 21
-12.2021
  0
LINE
  8
0
 10
-27.4064
 20
-12.2021
 11
-26.9638
 21
-13.1511
  0
LINE
  8
0
 10
-26.9638
 20
-13.1511
 11
-26.4884
 21
-14.0841
  0
LINE
  8
0
 10
-26.4884
 20
-14.0841
 11
-25.9808
 21
-15
  0
LINE
  8
0
 10
-25.9808
 20
-15
 11
-25.4414
 21
-15.8976
  0
LINE
  8
0
 10
-25.4414
 20
-15.8976
 11
-24.8711
 21
-16.7758
  0
LINE
  8
0
 10
-24.8711
 20
-16.7758
 11
-24.2705
 21
-17.6336
  0
LINE
  8
0
 10
-24.2705
 20
-17.6336
 11
-23.6403
 21
-18.4698
  0
LINE
  8
0
 10
-23.6403
 20
-18.4698
 11
-22.9813
 21
-19.2836
  0
LINE
  8
0
 10
-22.9813
 20
-19.2836
 11
-22.2943
 21
-20.0739
  0
LINE
  8
0
 10
-22.2943
 20
-20.0739
 11
-21.5802
 21
-20.8398
  0
LINE
  8
0
 10
-21.5802
 20
-20.8398
 11
-20.8398
 21
-21.5802
  0
LINE
  8
0
 10
-20.8398
 20
-21.5802
 11
-20.0739
 21
-22.2943
  0
LINE
  8
0
 10
-20.0739
 20
-22.2943
 11
-19.2836
 21
-22.9813
  0
LINE
  8
0
 10
-19.2836
 20
-22.9813
 11
-18.4698
 21
-23.6403
  0
LINE
  8
0
 10
-18.4698
 20
-23.6403
 11
-17.6336
 21
-24.2705
  0
LINE
  8
0
 10
-17.6336
 20
-24.2705
 11
-16.7758
 21
-24.8711
  0
LINE
  8
0
 10
-16.7758
 20
-24.8711
 11
-15.8976
 21
-25.4414
  0
LINE
  8
0
 10
-15.8976
 20
-25.4414
 11
-15
 21
-25.9808
  0
LINE
  8
0
 10
-15
 20
-25.9808
 11
-14.0841
 21
-26.4884
  0
LINE
  8
0
 10
-14.0841
 20
-26.4884
 11
-13.1511
 21
-26.9638
  0
LINE
  8
0
 10
-13.1511
 20
-26.9638
 11
-12.2021
 21
-27.4064
  0
LINE
  8
0
 10
-12.2021
 20
-27.4064
 11
-11.2382
 21
-27.8155
  0
LINE
  8
0
 10
-11.2382
 20
-27.8155
 11
-10.2606
 21
-28.1908
  0
LINE
  8
0
 10
-10.2606
 20
-28.1908
 11
-9.27051
 21
-28.5317
  0
LINE
  8
0
 10
-9.27051
 20
-28.5317
 11
-8.26912
 21
-28.8379
  0
LINE
  8
0
 10
-8.26912
 20
-28.8379
 11
-7.25766
 21
-29.1089
  0
LINE
  8
0
 10
-7.25766
 20
-29.1089
 11
-6.23735
 21
-29.3444
  0
LINE
  8
0
 10
-6.23735
 20
-29.3444
 11
-5.20944
 21
-29.5442
  0
LINE
  8
0
 10
-5.20944
 20
-29.5442
 11
-4.17519
 21
-29.708
  0
LINE
  8
0
 10
-4.17519
 20
-29.708
 11
-3.13585
 21
-29.8357
  0
LINE
  8
0
 10
-3.13585
 20
-29.8357
 11
-2.09269
 21
-29.9269
  0
LINE
  8
0
 10
-2.09269
 20
-29.9269
 11
-1.04698
 21
-29.9817
  0
LINE
  8
0
 10
-1.04698
 20
-29.9817
 11
0
 21
-30
  0
LINE
  8
0
 10
0
 20
-30
 11
1.04698
 21
-29.9817
  0
LINE
  8
0
 10
1.04698
 20
-29.9817
 11
2.09269
 21
-29.9269
  0
LINE
  8
0
 10
2.09269
 20
-29.9269
 11
3.13585
 21
-29.8357
  0
LINE
  8
0
 10
3.13585
 20
-29.8357
 11
4.17519
 21
-29.708
  0
LINE
  8
0
 10
4.17519
 20
-29.708
 11
5.20944
 21
-29.5442
  0
LINE
  8
0
 10
5.20944
 20
-29.5442
 11
6.23735
 21
-29.3444
  0
LINE
  8
0
 10
6.23735
 20
-29.3444
 11
7.25766
 21
-29.1089
  0
LINE
  8
0
 10
7.25766
 20
-29.1089
 11
8.26912
 21
-28.8379
  0
LINE
  8
0
 10
8.26912
 20
-28.8379
 11
9.27051
 21
-28.5317
  0
LINE
  8
0
 10
9.27051
 20
-28.5317
 11
10.2606
 21
-28.1908
  0
LINE
  8
0
 10
10.2606
 20
-28.1908
 11
11.2382
 21
-27.8155
  0
LINE
  8
0
 10
11.2382
 20
-27.8155
 11
12.2021
 21
-27.4064
  0
LINE
  8
0
 10
12.2021
 20
-27.4064
 11
13.1511
 21
-26.9638
  0
LINE
  8
0
 10
13.1511
 20
-26.9638
 11
14.0841
 21
-26.4884
  0
LINE
  8
0
 10
14.0841
 20
-26.4884
 11
15
 21
-25.9808
  0
LINE
  8
0
 10
15
 20
-25.9808
 11
15.8976
 21
-25.4414
  0
LINE
  8
0
 10
15.8976
 20
-25.4414
 11
16.7758
 21
-24.8711
  0
LINE
  8
0
 10
16.7758
 20
-24.8711
 11
17.6336
 21
-24.2705
  0
LINE
  8
0
 10
17.6336
 20
-24.2705
 11
18.4698
 21
-23.6403
  0
LINE
  8
0
 10
18.4698
 20
-23.6403
 11
19.2836
 21
-22.9813
  0
LINE
  8
0
 10
19.2836
 20
-22.9813
 11
20.0739
 21
-22.2943
  0
LINE
  8
0
 10
20.0739
 20
-22.2943
 11
20.8398
 21
-21.5802
  0
LINE
  8
0
 10
20.8398
 20
-21.5802
 11
21.5802
 21
-20.8398
  0
LINE
  8
0
 10
21.5802
 20
-20.8398
 11
22.2943
 21
-20.0739
  0
LINE
  8
0
 10
22.2943
 20
-20.0739
 11
22.9813
 21
-19.2836
  0
LINE
  8
0
 10
22.9813
 20
-19.2836
 11
23.6403
 21
-18.4698
  0
LINE
  8
0
 10
23.6403
 20
-18.4698
 11
24.2705
 21
-17.6336
  0
LINE
  8
0
 10
24.2705
 20
-17.6336
 11
24.8711
 21
-16.7758
  0
LINE
  8
0
 10
24.8711
 20
-16.7758
 11
25.4414
 21
-15.8976
  0
LINE
  8
0
 10
25.4414
 20
-15.8976
 11
25.9808
 21
-15
  0
LINE
  8
0
 10
25.9808
 20
-15
 11
26.4884
 21
-14.0841
  0
LINE
  8
0
 10
26.4884
 20
-14.0841
 11
26.9638
 21
-13.1511
  0
LINE
  8
0
 10
26.9638
 20
-13.1511
 11
27.4064
 21
-12.2021
  0
LINE
  8
0
 10
27.4064
 20
-12.2021
 11
27.8155
 21
-11.2382
  0
LINE
  8
0
 10
27.8155
 20
-11.2382
 11
28.1908
 21
-10.2606
  0
LINE
  8
0
 10
28.1908
 20
-10.2606
 11
28.5317
 21
-9.27051
  0
LINE
  8
0
 10
28.5317
 20
-9.27051
 11
28.8379
 21
-8.26912
  0
LINE
  8
0
 10
28.8379
 20
-8.26912
 11
29.1089
 21
-7.25766
  0
LINE
  8
0
 10
29.1089
 20
-7.25766
 11
29.3444
 21
-6.23735
  0
LINE
  8
0
 10
29.3444
 20
-6.23735
 11
29.5442
 21
-5.20944
  0
LINE
  8
0
 10
29.5442
 20
-5.20944
 11
29.708
 21
-4.17519
  0
LINE
  8
0
 10
29.708
 20
-4.17519
 11
29.8357
 21
-3.13585
  0
LINE
  8
0
 10
29.8357
 20
-3.13585
 11
29.9269
 21
-2.09269
  0
LINE
  8
0
 10
29.9269
 20
-2.09269
 11
29.9817
 21
-1.04698
  0
LINE
  8
0
 10
29.9817
 20
-1.04698
 11
30
 21
0
  0
LINE
  8
0
 10
30
 20
0
 11
29.9817
 21
1.04698
  0
LINE
  8
0
 10
29.9817
 20
1.04698
 11
29.9269
 21
2.09269
  0
LINE
  8
0
 10
29.9269
 20
2.09269
 11
29.8357
 21
3.13585
  0
LINE
  8
0
 10
29.8357
 20
3.13585
 11
29.708
 21
4.17519
  0
LINE
  8
0
 10
29.708
 20
4.17519
 11
29.5442
 21
5.20944
  0
LINE
  8
0
 10
29.5442
 20
5.20944
 11
29.3444
 21
6.23735
  0
LINE
  8
0
 10
29.3444
 20
6.23735
 11
29.1089
 21
7.25766
  0
LINE
  8
0
 10
29.1089
 20
7.25766
 11
28.8379
 21
8.26912
  0
LINE
  8
0
 10
28.8379
 20
8.26912
 11
28.5317
 21
9.27051
  0
LINE
  8
0
 10
28.5317
 20
9.27051
 11
28.1908
 21
10.2606
  0
LINE
  8
0
 10
28.1908
 20
10.2606
 11
27.8155
 21
11.2382
  0
LINE
  8
0
 10
27.8155
 20
11.2382
 11
27.4064
 21
12.2021
  0
LINE
  8
0
 10
27.4064
 20
12.2021
 11
26.9638
 21
13.1511
  0
LINE
  8
0
 10
26.9638
 20
13.1511
 11
26.4884
 21
14.0841
  0
LINE
  8
0
 10
26.4884
 20
14.0841
 11
25.9808
 21
15
  0
LINE
  8
0
 10
25.9808
 20
15
 11
25.4414
 21
15.8976
  0
LINE
  8
0
 10
25.4414
 20
15.8976
 11
24.8711
 21
16.7758
  0
LINE
  8
0
 10
24.8711
 20
16.7758
 11
24.2705
 21
17.6336
  0
LINE
  8
0
 10
24.2705
 20
17.6336
 11
23.6403
 21
18.4698
  0
LINE
  8
0
 10
23.6403
 20
18.4698
 11
22.9813
 21
19.2836
  0
LINE
  8
0
 10
22.9813
 20
19.2836
 11
22.2943
 21
20.0739
  0
LINE
  8
0
 10
22.2943
 20
20.0739
 11
21.5802
 21
20.8398
  0
LINE
  8
0
 10
21.5802
 20
20.8398
 11
20.8398
 21
21.5802
  0
LINE
  8
0
 10
20.8398
 20
21.5802
 11
20.0739
 21
22.2943
  0
LINE
  8
0
 10
20.0739
 20
22.2943
 11
19.2836
 21
22.9813
  0
LINE
  8
0
 10
19.2836
 20
22.9813
 11
18.4698
 21
23.6403
  0
LINE
  8
0
 10
18.4698
 20
23.6403
 11
17.6336
 21
24.2705
  0
LINE
  8
0
 10
17.6336
 20
24.2705
 11
16.7758
 21
24.8711
  0
LINE
  8
0
 10
16.7758
 20
24.8711
 11
15.8976
 21
25.4414
  0
LINE
  8
0
 10
15.8976
 20
25.4414
 11
15
 21
25.9808
  0
LINE
  8
0
 10
15
 20
25.9808
 11
14.0841
 21
26.4884
  0
LINE
  8
0
 10
14.0841
 20
26.4884
 11
13.1511
 21
26.9638
  0
LINE
  8
0
 10
13.1511
 20
26.9638
 11
12.2021
 21
27.4064
  0
LINE
  8
0
 10
12.2021
 20
27.4064
 11
11.2382
 21
27.8155
  0
LINE
  8
0
 10
11.2382
 20
27.8155
 11
10.2606
 21
28.1908
  0
LINE
  8
0
 10
10.2606
 20
28.1908
 11
9.27051
 21
28.5317
  0
LINE
  8
0
 10
9.27051
 20
28.5317
 11
8.26912
 21
28.8379
  0
LINE
  8
0
 10
8.26912
 20
28.8379
 11
7.25766
 21
29.1089
  0
LINE
  8
0
 10
7.25766
 20
29.1089
 11
6.23735
 21
29.3444
  0
LINE
  8
0
 10
6.23735
 20
29.3444
 11
5.20944
 21
29.5442
  0
LINE
  8
0
 10
5.20944
 20
29.5442
 11
4.17519
 21
29.708
  0
LINE
  8
0
 10
4.17519
 20
29.708
 11
3.13585
 21
29.8357
  0
LINE
  8
0
 10
3.13585
 20
29.8357
 11
2.09269
 21
29.9269
  0
LINE
  8
0
 10
2.09269
 20
29.9269
 11
1.04698
 21
29.9817
  0
LINE
  8
0
 10
1.04698
 20
29.9817
 11
0
 21
30
  0
LINE
  8
0
 10
0
 20
30
 11
-1.04698
 21
29.9817
  0
LINE
  8
0
 10
-1.04698
 20
29.9817
 11
-2.09269
 21
29.9269
  0
LINE
  8
0
 10
-2.09269
 20
29.9269
 11
-3.13585
 21
29.8357
  0
LINE
  8
0
 10
-3.13585
 20
29.8357
 11
-4.17519
 21
29.708
  0
LINE
  8
0
 10
-4.17519
 20
29.708
 11
-5.20944
 21
29.5442
  0
LINE
  8
0
 10
-5.20944
 20
29.5442
 11
-6.23735
 21
29.3444
  0
LINE
  8
0
 10
-6.23735
 20
29.3444
 11
-7.25766
 21
29.1089
  0
LINE
  8
0
 10
-7.25766
 20
29.1089
 11
-8.26912
 21
28.8379
  0
LINE
  8
0
 10
-8.26912
 20
28.8379
 11
-9.27051
 21
28.5317
  0
LINE
  8
0
 10
-9.27051
 20
28.5317
 11
-10.2606
 21
28.1908
  0
LINE
  8
0
 10
-10.2606
 20
28.1908
 11
-11.2382
 21
27.8155
  0
LINE
  8
0
 10
-11.2382
 20
27.8155
 11
-12.2021
 21
27.4064
  0
LINE
  8
0
 10
-12.2021
 20
27.4064
 11
-13.1511
 21
26.9638
  0
LINE
  8
0
 10
-13.1511
 20
26.9638
 11
-14.0841
 21
26.4884
  0
LINE
  8
0
 10
-14.0841
 20
26.4884
 11
-15
 21
25.9808
  0
LINE
  8
0
 10
-15
 20
25.9808
 11
-15.8976
 21
25.4414
  0
LINE
  8
0
 10
-15.8976
 20
25.4414
 11
-16.7758
 21
24.8711
  0
LINE
  8
0
 10
-16.7758
 20
24.8711
 11
-17.6336
 21
24.2705
  0
LINE
  8
0
 10
-17.6336
 20
24.2705
 11
-18.4698
 21
23.6403
  0
LINE
  8
0
 10
-18.4698
 20
23.6403
 11
-19.2836
 21
22.9813
  0
LINE
  8
0
 10
-19.2836
 20
22.9813
 11
-20.0739
 21
22.2943
  0
LINE
  8
0
 10
-20.0739
 20
22.2943
 11
-20.8398
 21
21.5802
  0
LINE
  8
0
 10
-20.8398
 20
21.5802
 11
-21.5802
 21
20.8398
  0
LINE
  8
0
 10
-21.5802
 20
20.8398
 11
-22.2943
 21
20.0739
  0
LINE
  8
0
 10
-22.2943
 20
20.0739
 11
-22.9813
 21
19.2836
  0
LINE
  8
0
 10
-22.9813
 20
19.2836
 11
-23.6403
 21
18.4698
  0
LINE
  8
0
 10
-23.6403
 20
18.4698
 11
-24.2705
 21
17.6336
  0
LINE
  8
0
 10
-24.2705
 20
17.6336
 11
-24.8711
 21
16.7758
  0
LINE
  8
0
 10
-24.8711
 20
16.7758
 11
-25.4414
 21
15.8976
  0
LINE
  8
0
 10
-25.4414
 20
15.8976
 11
-25.9808
 21
15
  0
LINE
  8
0
 10
-25.9808
 20
15
 11
-26.4884
 21
14.0841
  0
LINE
  8
0
 10
-26.4884
 20
14.0841
 11
-26.9638
 21
13.1511
  0
LINE
  8
0
 10
-26.9638
 20
13.1511
 11
-27.4064
 21
12.2021
  0
LINE
  8
0
 10
-27.4064
 20
12.2021
 11
-27.8155
 21
11.2382
  0
LINE
  8
0
 10
-27.8155
 20
11.2382
 11
-28.1908
 21
10.2606
  0
LINE
  8
0
 10
-28.1908
 20
10.2606
 11
-28.5317
 21
9.27051
  0
LINE
  8
0
 10
-28.5317
 20
9.27051
 11
-28.8379
 21
8.26912
  0
LINE
  8
0
 10
-28.8379
 20
8.26912
 11
-29.1089
 21
7.25766
  0
LINE
  8
0
 10
-29.1089
 20
7.25766
 11
-29.3444
 21
6.23735
  0
LINE
  8
0
 10
-29.3444
 20
6.23735
 11
-29.5442
 21
5.20944
  0
LINE
  8
0
 10
-29.5442
 20
5.20944
 11
-29.708
 21
4.17519
  0
LINE
  8
0
 10
-29.708
 20
4.17519
 11
-29.8357
 21
3.13585
  0
LINE
  8
0
 10
-29.8357
 20
3.13585
 11
-29.9269
 21
2.09269
  0
LINE
  8
0
 10
-29.9269
 20
2.09269
 11
-29.9817
 21
1.04698
  0
LINE
  8
0
 10
-29.9817
 20
1.04698
 11
-30
 21
0
  0
LINE
  8
0
 10
-22.5
 20
0
 11
-22.4863
 21
0.785238
  0
LINE
  8
0
 10
-22.4863
 20
0.785238
 11
-22.4452
 21
1.56952
  0
LINE
  8
0
 10
-22.4452
 20
1.56952
 11
-22.3767
 21
2.35189
  0
LINE
  8
0
 10
-22.3767
 20
2.35189
 11
-22.281
 21
3.13139
  0
LINE
  8
0
 10
-22.281
 20
3.13139
 11
-22.1582
 21
3.90708
  0
LINE
  8
0
 10
-22.1582
 20
3.90708
 11
-22.0083
 21
4.67801
  0
LINE
  8
0
 10
-22.0083
 20
4.67801
 11
-21.8317
 21
5.44324
  0
LINE
  8
0
 10
-21.8317
 20
5.44324
 11
-21.6284
 21
6.20184
  0
LINE
  8
0
 10
-21.6284
 20
6.20184
 11
-21.3988
 21
6.95288
  0
LINE
  8
0
 10
-21.3988
 20
6.95288
 11
-21.1431
 21
7.69545
  0
LINE
  8
0
 10
-21.1431
 20
7.69545
 11
-20.8616
 21
8.42865
  0
LINE
  8
0
 10
-20.8616
 20
8.42865
 11
-20.5548
 21
9.15157
  0
LINE
  8
0
 10
-20.5548
 20
9.15157
 11
-20.2229
 21
9.86335
  0
LINE
  8
0
 10
-20.2229
 20
9.86335
 11
-19.8663
 21
10.5631
  0
LINE
  8
0
 10
-19.8663
 20
10.5631
 11
-19.4856
 21
11.25
  0
LINE
  8
0
 10
-19.4856
 20
11.25
 11
-19.0811
 21
11.9232
  0
LINE
  8
0
 10
-19.0811
 20
11.9232
 11
-18.6533
 21
12.5818
  0
LINE
  8
0
 10
-18.6533
 20
12.5818
 11
-18.2029
 21
13.2252
  0
LINE
  8
0
 10
-18.2029
 20
13.2252
 11
-17.7302
 21
13.8524
  0
LINE
  8
0
 10
-17.7302
 20
13.8524
 11
-17.236
 21
14.4627
  0
LINE
  8
0
 10
-17.236
 20
14.4627
 11
-16.7208
 21
15.0554
  0
LINE
  8
0
 10
-16.7208
 20
15.0554
 11
-16.1851
 21
15.6298
  0
LINE
  8
0
 10
-16.1851
 20
15.6298
 11
-15.6298
 21
16.1851
  0
LINE
  8
0
 10
-15.6298
 20
16.1851
 11
-15.0554
 21
16.7208
  0
LINE
  8
0
 10
-15.0554
 20
16.7208
 11
-14.4627
 21
17.236
  0
LINE
  8
0
 10
-14.4627
 20
17.236
 11
-13.8524
 21
17.7302
  0
LINE
  8
0
 10
-13.8524
 20
17.7302
 11
-13.2252
 21
18.2029
  0
LINE
  8
0
 10
-13.2252
 20
18.2029
 11
-12.5818
 21
18.6533
  0
LINE
  8
0
 10
-12.5818
 20
18.6533
 11
-11.9232
 21
19.0811
  0
LINE
  8
0
 10
-11.9232
 20
19.0811
 11
-11.25
 21
19.4856
  0
LINE
  8
0
 10
-11.25
 20
19.4856
 11
-10.5631
 21
19.8663
  0
LINE
  8
0
 10
-10.5631
 20
19.8663
 11
-9.86335
 21
20.2229
  0
LINE
  8
0
 10
-9.86335
 20
20.2229
 11
-9.15157
 21
20.5548
  0
LINE
  8
0
 10
-9.15157
 20
20.5548
 11
-8.42865
 21
20.8616
  0
LINE
  8
0
 10
-8.42865
 20
20.8616
 11
-7.69545
 21
21.1431
  0
LINE
  8
0
 10
-7.69545
 20
21.1431
 11
-6.95288
 21
21.3988
  0
LINE
  8
0
 10
-6.95288
 20
21.3988
 11
-6.20184
 21
21.6284
  0
LINE
  8
0
 10
-6.20184
 20
21.6284
 11
-5.44324
 21
21.8317
  0
LINE
  8
0
 10
-5.44324
 20
21.8317
 11
-4.67801
 21
22.0083
  0
LINE
  8
0
 10
-4.67801
 20
22.0083
 11
-3.90708
 21
22.1582
  0
LINE
  8
0
 10
-3.90708
 20
22.1582
 11
-3.13139
 21
22.281
  0
LINE
  8
0
 10
-3.13139
 20
22.281
 11
-2.35189
 21
22.3767
  0
LINE
  8
0
 10
-2.35189
 20
22.3767
 11
-1.56952
 21
22.4452
  0
LINE
  8
0
 10
-1.56952
 20
22.4452
 11
-0.785238
 21
22.4863
  0
LINE
  8
0
 10
-0.785238
 20
22.4863
 11
0
 21
22.5
  0
LINE
  8
0
 10
0
 20
22.5
 11
0.785238
 21
22.4863
  0
LINE
  8
0
 10
0.785238
 20
22.4863
 11
1.56952
 21
22.4452
  0
LINE
  8
0
 10
1.56952
 20
22.4452
 11
2.35189
 21
22.3767
  0
LINE
  8
0
 10
2.35189
 20
22.3767
 11
3.13139
 21
22.281
  0
LINE
  8
0
 10
3.13139
 20
22.281
 11
3.90708
 21
22.1582
  0
LINE
  8
0
 10
3.90708
 20
22.1582
 11
4.67801
 21
22.0083
  0
LINE
  8
0
 10
4.67801
 20
22.0083
 11
5.44324
 21
21.8317
  0
LINE
  8
0
 10
5.44324
 20
21.8317
 11
6.20184
 21
21.6284
  0
LINE
  8
0
 10
6.20184
 20
21.6284
 11
6.95288
 21
21.3988
  0
LINE
  8
0
 10
6.95288
 20
21.3988
 11
7.69545
 21
21.1431
  0
LINE
  8
0
 10
7.69545
 20
21.1431
 11
8.42865
 21
20.8616
  0
LINE
  8
0
 10
8.42865
 20
20.8616
 11
9.15157
 21
20.5548
  0
LINE
  8
0
 10
9.15157
 20
20.5548
 11
9.86335
 21
20.2229
  0
LINE
  8
0
 10
9.86335
 20
20.2229
 11
10.5631
 21
19.8663
  0
LINE
  8
0
 10
10.5631
 20
19.8663
 11
11.25
 21
19.4856
  0
LINE
  8
0
 10
11.25
 20
19.4856
 11
11.9232
 21
19.0811
  0
LINE
  8
0
 10
11.9232
 20
19.0811
 11
12.5818
 21
18.6533
  0
LINE
  8
0
 10
12.5818
 20
18.6533
 11
13.2252
 21
18.2029
  0
LINE
  8
0
 10
13.2252
 20
18.2029
 11
13.8524
 21
17.7302
  0
LINE
  8
0
 10
13.8524
 20
17.7302
 11
14.4627
 21
17.236
  0
LINE
  8
0
 10
14.4627
 20
17.236
 11
15.0554
 21
16.7208
  0
LINE
  8
0
 10
15.0554
 20
16.7208
 11
15.6298
 21
16.1851
  0
LINE
  8
0
 10
15.6298
 20
16.1851
 11
16.1851
 21
15.6298
  0
LINE
  8
0
 10
16.1851
 20
15.6298
 11
16.7208
 21
15.0554
  0
LINE
  8
0
 10
16.7208
 20
15.0554
 11
17.236
 21
14.4627
  0
LINE
  8
0
 10
17.236
 20
14.4627
 11
17.7302
 21
13.8524
  0
LINE
  8
0
 10
17.7302
 20
13.8524
 11
18.2029
 21
13.2252
  0
LINE
  8
0
 10
18.2029
 20
13.2252
 11
18.6533
 21
12.5818
  0
LINE
  8
0
 10
18.6533
 20
12.5818
 11
19.0811
 21
11.9232
  0
LINE
  8
0
 10
19.0811
 20
11.9232
 11
19.4856
 21
11.25
  0
LINE
  8
0
 10
19.4856
 20
11.25
 11
19.8663
 21
10.5631
  0
LINE
  8
0
 10
19.8663
 20
10.5631
 11
20.2229
 21
9.86335
  0
LINE
  8
0
 10
20.2229
 20
9.86335
 11
20.5548
 21
9.15157
  0
LINE
  8
0
 10
20.5548
 20
9.15157
 11
20.8616
 21
8.42865
  0
LINE
  8
0
 10
20.8616
 20
8.42865
 11
21.1431
 21
7.69545
  0
LINE
  8
0
 10
21.1431
 20
7.69545
 11
21.3988
 21
6.95288
  0
LINE
  8
0
 10
21.3988
 20
6.95288
 11
21.6284
 21
6.20184
  0
LINE
  8
0
 10
21.6284
 20
6.20184
 11
21.8317
 21
5.44324
  0
LINE
  8
0
 10
21.8317
 20
5.44324
 11
22.0083
 21
4.67801
  0
LINE
  8
0
 10
22.0083
 20
4.67801
 11
22.1582
 21
3.90708
  0
LINE
  8
0
 10
22.1582
 20
3.90708
 11
22.281
 21
3.13139
  0
LINE
  8
0
 10
22.281
 20
3.13139
 11
22.3767
 21
2.35189
  0
LINE
  8
0
 10
22.3767
 20
2.35189
 11
22.4452
 21
1.56952
  0
LINE
  8
0
 10
22.4452
 20
1.56952
 11
22.4863
 21
0.785238
  0
LINE
  8
0
 10
22.4863
 20
0.785238
 11
22.5
 21
0
  0
LINE
  8
0
 10
22.5
 20
0
 11
22.4863
 21
-0.785238
  0
LINE
  8
0
 10
22.4863
 20
-0.785238
 11
22.4452
 21
-1.56952
  0
LINE
  8
0
 10
22.4452
 20
-1.56952
 11
22.3767
 21
-2.35189
  0
LINE
  8
0
 10
22.3767
 20
-2.35189
 11
22.281
 21
-3.13139
  0
LINE
  8
0
 10
22.281
 20
-3.13139
 11
22.1582
 21
-3.90708
  0
LINE
  8
0
 10
22.1582
 20
-3.90708
 11
22.0083
 21
-4.67801
  0
LINE
  8
0
 10
22.0083
 20
-4.67801
 11
21.8317
 21
-5.44324
  0
LINE
  8
0
 10
21.8317
 20
-5.44324
 11
21.6284
 21
-6.20184
  0
LINE
  8
0
 10
21.6284
 20
-6.20184
 11
21.3988
 21
-6.95288
  0
LINE
  8
0
 10
21.3988
 20
-6.95288
 11
21.1431
 21
-7.69545
  0
LINE
  8
0
 10
21.1431
 20
-7.69545
 11
20.8616
 21
-8.42865
  0
LINE
  8
0
 10
20.8616
 20
-8.42865
 11
20.5548
 21
-9.15157
  0
LINE
  8
0
 10
20.5548
 20
-9.15157
 11
20.2229
 21
-9.86335
  0
LINE
  8
0
 10
20.2229
 20
-9.86335
 11
19.8663
 21
-10.5631
  0
LINE
  8
0
 10
19.8663
 20
-10.5631
 11
19.4856
 21
-11.25
  0
LINE
  8
0
 10
19.4856
 20
-11.25
 11
19.0811
 21
-11.9232
  0
LINE
  8
0
 10
19.0811
 20
-11.9232
 11
18.6533
 21
-12.5818
  0
LINE
  8
0
 10
18.6533
 20
-12.5818
 11
18.2029
 21
-13.2252
  0
LINE
  8
0
 10
18.2029
 20
-13.2252
 11
17.7302
 21
-13.8524
  0
LINE
  8
0
 10
17.7302
 20
-13.8524
 11
17.236
 21
-14.4627
  0
LINE
  8
0
 10
17.236
 20
-14.4627
 11
16.7208
 21
-15.0554
  0
LINE
  8
0
 10
16.7208
 20
-15.0554
 11
16.1851
 21
-15.6298
  0
LINE
  8
0
 10
16.1851
 20
-15.6298
 11
15.6298
 21
-16.1851
  0
LINE
  8
0
 10
15.6298
 20
-16.1851
 11
15.0554
 21
-16.7208
  0
LINE
  8
0
 10
15.0554
 20
-16.7208
 11
14.4627
 21
-17.236
  0
LINE
  8
0
 10
14.4627
 20
-17.236
 11
13.8524
 21
-17.7302
  0
LINE
  8
0
 10
13.8524
 20
-17.7302
 11
13.2252
 21
-18.2029
  0
LINE
  8
0
 10
13.2252
 20
-18.2029
 11
12.5818
 21
-18.6533
  0
LINE
  8
0
 10
12.5818
 20
-18.6533
 11
11.9232
 21
-19.0811
  0
LINE
  8
0
 10
11.9232
 20
-19.0811
 11
11.25
 21
-19.4856
  0
LINE
  8
0
 10
11.25
 20
-19.4856
 11
10.5631
 21
-19.8663
  0
LINE
  8
0
 10
10.5631
 20
-19.8663
 11
9.86335
 21
-20.2229
  0
LINE
  8
0
 10
9.86335
 20
-20.2229
 11
9.15157
 21
-20.5548
  0
LINE
  8
0
 10
9.15157
 20
-20.5548
 11
8.42865
 21
-20.8616
  0
LINE
  8
0
 10
8.42865
 20
-20.8616
 11
7.69545
 21
-21.1431
  0
LINE
  8
0
 10
7.69545
 20
-21.1431
 11
6.95288
 21
-21.3988
  0
LINE
  8
0
 10
6.95288
 20
-21.3988
 11
6.20184
 21
-21.6284
  0
LINE
  8
0
 10
6.20184
 20
-21.6284
 11
5.44324
 21
-21.8317
  0
LINE
  8
0
 10
5.44324
 20
-21.8317
 11
4.67801
 21
-22.0083
  0
LINE
  8
0
 10
4.67801
 20
-22.0083
 11
3.90708
 21
-22.1582
  0
LINE
  8
0
 10
3.90708
 20
-22.1582
 11
3.13139
 21
-22.281
  0
LINE
  8
0
 10
3.13139
 20
-22.281
 11
2.35189
 21
-22.3767
  0
LINE
  8
0
 10
2.35189
 20
-22.3767
 11
1.56952
 21
-22.4452
  0
LINE
  8
0
 10
1.56952
 20
-22.4452
 11
0.785238
 21
-22.4863
  0
LINE
  8
0
 10
0.785238
 20
-22.4863
 11
0
 21
-22.5
  0
LINE
  8
0
 10
0
 20
-22.5
 11
-0.785238
 21
-22.4863
  0
LINE
  8
0
 10
-0.785238
 20
-22.4863
 11
-1.56952
 21
-22.4452
  0
LINE
  8
0
 10
-1.56952
 20
-22.4452
 11
-2.35189
 21
-22.3767
  0
LINE
  8
0
 10
-2.35189
 20
-22.3767
 11
-3.13139
 21
-22.281
  0
LINE
  8
0
 10
-3.13139
 20
-22.281
 11
-3.90708
 21
-22.1582
  0
LINE
  8
0
 10
-3.90708
 20
-22.1582
 11
-4.67801
 21
-22.0083
  0
LINE
  8
0
 10
-4.67801
 20
-22.0083
 11
-5.44324
 21
-21.8317
  0
LINE
  8
0
 10
-5.44324
 20
-21.8317
 11
-6.20184
 21
-21.6284
  0
LINE
  8
0
 10
-6.20184
 20
-21.6284
 11
-6.95288
 21
-21.3988
  0
LINE
  8
0
 10
-6.95288
 20
-21.3988
 11
-7.69545
 21
-21.1431
  0
LINE
  8
0
 10
-7.69545
 20
-21.1431
 11
-8.42865
 21
-20.8616
  0
LINE
  8
0
 10
-8.42865
 20
-20.8616
 11
-9.15157
 21
-20.5548
  0
LINE
  8
0
 10
-9.15157
 20
-20.5548
 11
-9.86335
 21
-20.2229
  0
LINE
  8
0
 10
-9.86335
 20
-20.2229
 11
-10.5631
 21
-19.8663
  0
LINE
  8
0
 10
-10.5631
 20
-19.8663
 11
-11.25
 21
-19.4856
  0
LINE
  8
0
 10
-11.25
 20
-19.4856
 11
-11.9232
 21
-19.0811
  0
LINE
  8
0
 10
-11.9232
 20
-19.0811
 11
-12.5818
 21
-18.6533
  0
LINE
  8
0
 10
-12.5818
 20
-18.6533
 11
-13.2252
 21
-18.2029
  0
LINE
  8
0
 10
-13.2252
 20
-18.2029
 11
-13.8524
 21
-17.7302
  0
LINE
  8
0
 10
-13.8524
 20
-17.7302
 11
-14.4627
 21
-17.236
  0
LINE
  8
0
 10
-14.4627
 20
-17.236
 11
-15.0554
 21
-16.7208
  0
LINE
  8
0
 10
-15.0554
 20
-16.7208
 11
-15.6298
 21
-16.1851
  0
LINE
  8
0
 10
-15.6298
 20
-16.1851
 11
-16.1851
 21
-15.6298
  0
LINE
  8
0
 10
-16.1851
 20
-15.6298
 11
-16.7208
 21
-15.0554
  0
LINE
  8
0
 10
-16.7208
 20
-15.0554
 11
-17.236
 21
-14.4627
  0
LINE
  8
0
 10
-17.236
 20
-14.4627
 11
-17.7302
 21
-13.8524
  0
LINE
  8
0
 10
-17.7302
 20
-13.8524
 11
-18.2029
 21
-13.2252
  0
LINE
  8
0
 10
-18.2029
 20
-13.2252
 11
-18.6533
 21
-12.5818
  0
LINE
  8
0
 10
-18.6533
 20
-12.5818
 11
-19.0811
 21
-11.9232
  0
LINE
  8
0
 10
-19.0811
 20
-11.9232
 11
-19.4856
 21
-11.25
  0
LINE
  8
0
 10
-19.4856
 20
-11.25
 11
-19.8663
 21
-10.5631
  0
LINE
  8
0
 10
-19.8663
 20
-10.5631
 11
-20.2229
 21
-9.86335
  0
LINE
  8
0
 10
-20.2229
 20
-9.86335
 11
-20.5548
 21
-9.15157
  0
LINE
  8
0
 10
-20.5548
 20
-9.15157
 11
-20.8616
 21
-8.42865
  0
LINE
  8
0
 10
-20.8616
 20
-8.42865
 11
-21.1431
 21
-7.69545
  0
LINE
  8
0
 10
-21.1431
 20
-7.69545
 11
-21.3988
 21
-6.95288
  0
LINE
  8
0
 10
-21.3988
 20
-6.95288
 11
-21.6284
 21
-6.20184
  0
LINE
  8
0
 10
-21.6284
 20
-6.20184
 11
-21.8317
 21
-5.44324
  0
LINE
  8
0
 10
-21.8317
 20
-5.44324
 11
-22.0083
 21
-4.67801
  0
LINE
  8
0
 10
-22.0083
 20
-4.67801
 11
-22.1582
 21
-3.90708
  0
LINE
  8
0
 10
-22.1582
 20
-3.90708
 11
-22.281
 21
-3.13139
  0
LINE
  8
0
 10
-22.281
 20
-3.13139
 11
-22.3767
 21
-2.35189
  0
LINE
  8
0
 10
-22.3767
 20
-2.35189
 11
-22.4452
 21
-1.56952
  0
LINE
  8
0
 10
-22.4452
 20
-1.56952
 11
-22.4863
 21
-0.785238
  0
LINE
  8
0
 10
-22.4863
 20
-0.785238
 11
-22.5
 21
0
  0
LINE
  8
0
 10
-18.5
 20
0
 11
-18.4887
 21
-0.64564
  0
LINE
  8
0
 10
-18.4887
 20
-0.64564
 11
-18.4549
 21
-1.29049
  0
LINE
  8
0
 10
-18.4549
 20
-1.29049
 11
-18.3987
 21
-1.93378
  0
LINE
  8
0
 10
-18.3987
 20
-1.93378
 11
-18.32
 21
-2.5747
  0
LINE
  8
0
 10
-18.32
 20
-2.5747
 11
-18.2189
 21
-3.21249
  0
LINE
  8
0
 10
-18.2189
 20
-3.21249
 11
-18.0957
 21
-3.84637
  0
LINE
  8
0
 10
-18.0957
 20
-3.84637
 11
-17.9505
 21
-4.47555
  0
LINE
  8
0
 10
-17.9505
 20
-4.47555
 11
-17.7833
 21
-5.09929
  0
LINE
  8
0
 10
-17.7833
 20
-5.09929
 11
-17.5945
 21
-5.71681
  0
LINE
  8
0
 10
-17.5945
 20
-5.71681
 11
-17.3843
 21
-6.32737
  0
LINE
  8
0
 10
-17.3843
 20
-6.32737
 11
-17.1529
 21
-6.93022
  0
LINE
  8
0
 10
-17.1529
 20
-6.93022
 11
-16.9006
 21
-7.52463
  0
LINE
  8
0
 10
-16.9006
 20
-7.52463
 11
-16.6277
 21
-8.10987
  0
LINE
  8
0
 10
-16.6277
 20
-8.10987
 11
-16.3345
 21
-8.68522
  0
LINE
  8
0
 10
-16.3345
 20
-8.68522
 11
-16.0215
 21
-9.25
  0
LINE
  8
0
 10
-16.0215
 20
-9.25
 11
-15.6889
 21
-9.80351
  0
LINE
  8
0
 10
-15.6889
 20
-9.80351
 11
-15.3372
 21
-10.3451
  0
LINE
  8
0
 10
-15.3372
 20
-10.3451
 11
-14.9668
 21
-10.874
  0
LINE
  8
0
 10
-14.9668
 20
-10.874
 11
-14.5782
 21
-11.3897
  0
LINE
  8
0
 10
-14.5782
 20
-11.3897
 11
-14.1718
 21
-11.8916
  0
LINE
  8
0
 10
-14.1718
 20
-11.8916
 11
-13.7482
 21
-12.3789
  0
LINE
  8
0
 10
-13.7482
 20
-12.3789
 11
-13.3078
 21
-12.8512
  0
LINE
  8
0
 10
-13.3078
 20
-12.8512
 11
-12.8512
 21
-13.3078
  0
LINE
  8
0
 10
-12.8512
 20
-13.3078
 11
-12.3789
 21
-13.7482
  0
LINE
  8
0
 10
-12.3789
 20
-13.7482
 11
-11.8916
 21
-14.1718
  0
LINE
  8
0
 10
-11.8916
 20
-14.1718
 11
-11.3897
 21
-14.5782
  0
LINE
  8
0
 10
-11.3897
 20
-14.5782
 11
-10.874
 21
-14.9668
  0
LINE
  8
0
 10
-10.874
 20
-14.9668
 11
-10.3451
 21
-15.3372
  0
LINE
  8
0
 10
-10.3451
 20
-15.3372
 11
-9.80351
 21
-15.6889
  0
LINE
  8
0
 10
-9.80351
 20
-15.6889
 11
-9.25
 21
-16.0215
  0
LINE
  8
0
 10
-9.25
 20
-16.0215
 11
-8.68522
 21
-16.3345
  0
LINE
  8
0
 10
-8.68522
 20
-16.3345
 11
-8.10987
 21
-16.6277
  0
LINE
  8
0
 10
-8.10987
 20
-16.6277
 11
-7.52463
 21
-16.9006
  0
LINE
  8
0
 10
-7.52463
 20
-16.9006
 11
-6.93022
 21
-17.1529
  0
LINE
  8
0
 10
-6.93022
 20
-17.1529
 11
-6.32737
 21
-17.3843
  0
LINE
  8
0
 10
-6.32737
 20
-17.3843
 11
-5.71681
 21
-17.5945
  0
LINE
  8
0
 10
-5.71681
 20
-17.5945
 11
-5.09929
 21
-17.7833
  0
LINE
  8
0
 10
-5.09929
 20
-17.7833
 11
-4.47555
 21
-17.9505
  0
LINE
  8
0
 10
-4.47555
 20
-17.9505
 11
-3.84637
 21
-18.0957
  0
LINE
  8
0
 10
-3.84637
 20
-18.0957
 11
-3.21249
 21
-18.2189
  0
LINE
  8
0
 10
-3.21249
 20
-18.2189
 11
-2.5747
 21
-18.32
  0
LINE
  8
0
 10
-2.5747
 20
-18.32
 11
-1.93378
 21
-18.3987
  0
LINE
  8
0
 10
-1.93378
 20
-18.3987
 11
-1.29049
 21
-18.4549
  0
LINE
  8
0
 10
-1.29049
 20
-18.4549
 11
-0.64564
 21
-18.4887
  0
LINE
  8
0
 10
-0.64564
 20
-18.4887
 11
0
 21
-18.5
  0
LINE
  8
0
 10
0
 20
-18.5
 11
0.64564
 21
-18.4887
  0
LINE
  8
0
 10
0.64564
 20
-18.4887
 11
1.29049
 21
-18.4549
  0
LINE
  8
0
 10
1.29049
 20
-18.4549
 11
1.93378
 21
-18.3987
  0
LINE
  8
0
 10
1.93378
 20
-18.3987
 11
2.5747
 21
-18.32
  0
LINE
  8
0
 10
2.5747
 20
-18.32
 11
3.21249
 21
-18.2189
  0
LINE
  8
0
 10
3.21249
 20
-18.2189
 11
3.84637
 21
-18.0957
  0
LINE
  8
0
 10
3.84637
 20
-18.0957
 11
4.47555
 21
-17.9505
  0
LINE
  8
0
 10
4.47555
 20
-17.9505
 11
5.09929
 21
-17.7833
  0
LINE
  8
0
 10
5.09929
 20
-17.7833
 11
5.71681
 21
-17.5945
  0
LINE
  8
0
 10
5.71681
 20
-17.5945
 11
6.32737
 21
-17.3843
  0
LINE
  8
0
 10
6.32737
 20
-17.3843
 11
6.93022
 21
-17.1529
  0
LINE
  8
0
 10
6.93022
 20
-17.1529
 11
7.52463
 21
-16.9006
  0
LINE
  8
0
 10
7.52463
 20
-16.9006
 11
8.10987
 21
-16.6277
  0
LINE
  8
0
 10
8.10987
 20
-16.6277
 11
8.68522
 21
-16.3345
  0
LINE
  8
0
 10
8.68522
 20
-16.3345
 11
9.25
 21
-16.0215
  0
LINE
  8
0
 10
9.25
 20
-16.0215
 11
9.80351
 21
-15.6889
  0
LINE
  8
0
 10
9.80351
 20
-15.6889
 11
10.3451
 21
-15.3372
  0
LINE
  8
0
 10
10.3451
 20
-15.3372
 11
10.874
 21
-14.9668
  0
LINE
  8
0
 10
10.874
 20
-14.9668
 11
11.3897
 21
-14.5782
  0
LINE
  8
0
 10
11.3897
 20
-14.5782
 11
11.8916
 21
-14.1718
  0
LINE
  8
0
 10
11.8916
 20
-14.1718
 11
12.3789
 21
-13.7482
  0
LINE
  8
0
 10
12.3789
 20
-13.7482
 11
12.8512
 21
-13.3078
  0
LINE
  8
0
 10
12.8512
 20
-13.3078
 11
13.3078
 21
-12.8512
  0
LINE
  8
0
 10
13.3078
 20
-12.8512
 11
13.7482
 21
-12.3789
  0
LINE
  8
0
 10
13.7482
 20
-12.3789
 11
14.1718
 21
-11.8916
  0
LINE
  8
0
 10
14.1718
 20
-11.8916
 11
14.5782
 21
-11.3897
  0
LINE
  8
0
 10
14.5782
 20
-11.3897
 11
14.9668
 21
-10.874
  0
LINE
  8
0
 10
14.9668
 20
-10.874
 11
15.3372
 21
-10.3451
  0
LINE
  8
0
 10
15.3372
 20
-10.3451
 11
15.6889
 21
-9.80351
  0
LINE
  8
0
 10
15.6889
 20
-9.80351
 11
16.0215
 21
-9.25
  0
LINE
  8
0
 10
16.0215
 20
-9.25
 11
16.3345
 21
-8.68522
  0
LINE
  8
0
 10
16.3345
 20
-8.68522
 11
16.6277
 21
-8.10987
  0
LINE
  8
0
 10
16.6277
 20
-8.10987
 11
16.9006
 21
-7.52463
  0
LINE
  8
0
 10
16.9006
 20
-7.52463
 11
17.1529
 21
-6.93022
  0
LINE
  8
0
 10
17.1529
 20
-6.93022
 11
17.3843
 21
-6.32737
  0
LINE
  8
0
 10
17.3843
 20
-6.32737
 11
17.5945
 21
-5.71681
  0
LINE
  8
0
 10
17.5945
 20
-5.71681
 11
17.7833
 21
-5.09929
  0
LINE
  8
0
 10
17.7833
 20
-5.09929
 11
17.9505
 21
-4.47555
  0
LINE
  8
0
 10
17.9505
 20
-4.47555
 11
18.0957
 21
-3.84637
  0
LINE
  8
0
 10
18.0957
 20
-3.84637
 11
18.2189
 21
-3.21249
  0
LINE
  8
0
 10
18.2189
 20
-3.21249
 11
18.32
 21
-2.5747
  0
LINE
  8
0
 10
18.32
 20
-2.5747
 11
18.3987
 21
-1.93378
  0
LINE
  8
0
 10
18.3987
 20
-1.93378
 11
18.4549
 21
-1.29049
  0
LINE
  8
0
 10
18.4549
 20
-1.29049
 11
18.4887
 21
-0.64564
  0
LINE
  8
0
 10
18.4887
 20
-0.64564
 11
18.5
 21
0
  0
LINE
  8
0
 10
18.5
 20
0
 11
18.4887
 21
0.64564
  0
LINE
  8
0
 10
18.4887
 20
0.64564
 11
18.4549
 21
1.29049
  0
LINE
  8
0
 10
18.4549
 20
1.29049
 11
18.3987
 21
1.93378
  0
LINE
  8
0
 10
18.3987
 20
1.93378
 11
18.32
 21
2.5747
  0
LINE
  8
0
 10
18.32
 20
2.5747
 11
18.2189
 21
3.21249
  0
LINE
  8
0
 10
18.2189
 20
3.21249
 11
18.0957
 21
3.84637
  0
LINE
  8
0
 10
18.0957
 20
3.84637
 11
17.9505
 21
4.47555
  0
LINE
  8
0
 10
17.9505
 20
4.47555
 11
17.7833
 21
5.09929
  0
LINE
  8
0
 10
17.7833
 20
5.09929
 11
17.5945
 21
5.71681
  0
LINE
  8
0
 10
17.5945
 20
5.71681
 11
17.3843
 21
6.32737
  0
LINE
  8
0
 10
17.3843
 20
6.32737
 11
17.1529
 21
6.93022
  0
LINE
  8
0
 10
17.1529
 20
6.93022
 11
16.9006
 21
7.52463
  0
LINE
  8
0
 10
16.9006
 20
7.52463
 11
16.6277
 21
8.10987
  0
LINE
  8
0
 10
16.6277
 20
8.10987
 11
16.3345
 21
8.68522
  0
LINE
  8
0
 10
16.3345
 20
8.68522
 11
16.0215
 21
9.25
  0
LINE
  8
0
 10
16.0215
 20
9.25
 11
15.6889
 21
9.80351
  0
LINE
  8
0
 10
15.6889
 20
9.80351
 11
15.3372
 21
10.3451
  0
LINE
  8
0
 10
15.3372
 20
10.3451
 11
14.9668
 21
10.874
  0
LINE
  8
0
 10
14.9668
 20
10.874
 11
14.5782
 21
11.3897
  0
LINE
  8
0
 10
14.5782
 20
11.3897
 11
14.1718
 21
11.8916
  0
LINE
  8
0
 10
14.1718
 20
11.8916
 11
13.7482
 21
12.3789
  0
LINE
  8
0
 10
13.7482
 20
12.3789
 11
13.3078
 21
12.8512
  0
LINE
  8
0
 10
13.3078
 20
12.8512
 11
12.8512
 21
13.3078
  0
LINE
  8
0
 10
12.8512
 20
13.3078
 11
12.3789
 21
13.7482
  0
LINE
  8
0
 10
12.3789
 20
13.7482
 11
11.8916
 21
14.1718
  0
LINE
  8
0
 10
11.8916
 20
14.1718
 11
11.3897
 21
14.5782
  0
LINE
  8
0
 10
11.3897
 20
14.5782
 11
10.874
 21
14.9668
  0
LINE
  8
0
 10
10.874
 20
14.9668
 11
10.3451
 21
15.3372
  0
LINE
  8
0
 10
10.3451
 20
15.3372
 11
9.80351
 21
15.6889
  0
LINE
  8
0
 10
9.80351
 20
15.6889
 11
9.25
 21
16.0215
  0
LINE
  8
0
 10
9.25
 20
16.0215
 11
8.68522
 21
16.3345
  0
LINE
  8
0
 10
8.68522
 20
16.3345
 11
8.10987
 21
16.6277
  0
LINE
  8
0
 10
8.10987
 20
16.6277
 11
7.52463
 21
16.9006
  0
LINE
  8
0
 10
7.52463
 20
16.9006
 11
6.93022
 21
17.1529
  0
LINE
  8
0
 10
6.93022
 20
17.1529
 11
6.32737
 21
17.3843
  0
LINE
  8
0
 10
6.32737
 20
17.3843
 11
5.71681
 21
17.5945
  0
LINE
  8
0
 10
5.71681
 20
17.5945
 11
5.09929
 21
17.7833
  0
LINE
  8
0
 10
5.09929
 20
17.7833
 11
4.47555
 21
17.9505
  0
LINE
  8
0
 10
4.47555
 20
17.9505
 11
3.84637
 21
18.0957
  0
LINE
  8
0
 10
3.84637
 20
18.0957
 11
3.21249
 21
18.2189
  0
LINE
  8
0
 10
3.21249
 20
18.2189
 11
2.5747
 21
18.32
  0
LINE
  8
0
 10
2.5747
 20
18.32
 11
1.93378
 21
18.3987
  0
LINE
  8
0
 10
1.93378
 20
18.3987
 11
1.29049
 21
18.4549
  0
LINE
  8
0
 10
1.29049
 20
18.4549
 11
0.64564
 21
18.4887
  0
LINE
  8
0
 10
0.64564
 20
18.4887
 11
0
 21
18.5
  0
LINE
  8
0
 10
0
 20
18.5
 11
-0.64564
 21
18.4887
  0
LINE
  8
0
 10
-0.64564
 20
18.4887
 11
-1.29049
 21
18.4549
  0
LINE
  8
0
 10
-1.29049
 20
18.4549
 11
-1.93378
 21
18.3987
  0
LINE
  8
0
 10
-1.93378
 20
18.3987
 11
-2.5747
 21
18.32
  0
LINE
  8
0
 10
-2.5747
 20
18.32
 11
-3.21249
 21
18.2189
  0
LINE
  8
0
 10
-3.21249
 20
18.2189
 11
-3.84637
 21
18.0957
  0
LINE
  8
0
 10
-3.84637
 20
18.0957
 11
-4.47555
 21
17.9505
  0
LINE
  8
0
 10
-4.47555
 20
17.9505
 11
-5.09929
 21
17.7833
  0
LINE
  8
0
 10
-5.09929
 20
17.7833
 11
-5.71681
 21
17.5945
  0
LINE
  8
0
 10
-5.71681
 20
17.5945
 11
-6.32737
 21
17.3843
  0
LINE
  8
0
 10
-6.32737
 20
17.3843
 11
-6.93022
 21
17.1529
  0
LINE
  8
0
 10
-6.93022
 20
17.1529
 11
-7.52463
 21
16.9006
  0
LINE
  8
0
 10
-7.52463
 20
16.9006
 11
-8.10987
 21
16.6277
  0
LINE
  8
0
 10
-8.10987
 20
16.6277
 11
-8.68522
 21
16.3345
  0
LINE
  8
0
 10
-8.68522
 20
16.3345
 11
-9.25
 21
16.0215
  0
LINE
  8
0
 10
-9.25
 20
16.0215
 11
-9.80351
 21
15.6889
  0
LINE
  8
0
 10
-9.80351
 20
15.6889
 11
-10.3451
 21
15.3372
  0
LINE
  8
0
 10
-10.3451
 20
15.3372
 11
-10.874
 21
14.9668
  0
LINE
  8
0
 10
-10.874
 20
14.9668
 11
-11.3897
 21
14.5782
  0
LINE
  8
0
 10
-11.3897
 20
14.5782
 11
-11.8916
 21
14.1718
  0
LINE
  8
0
 10
-11.8916
 20
14.1718
 11
-12.3789
 21
13.7482
  0
LINE
  8
0
 10
-12.3789
 20
13.7482
 11
-12.8512
 21
13.3078
  0
LINE
  8
0
 10
-12.8512
 20
13.3078
 11
-13.3078
 21
12.8512
  0
LINE
  8
0
 10
-13.3078
 20
12.8512
 11
-13.7482
 21
12.3789
  0
LINE
  8
0
 10
-13.7482
 20
12.3789
 11
-14.1718
 21
11.8916
  0
LINE
  8
0
 10
-14.1718
 20
11.8916
 11
-14.5782
 21
11.3897
  0
LINE
  8
0
 10
-14.5782
 20
11.3897
 11
-14.9668
 21
10.874
  0
LINE
  8
0
 10
-14.9668
 20
10.874
 11
-15.3372
 21
10.3451
  0
LINE
  8
0
 10
-15.3372
 20
10.3451
 11
-15.6889
 21
9.80351
  0
LINE
  8
0
 10
-15.6889
 20
9.80351
 11
-16.0215
 21
9.25
  0
LINE
  8
0
 10
-16.0215
 20
9.25
 11
-16.3345
 21
8.68522
  0
LINE
  8
0
 10
-16.3345
 20
8.68522
 11
-16.6277
 21
8.10987
  0
LINE
  8
0
 10
-16.6277
 20
8.10987
 11
-16.9006
 21
7.52463
  0
LINE
  8
0
 10
-16.9006
 20
7.52463
 11
-17.1529
 21
6.93022
  0
LINE
  8
0
 10
-17.1529
 20
6.93022
 11
-17.3843
 21
6.32737
  0
LINE
  8
0
 10
-17.3843
 20
6.32737
 11
-17.5945
 21
5.71681
  0
LINE
  8
0
 10
-17.5945
 20
5.71681
 11
-17.7833
 21
5.09929
  0
LINE
  8
0
 10
-17.7833
 20
5.09929
 11
-17.9505
 21
4.47555
  0
LINE
  8
0
 10
-17.9505
 20
4.47555
 11
-18.0957
 21
3.84637
  0
LINE
  8
0
 10
-18.0957
 20
3.84637
 11
-18.2189
 21
3.21249
  0
LINE
  8
0
 10
-18.2189
 20
3.21249
 11
-18.32
 21
2.5747
  0
LINE
  8
0
 10
-18.32
 20
2.5747
 11
-18.3987
 21
1.93378
  0
LINE
  8
0
 10
-18.3987
 20
1.93378
 11
-18.4549
 21
1.29049
  0
LINE
  8
0
 10
-18.4549
 20
1.29049
 11
-18.4887
 21
0.64564
  0
LINE
  8
0
 10
-18.4887
 20
0.64564
 11
-18.5
 21
0
  0
ENDSEC
  0
SECTION
  2
OBJECTS
  0
DICTIONARY
  0
ENDSEC
  0
EOF
